STARTFONT 2.1
FONT -FreeType-PxPlus IBM VGA8-Medium-R-Normal--32-320-72-72-P-136-ISO10646-1
SIZE 32 72 72
FONTBOUNDINGBOX 16 32 0 -8
STARTPROPERTIES 19
FOUNDRY "FreeType"
FAMILY_NAME "PxPlus IBM VGA8"
WEIGHT_NAME "Medium"
SLANT "R"
SETWIDTH_NAME "Normal"
ADD_STYLE_NAME ""
PIXEL_SIZE 32
POINT_SIZE 320
RESOLUTION_X 72
RESOLUTION_Y 72
SPACING "P"
AVERAGE_WIDTH 136
CHARSET_REGISTRY "ISO10646"
CHARSET_ENCODING "1"
FONT_ASCENT 24
FONT_DESCENT 8
COPYRIGHT "Outline (vector) version (c) 2015 VileR"
_OTF_FONTFILE "c:\Users\tomikaa\Downloads\ultimate_oldschool_pc_font_pack_v1.0\PxPlus (TrueType - extended charset)\PxPlus_IBM_VGA8.ttf"
_OTF_PSNAME "PxPlus_IBM_VGA8"
ENDPROPERTIES
CHARS 781
STARTCHAR 0000
ENCODING 0
SWIDTH 500 0
DWIDTH 16 0
BBX 0 0 0 0
BITMAP
ENDCHAR
STARTCHAR 0001
ENCODING 1
SWIDTH 500 0
DWIDTH 16 0
BBX 16 20 0 0
BITMAP
3FFC
3FFC
C003
C003
CC33
CC33
C003
C003
C003
C003
CFF3
CFF3
C3C3
C3C3
C003
C003
C003
C003
3FFC
3FFC
ENDCHAR
STARTCHAR 0002
ENCODING 2
SWIDTH 500 0
DWIDTH 16 0
BBX 16 20 0 0
BITMAP
3FFC
3FFC
FFFF
FFFF
F3CF
F3CF
FFFF
FFFF
FFFF
FFFF
F00F
F00F
FC3F
FC3F
FFFF
FFFF
FFFF
FFFF
3FFC
3FFC
ENDCHAR
STARTCHAR 0003
ENCODING 3
SWIDTH 500 0
DWIDTH 16 0
BBX 14 16 0 0
BITMAP
3CF0
3CF0
FFFC
FFFC
FFFC
FFFC
FFFC
FFFC
FFFC
FFFC
3FF0
3FF0
0FC0
0FC0
0300
0300
ENDCHAR
STARTCHAR 0004
ENCODING 4
SWIDTH 500 0
DWIDTH 16 0
BBX 14 14 0 2
BITMAP
0300
0300
0FC0
0FC0
3FF0
3FF0
FFFC
FFFC
3FF0
3FF0
0FC0
0FC0
0300
0300
ENDCHAR
STARTCHAR 0005
ENCODING 5
SWIDTH 500 0
DWIDTH 16 0
BBX 16 18 0 0
BITMAP
03C0
03C0
0FF0
0FF0
0FF0
0FF0
FC3F
FC3F
FC3F
FC3F
FC3F
FC3F
03C0
03C0
03C0
03C0
0FF0
0FF0
ENDCHAR
STARTCHAR 0006
ENCODING 6
SWIDTH 500 0
DWIDTH 16 0
BBX 16 18 0 0
BITMAP
03C0
03C0
0FF0
0FF0
3FFC
3FFC
FFFF
FFFF
FFFF
FFFF
3FFC
3FFC
03C0
03C0
03C0
03C0
0FF0
0FF0
ENDCHAR
STARTCHAR 0007
ENCODING 7
SWIDTH 500 0
DWIDTH 16 0
BBX 8 8 4 4
BITMAP
3C
3C
FF
FF
FF
FF
3C
3C
ENDCHAR
STARTCHAR 0008
ENCODING 8
SWIDTH 500 0
DWIDTH 16 0
BBX 16 32 0 -8
BITMAP
FFFF
FFFF
FFFF
FFFF
FFFF
FFFF
FFFF
FFFF
FFFF
FFFF
FFFF
FFFF
FC3F
FC3F
F00F
F00F
F00F
F00F
FC3F
FC3F
FFFF
FFFF
FFFF
FFFF
FFFF
FFFF
FFFF
FFFF
FFFF
FFFF
FFFF
FFFF
ENDCHAR
STARTCHAR 0009
ENCODING 9
SWIDTH 500 0
DWIDTH 16 0
BBX 12 12 2 2
BITMAP
3FC0
3FC0
F0F0
F0F0
C030
C030
C030
C030
F0F0
F0F0
3FC0
3FC0
ENDCHAR
STARTCHAR 000A
ENCODING 10
SWIDTH 500 0
DWIDTH 16 0
BBX 16 32 0 -8
BITMAP
FFFF
FFFF
FFFF
FFFF
FFFF
FFFF
FFFF
FFFF
FFFF
FFFF
F00F
F00F
C3C3
C3C3
CFF3
CFF3
CFF3
CFF3
C3C3
C3C3
F00F
F00F
FFFF
FFFF
FFFF
FFFF
FFFF
FFFF
FFFF
FFFF
FFFF
FFFF
ENDCHAR
STARTCHAR 000B
ENCODING 11
SWIDTH 500 0
DWIDTH 16 0
BBX 14 20 0 0
BITMAP
03FC
03FC
00FC
00FC
03CC
03CC
0F0C
0F0C
3FC0
3FC0
F0F0
F0F0
F0F0
F0F0
F0F0
F0F0
F0F0
F0F0
3FC0
3FC0
ENDCHAR
STARTCHAR 000C
ENCODING 12
SWIDTH 500 0
DWIDTH 16 0
BBX 12 20 2 0
BITMAP
3FC0
3FC0
F0F0
F0F0
F0F0
F0F0
F0F0
F0F0
F0F0
F0F0
3FC0
3FC0
0F00
0F00
FFF0
FFF0
0F00
0F00
0F00
0F00
ENDCHAR
STARTCHAR 000D
ENCODING 13
SWIDTH 500 0
DWIDTH 16 0
BBX 16 20 0 0
BITMAP
0FFF
0FFF
0F0F
0F0F
0FFF
0FFF
0F00
0F00
0F00
0F00
0F00
0F00
0F00
0F00
3F00
3F00
FF00
FF00
FC00
FC00
ENDCHAR
STARTCHAR 000E
ENCODING 14
SWIDTH 500 0
DWIDTH 16 0
BBX 16 22 0 -2
BITMAP
3FFF
3FFF
3C0F
3C0F
3FFF
3FFF
3C0F
3C0F
3C0F
3C0F
3C0F
3C0F
3C0F
3C0F
3C3F
3C3F
FC3F
FC3F
FC3C
FC3C
F000
F000
ENDCHAR
STARTCHAR 000F
ENCODING 15
SWIDTH 500 0
DWIDTH 16 0
BBX 16 18 0 0
BITMAP
03C0
03C0
03C0
03C0
F3CF
F3CF
0FF0
0FF0
FC3F
FC3F
0FF0
0FF0
F3CF
F3CF
03C0
03C0
03C0
03C0
ENDCHAR
STARTCHAR 0010
ENCODING 16
SWIDTH 500 0
DWIDTH 16 0
BBX 14 22 0 0
BITMAP
C000
C000
F000
F000
FC00
FC00
FF00
FF00
FFC0
FFC0
FFFC
FFFC
FFC0
FFC0
FF00
FF00
FC00
FC00
F000
F000
C000
C000
ENDCHAR
STARTCHAR 0011
ENCODING 17
SWIDTH 500 0
DWIDTH 16 0
BBX 14 22 0 0
BITMAP
000C
000C
003C
003C
00FC
00FC
03FC
03FC
0FFC
0FFC
FFFC
FFFC
0FFC
0FFC
03FC
03FC
00FC
00FC
003C
003C
000C
000C
ENDCHAR
STARTCHAR 0012
ENCODING 18
SWIDTH 500 0
DWIDTH 16 0
BBX 12 18 2 2
BITMAP
0F00
0F00
3FC0
3FC0
FFF0
FFF0
0F00
0F00
0F00
0F00
0F00
0F00
FFF0
FFF0
3FC0
3FC0
0F00
0F00
ENDCHAR
STARTCHAR 0013
ENCODING 19
SWIDTH 500 0
DWIDTH 16 0
BBX 12 20 2 0
BITMAP
F0F0
F0F0
F0F0
F0F0
F0F0
F0F0
F0F0
F0F0
F0F0
F0F0
F0F0
F0F0
F0F0
F0F0
0000
0000
F0F0
F0F0
F0F0
F0F0
ENDCHAR
STARTCHAR 0014
ENCODING 20
SWIDTH 500 0
DWIDTH 16 0
BBX 16 20 0 0
BITMAP
3FFF
3FFF
F3CF
F3CF
F3CF
F3CF
F3CF
F3CF
3FCF
3FCF
03CF
03CF
03CF
03CF
03CF
03CF
03CF
03CF
03CF
03CF
ENDCHAR
STARTCHAR 0015
ENCODING 21
SWIDTH 500 0
DWIDTH 16 0
BBX 14 24 0 -2
BITMAP
3FF0
3FF0
F03C
F03C
3C00
3C00
0FC0
0FC0
3CF0
3CF0
F03C
F03C
F03C
F03C
3CF0
3CF0
0FC0
0FC0
00F0
00F0
F03C
F03C
3FF0
3FF0
ENDCHAR
STARTCHAR 0016
ENCODING 22
SWIDTH 500 0
DWIDTH 16 0
BBX 14 8 0 0
BITMAP
FFFC
FFFC
FFFC
FFFC
FFFC
FFFC
FFFC
FFFC
ENDCHAR
STARTCHAR 0017
ENCODING 23
SWIDTH 500 0
DWIDTH 16 0
BBX 12 20 2 0
BITMAP
0F00
0F00
3FC0
3FC0
FFF0
FFF0
0F00
0F00
0F00
0F00
0F00
0F00
FFF0
FFF0
3FC0
3FC0
0F00
0F00
FFF0
FFF0
ENDCHAR
STARTCHAR 0018
ENCODING 24
SWIDTH 500 0
DWIDTH 16 0
BBX 12 20 2 0
BITMAP
0F00
0F00
3FC0
3FC0
FFF0
FFF0
0F00
0F00
0F00
0F00
0F00
0F00
0F00
0F00
0F00
0F00
0F00
0F00
0F00
0F00
ENDCHAR
STARTCHAR 0019
ENCODING 25
SWIDTH 500 0
DWIDTH 16 0
BBX 12 20 2 0
BITMAP
0F00
0F00
0F00
0F00
0F00
0F00
0F00
0F00
0F00
0F00
0F00
0F00
0F00
0F00
FFF0
FFF0
3FC0
3FC0
0F00
0F00
ENDCHAR
STARTCHAR 001A
ENCODING 26
SWIDTH 500 0
DWIDTH 16 0
BBX 14 10 0 4
BITMAP
03C0
03C0
00F0
00F0
FFFC
FFFC
00F0
00F0
03C0
03C0
ENDCHAR
STARTCHAR 001B
ENCODING 27
SWIDTH 500 0
DWIDTH 16 0
BBX 14 10 0 4
BITMAP
0F00
0F00
3C00
3C00
FFFC
FFFC
3C00
3C00
0F00
0F00
ENDCHAR
STARTCHAR 001C
ENCODING 28
SWIDTH 500 0
DWIDTH 16 0
BBX 14 8 0 4
BITMAP
F000
F000
F000
F000
F000
F000
FFFC
FFFC
ENDCHAR
STARTCHAR 001D
ENCODING 29
SWIDTH 500 0
DWIDTH 16 0
BBX 14 10 0 4
BITMAP
0CC0
0CC0
3CF0
3CF0
FFFC
FFFC
3CF0
3CF0
0CC0
0CC0
ENDCHAR
STARTCHAR 001E
ENCODING 30
SWIDTH 500 0
DWIDTH 16 0
BBX 14 14 0 2
BITMAP
0300
0300
0FC0
0FC0
0FC0
0FC0
3FF0
3FF0
3FF0
3FF0
FFFC
FFFC
FFFC
FFFC
ENDCHAR
STARTCHAR 001F
ENCODING 31
SWIDTH 500 0
DWIDTH 16 0
BBX 14 14 0 2
BITMAP
FFFC
FFFC
FFFC
FFFC
3FF0
3FF0
3FF0
3FF0
0FC0
0FC0
0FC0
0FC0
0300
0300
ENDCHAR
STARTCHAR 0020
ENCODING 32
SWIDTH 500 0
DWIDTH 16 0
BBX 0 0 0 0
BITMAP
ENDCHAR
STARTCHAR 0021
ENCODING 33
SWIDTH 500 0
DWIDTH 16 0
BBX 8 20 4 0
BITMAP
3C
3C
FF
FF
FF
FF
FF
FF
3C
3C
3C
3C
3C
3C
00
00
3C
3C
3C
3C
ENDCHAR
STARTCHAR 0022
ENCODING 34
SWIDTH 500 0
DWIDTH 16 0
BBX 12 8 2 14
BITMAP
F0F0
F0F0
F0F0
F0F0
F0F0
F0F0
30C0
30C0
ENDCHAR
STARTCHAR 0023
ENCODING 35
SWIDTH 500 0
DWIDTH 16 0
BBX 14 18 0 0
BITMAP
3CF0
3CF0
3CF0
3CF0
FFFC
FFFC
3CF0
3CF0
3CF0
3CF0
3CF0
3CF0
FFFC
FFFC
3CF0
3CF0
3CF0
3CF0
ENDCHAR
STARTCHAR 0024
ENCODING 36
SWIDTH 500 0
DWIDTH 16 0
BBX 14 28 0 -4
BITMAP
03C0
03C0
03C0
03C0
3FF0
3FF0
F03C
F03C
F00C
F00C
F000
F000
3FF0
3FF0
003C
003C
003C
003C
C03C
C03C
F03C
F03C
3FF0
3FF0
03C0
03C0
03C0
03C0
ENDCHAR
STARTCHAR 0025
ENCODING 37
SWIDTH 500 0
DWIDTH 16 0
BBX 14 16 0 0
BITMAP
F00C
F00C
F03C
F03C
00F0
00F0
03C0
03C0
0F00
0F00
3C00
3C00
F03C
F03C
C03C
C03C
ENDCHAR
STARTCHAR 0026
ENCODING 38
SWIDTH 500 0
DWIDTH 16 0
BBX 14 20 0 0
BITMAP
0FC0
0FC0
3CF0
3CF0
3CF0
3CF0
0FC0
0FC0
3F3C
3F3C
F3F0
F3F0
F0F0
F0F0
F0F0
F0F0
F0F0
F0F0
3F3C
3F3C
ENDCHAR
STARTCHAR 0027
ENCODING 39
SWIDTH 500 0
DWIDTH 16 0
BBX 6 8 2 14
BITMAP
3C
3C
3C
3C
3C
3C
F0
F0
ENDCHAR
STARTCHAR 0028
ENCODING 40
SWIDTH 500 0
DWIDTH 16 0
BBX 8 20 4 0
BITMAP
0F
0F
3C
3C
F0
F0
F0
F0
F0
F0
F0
F0
F0
F0
F0
F0
3C
3C
0F
0F
ENDCHAR
STARTCHAR 0029
ENCODING 41
SWIDTH 500 0
DWIDTH 16 0
BBX 8 20 4 0
BITMAP
F0
F0
3C
3C
0F
0F
0F
0F
0F
0F
0F
0F
0F
0F
0F
0F
3C
3C
F0
F0
ENDCHAR
STARTCHAR 002A
ENCODING 42
SWIDTH 500 0
DWIDTH 16 0
BBX 16 10 0 4
BITMAP
3C3C
3C3C
0FF0
0FF0
FFFF
FFFF
0FF0
0FF0
3C3C
3C3C
ENDCHAR
STARTCHAR 002B
ENCODING 43
SWIDTH 500 0
DWIDTH 16 0
BBX 12 10 2 4
BITMAP
0F00
0F00
0F00
0F00
FFF0
FFF0
0F00
0F00
0F00
0F00
ENDCHAR
STARTCHAR 002C
ENCODING 44
SWIDTH 500 0
DWIDTH 16 0
BBX 6 8 4 -2
BITMAP
3C
3C
3C
3C
3C
3C
F0
F0
ENDCHAR
STARTCHAR 002D
ENCODING 45
SWIDTH 500 0
DWIDTH 16 0
BBX 14 2 0 8
BITMAP
FFFC
FFFC
ENDCHAR
STARTCHAR 002E
ENCODING 46
SWIDTH 500 0
DWIDTH 16 0
BBX 4 4 6 0
BITMAP
F0
F0
F0
F0
ENDCHAR
STARTCHAR 002F
ENCODING 47
SWIDTH 500 0
DWIDTH 16 0
BBX 14 16 0 0
BITMAP
000C
000C
003C
003C
00F0
00F0
03C0
03C0
0F00
0F00
3C00
3C00
F000
F000
C000
C000
ENDCHAR
STARTCHAR 0030
ENCODING 48
SWIDTH 500 0
DWIDTH 16 0
BBX 14 20 0 0
BITMAP
0FC0
0FC0
3CF0
3CF0
F03C
F03C
F03C
F03C
F33C
F33C
F33C
F33C
F03C
F03C
F03C
F03C
3CF0
3CF0
0FC0
0FC0
ENDCHAR
STARTCHAR 0031
ENCODING 49
SWIDTH 500 0
DWIDTH 16 0
BBX 12 20 2 0
BITMAP
0F00
0F00
3F00
3F00
FF00
FF00
0F00
0F00
0F00
0F00
0F00
0F00
0F00
0F00
0F00
0F00
0F00
0F00
FFF0
FFF0
ENDCHAR
STARTCHAR 0032
ENCODING 50
SWIDTH 500 0
DWIDTH 16 0
BBX 14 20 0 0
BITMAP
3FF0
3FF0
F03C
F03C
003C
003C
00F0
00F0
03C0
03C0
0F00
0F00
3C00
3C00
F000
F000
F03C
F03C
FFFC
FFFC
ENDCHAR
STARTCHAR 0033
ENCODING 51
SWIDTH 500 0
DWIDTH 16 0
BBX 14 20 0 0
BITMAP
3FF0
3FF0
F03C
F03C
003C
003C
003C
003C
0FF0
0FF0
003C
003C
003C
003C
003C
003C
F03C
F03C
3FF0
3FF0
ENDCHAR
STARTCHAR 0034
ENCODING 52
SWIDTH 500 0
DWIDTH 16 0
BBX 14 20 0 0
BITMAP
00F0
00F0
03F0
03F0
0FF0
0FF0
3CF0
3CF0
F0F0
F0F0
FFFC
FFFC
00F0
00F0
00F0
00F0
00F0
00F0
03FC
03FC
ENDCHAR
STARTCHAR 0035
ENCODING 53
SWIDTH 500 0
DWIDTH 16 0
BBX 14 20 0 0
BITMAP
FFFC
FFFC
F000
F000
F000
F000
F000
F000
FFF0
FFF0
003C
003C
003C
003C
003C
003C
F03C
F03C
3FF0
3FF0
ENDCHAR
STARTCHAR 0036
ENCODING 54
SWIDTH 500 0
DWIDTH 16 0
BBX 14 20 0 0
BITMAP
0FC0
0FC0
3C00
3C00
F000
F000
F000
F000
FFF0
FFF0
F03C
F03C
F03C
F03C
F03C
F03C
F03C
F03C
3FF0
3FF0
ENDCHAR
STARTCHAR 0037
ENCODING 55
SWIDTH 500 0
DWIDTH 16 0
BBX 14 20 0 0
BITMAP
FFFC
FFFC
F03C
F03C
003C
003C
003C
003C
00F0
00F0
03C0
03C0
0F00
0F00
0F00
0F00
0F00
0F00
0F00
0F00
ENDCHAR
STARTCHAR 0038
ENCODING 56
SWIDTH 500 0
DWIDTH 16 0
BBX 14 20 0 0
BITMAP
3FF0
3FF0
F03C
F03C
F03C
F03C
F03C
F03C
3FF0
3FF0
F03C
F03C
F03C
F03C
F03C
F03C
F03C
F03C
3FF0
3FF0
ENDCHAR
STARTCHAR 0039
ENCODING 57
SWIDTH 500 0
DWIDTH 16 0
BBX 14 20 0 0
BITMAP
3FF0
3FF0
F03C
F03C
F03C
F03C
F03C
F03C
3FFC
3FFC
003C
003C
003C
003C
003C
003C
00F0
00F0
3FC0
3FC0
ENDCHAR
STARTCHAR 003A
ENCODING 58
SWIDTH 500 0
DWIDTH 16 0
BBX 4 14 6 2
BITMAP
F0
F0
F0
F0
00
00
00
00
00
00
F0
F0
F0
F0
ENDCHAR
STARTCHAR 003B
ENCODING 59
SWIDTH 500 0
DWIDTH 16 0
BBX 6 16 4 0
BITMAP
3C
3C
3C
3C
00
00
00
00
00
00
3C
3C
3C
3C
F0
F0
ENDCHAR
STARTCHAR 003C
ENCODING 60
SWIDTH 500 0
DWIDTH 16 0
BBX 12 18 2 0
BITMAP
00F0
00F0
03C0
03C0
0F00
0F00
3C00
3C00
F000
F000
3C00
3C00
0F00
0F00
03C0
03C0
00F0
00F0
ENDCHAR
STARTCHAR 003D
ENCODING 61
SWIDTH 500 0
DWIDTH 16 0
BBX 12 8 2 6
BITMAP
FFF0
FFF0
0000
0000
0000
0000
FFF0
FFF0
ENDCHAR
STARTCHAR 003E
ENCODING 62
SWIDTH 500 0
DWIDTH 16 0
BBX 12 18 2 0
BITMAP
F000
F000
3C00
3C00
0F00
0F00
03C0
03C0
00F0
00F0
03C0
03C0
0F00
0F00
3C00
3C00
F000
F000
ENDCHAR
STARTCHAR 003F
ENCODING 63
SWIDTH 500 0
DWIDTH 16 0
BBX 14 20 0 0
BITMAP
3FF0
3FF0
F03C
F03C
F03C
F03C
00F0
00F0
03C0
03C0
03C0
03C0
03C0
03C0
0000
0000
03C0
03C0
03C0
03C0
ENDCHAR
STARTCHAR 0040
ENCODING 64
SWIDTH 500 0
DWIDTH 16 0
BBX 14 18 0 0
BITMAP
3FF0
3FF0
F03C
F03C
F03C
F03C
F3FC
F3FC
F3FC
F3FC
F3FC
F3FC
F3F0
F3F0
F000
F000
3FF0
3FF0
ENDCHAR
STARTCHAR 0041
ENCODING 65
SWIDTH 500 0
DWIDTH 16 0
BBX 14 20 0 0
BITMAP
0300
0300
0FC0
0FC0
3CF0
3CF0
F03C
F03C
F03C
F03C
FFFC
FFFC
F03C
F03C
F03C
F03C
F03C
F03C
F03C
F03C
ENDCHAR
STARTCHAR 0042
ENCODING 66
SWIDTH 500 0
DWIDTH 16 0
BBX 14 20 0 0
BITMAP
FFF0
FFF0
3C3C
3C3C
3C3C
3C3C
3C3C
3C3C
3FF0
3FF0
3C3C
3C3C
3C3C
3C3C
3C3C
3C3C
3C3C
3C3C
FFF0
FFF0
ENDCHAR
STARTCHAR 0043
ENCODING 67
SWIDTH 500 0
DWIDTH 16 0
BBX 14 20 0 0
BITMAP
0FF0
0FF0
3C3C
3C3C
F00C
F00C
F000
F000
F000
F000
F000
F000
F000
F000
F00C
F00C
3C3C
3C3C
0FF0
0FF0
ENDCHAR
STARTCHAR 0044
ENCODING 68
SWIDTH 500 0
DWIDTH 16 0
BBX 14 20 0 0
BITMAP
FFC0
FFC0
3CF0
3CF0
3C3C
3C3C
3C3C
3C3C
3C3C
3C3C
3C3C
3C3C
3C3C
3C3C
3C3C
3C3C
3CF0
3CF0
FFC0
FFC0
ENDCHAR
STARTCHAR 0045
ENCODING 69
SWIDTH 500 0
DWIDTH 16 0
BBX 14 20 0 0
BITMAP
FFFC
FFFC
3C3C
3C3C
3C0C
3C0C
3CC0
3CC0
3FC0
3FC0
3CC0
3CC0
3C00
3C00
3C0C
3C0C
3C3C
3C3C
FFFC
FFFC
ENDCHAR
STARTCHAR 0046
ENCODING 70
SWIDTH 500 0
DWIDTH 16 0
BBX 14 20 0 0
BITMAP
FFFC
FFFC
3C3C
3C3C
3C0C
3C0C
3CC0
3CC0
3FC0
3FC0
3CC0
3CC0
3C00
3C00
3C00
3C00
3C00
3C00
FF00
FF00
ENDCHAR
STARTCHAR 0047
ENCODING 71
SWIDTH 500 0
DWIDTH 16 0
BBX 14 20 0 0
BITMAP
0FF0
0FF0
3C3C
3C3C
F00C
F00C
F000
F000
F000
F000
F3FC
F3FC
F03C
F03C
F03C
F03C
3C3C
3C3C
0FCC
0FCC
ENDCHAR
STARTCHAR 0048
ENCODING 72
SWIDTH 500 0
DWIDTH 16 0
BBX 14 20 0 0
BITMAP
F03C
F03C
F03C
F03C
F03C
F03C
F03C
F03C
FFFC
FFFC
F03C
F03C
F03C
F03C
F03C
F03C
F03C
F03C
F03C
F03C
ENDCHAR
STARTCHAR 0049
ENCODING 73
SWIDTH 500 0
DWIDTH 16 0
BBX 8 20 4 0
BITMAP
FF
FF
3C
3C
3C
3C
3C
3C
3C
3C
3C
3C
3C
3C
3C
3C
3C
3C
FF
FF
ENDCHAR
STARTCHAR 004A
ENCODING 74
SWIDTH 500 0
DWIDTH 16 0
BBX 14 20 0 0
BITMAP
03FC
03FC
00F0
00F0
00F0
00F0
00F0
00F0
00F0
00F0
00F0
00F0
F0F0
F0F0
F0F0
F0F0
F0F0
F0F0
3FC0
3FC0
ENDCHAR
STARTCHAR 004B
ENCODING 75
SWIDTH 500 0
DWIDTH 16 0
BBX 14 20 0 0
BITMAP
FC3C
FC3C
3C3C
3C3C
3C3C
3C3C
3CF0
3CF0
3FC0
3FC0
3FC0
3FC0
3CF0
3CF0
3C3C
3C3C
3C3C
3C3C
FC3C
FC3C
ENDCHAR
STARTCHAR 004C
ENCODING 76
SWIDTH 500 0
DWIDTH 16 0
BBX 14 20 0 0
BITMAP
FF00
FF00
3C00
3C00
3C00
3C00
3C00
3C00
3C00
3C00
3C00
3C00
3C00
3C00
3C0C
3C0C
3C3C
3C3C
FFFC
FFFC
ENDCHAR
STARTCHAR 004D
ENCODING 77
SWIDTH 500 0
DWIDTH 16 0
BBX 14 20 0 0
BITMAP
F03C
F03C
FCFC
FCFC
FFFC
FFFC
FFFC
FFFC
F33C
F33C
F03C
F03C
F03C
F03C
F03C
F03C
F03C
F03C
F03C
F03C
ENDCHAR
STARTCHAR 004E
ENCODING 78
SWIDTH 500 0
DWIDTH 16 0
BBX 14 20 0 0
BITMAP
F03C
F03C
FC3C
FC3C
FF3C
FF3C
FFFC
FFFC
F3FC
F3FC
F0FC
F0FC
F03C
F03C
F03C
F03C
F03C
F03C
F03C
F03C
ENDCHAR
STARTCHAR 004F
ENCODING 79
SWIDTH 500 0
DWIDTH 16 0
BBX 14 20 0 0
BITMAP
3FF0
3FF0
F03C
F03C
F03C
F03C
F03C
F03C
F03C
F03C
F03C
F03C
F03C
F03C
F03C
F03C
F03C
F03C
3FF0
3FF0
ENDCHAR
STARTCHAR 0050
ENCODING 80
SWIDTH 500 0
DWIDTH 16 0
BBX 14 20 0 0
BITMAP
FFF0
FFF0
3C3C
3C3C
3C3C
3C3C
3C3C
3C3C
3FF0
3FF0
3C00
3C00
3C00
3C00
3C00
3C00
3C00
3C00
FF00
FF00
ENDCHAR
STARTCHAR 0051
ENCODING 81
SWIDTH 500 0
DWIDTH 16 0
BBX 14 24 0 -4
BITMAP
3FF0
3FF0
F03C
F03C
F03C
F03C
F03C
F03C
F03C
F03C
F03C
F03C
F03C
F03C
F33C
F33C
F3FC
F3FC
3FF0
3FF0
00F0
00F0
00FC
00FC
ENDCHAR
STARTCHAR 0052
ENCODING 82
SWIDTH 500 0
DWIDTH 16 0
BBX 14 20 0 0
BITMAP
FFF0
FFF0
3C3C
3C3C
3C3C
3C3C
3C3C
3C3C
3FF0
3FF0
3CF0
3CF0
3C3C
3C3C
3C3C
3C3C
3C3C
3C3C
FC3C
FC3C
ENDCHAR
STARTCHAR 0053
ENCODING 83
SWIDTH 500 0
DWIDTH 16 0
BBX 14 20 0 0
BITMAP
3FF0
3FF0
F03C
F03C
F03C
F03C
3C00
3C00
0FC0
0FC0
00F0
00F0
003C
003C
F03C
F03C
F03C
F03C
3FF0
3FF0
ENDCHAR
STARTCHAR 0054
ENCODING 84
SWIDTH 500 0
DWIDTH 16 0
BBX 12 20 2 0
BITMAP
FFF0
FFF0
FFF0
FFF0
CF30
CF30
0F00
0F00
0F00
0F00
0F00
0F00
0F00
0F00
0F00
0F00
0F00
0F00
3FC0
3FC0
ENDCHAR
STARTCHAR 0055
ENCODING 85
SWIDTH 500 0
DWIDTH 16 0
BBX 14 20 0 0
BITMAP
F03C
F03C
F03C
F03C
F03C
F03C
F03C
F03C
F03C
F03C
F03C
F03C
F03C
F03C
F03C
F03C
F03C
F03C
3FF0
3FF0
ENDCHAR
STARTCHAR 0056
ENCODING 86
SWIDTH 500 0
DWIDTH 16 0
BBX 14 20 0 0
BITMAP
F03C
F03C
F03C
F03C
F03C
F03C
F03C
F03C
F03C
F03C
F03C
F03C
F03C
F03C
3CF0
3CF0
0FC0
0FC0
0300
0300
ENDCHAR
STARTCHAR 0057
ENCODING 87
SWIDTH 500 0
DWIDTH 16 0
BBX 14 20 0 0
BITMAP
F03C
F03C
F03C
F03C
F03C
F03C
F03C
F03C
F33C
F33C
F33C
F33C
F33C
F33C
FFFC
FFFC
FCFC
FCFC
3CF0
3CF0
ENDCHAR
STARTCHAR 0058
ENCODING 88
SWIDTH 500 0
DWIDTH 16 0
BBX 14 20 0 0
BITMAP
F03C
F03C
F03C
F03C
3CF0
3CF0
3FF0
3FF0
0FC0
0FC0
0FC0
0FC0
3FF0
3FF0
3CF0
3CF0
F03C
F03C
F03C
F03C
ENDCHAR
STARTCHAR 0059
ENCODING 89
SWIDTH 500 0
DWIDTH 16 0
BBX 12 20 2 0
BITMAP
F0F0
F0F0
F0F0
F0F0
F0F0
F0F0
F0F0
F0F0
3FC0
3FC0
0F00
0F00
0F00
0F00
0F00
0F00
0F00
0F00
3FC0
3FC0
ENDCHAR
STARTCHAR 005A
ENCODING 90
SWIDTH 500 0
DWIDTH 16 0
BBX 14 20 0 0
BITMAP
FFFC
FFFC
F03C
F03C
C03C
C03C
00F0
00F0
03C0
03C0
0F00
0F00
3C00
3C00
F00C
F00C
F03C
F03C
FFFC
FFFC
ENDCHAR
STARTCHAR 005B
ENCODING 91
SWIDTH 500 0
DWIDTH 16 0
BBX 8 20 4 0
BITMAP
FF
FF
F0
F0
F0
F0
F0
F0
F0
F0
F0
F0
F0
F0
F0
F0
F0
F0
FF
FF
ENDCHAR
STARTCHAR 005C
ENCODING 92
SWIDTH 500 0
DWIDTH 16 0
BBX 14 18 0 0
BITMAP
C000
C000
F000
F000
FC00
FC00
3F00
3F00
0FC0
0FC0
03F0
03F0
00FC
00FC
003C
003C
000C
000C
ENDCHAR
STARTCHAR 005D
ENCODING 93
SWIDTH 500 0
DWIDTH 16 0
BBX 8 20 4 0
BITMAP
FF
FF
0F
0F
0F
0F
0F
0F
0F
0F
0F
0F
0F
0F
0F
0F
0F
0F
FF
FF
ENDCHAR
STARTCHAR 005E
ENCODING 94
SWIDTH 500 0
DWIDTH 16 0
BBX 14 8 0 16
BITMAP
0300
0300
0FC0
0FC0
3CF0
3CF0
F03C
F03C
ENDCHAR
STARTCHAR 005F
ENCODING 95
SWIDTH 500 0
DWIDTH 16 0
BBX 16 2 0 -4
BITMAP
FFFF
FFFF
ENDCHAR
STARTCHAR 0060
ENCODING 96
SWIDTH 500 0
DWIDTH 16 0
BBX 6 6 4 18
BITMAP
F0
F0
F0
F0
3C
3C
ENDCHAR
STARTCHAR 0061
ENCODING 97
SWIDTH 500 0
DWIDTH 16 0
BBX 14 14 0 0
BITMAP
3FC0
3FC0
00F0
00F0
3FF0
3FF0
F0F0
F0F0
F0F0
F0F0
F0F0
F0F0
3F3C
3F3C
ENDCHAR
STARTCHAR 0062
ENCODING 98
SWIDTH 500 0
DWIDTH 16 0
BBX 14 20 0 0
BITMAP
FC00
FC00
3C00
3C00
3C00
3C00
3FC0
3FC0
3CF0
3CF0
3C3C
3C3C
3C3C
3C3C
3C3C
3C3C
3C3C
3C3C
3FF0
3FF0
ENDCHAR
STARTCHAR 0063
ENCODING 99
SWIDTH 500 0
DWIDTH 16 0
BBX 14 14 0 0
BITMAP
3FF0
3FF0
F03C
F03C
F000
F000
F000
F000
F000
F000
F03C
F03C
3FF0
3FF0
ENDCHAR
STARTCHAR 0064
ENCODING 100
SWIDTH 500 0
DWIDTH 16 0
BBX 14 20 0 0
BITMAP
03F0
03F0
00F0
00F0
00F0
00F0
0FF0
0FF0
3CF0
3CF0
F0F0
F0F0
F0F0
F0F0
F0F0
F0F0
F0F0
F0F0
3F3C
3F3C
ENDCHAR
STARTCHAR 0065
ENCODING 101
SWIDTH 500 0
DWIDTH 16 0
BBX 14 14 0 0
BITMAP
3FF0
3FF0
F03C
F03C
FFFC
FFFC
F000
F000
F000
F000
F03C
F03C
3FF0
3FF0
ENDCHAR
STARTCHAR 0066
ENCODING 102
SWIDTH 500 0
DWIDTH 16 0
BBX 12 20 0 0
BITMAP
0FC0
0FC0
3CF0
3CF0
3C30
3C30
3C00
3C00
FF00
FF00
3C00
3C00
3C00
3C00
3C00
3C00
3C00
3C00
FF00
FF00
ENDCHAR
STARTCHAR 0067
ENCODING 103
SWIDTH 500 0
DWIDTH 16 0
BBX 14 20 0 -6
BITMAP
3F3C
3F3C
F0F0
F0F0
F0F0
F0F0
F0F0
F0F0
F0F0
F0F0
F0F0
F0F0
3FF0
3FF0
00F0
00F0
F0F0
F0F0
3FC0
3FC0
ENDCHAR
STARTCHAR 0068
ENCODING 104
SWIDTH 500 0
DWIDTH 16 0
BBX 14 20 0 0
BITMAP
FC00
FC00
3C00
3C00
3C00
3C00
3CF0
3CF0
3F3C
3F3C
3C3C
3C3C
3C3C
3C3C
3C3C
3C3C
3C3C
3C3C
FC3C
FC3C
ENDCHAR
STARTCHAR 0069
ENCODING 105
SWIDTH 500 0
DWIDTH 16 0
BBX 8 20 4 0
BITMAP
3C
3C
3C
3C
00
00
FC
FC
3C
3C
3C
3C
3C
3C
3C
3C
3C
3C
FF
FF
ENDCHAR
STARTCHAR 006A
ENCODING 106
SWIDTH 500 0
DWIDTH 16 0
BBX 12 26 2 -6
BITMAP
00F0
00F0
00F0
00F0
0000
0000
03F0
03F0
00F0
00F0
00F0
00F0
00F0
00F0
00F0
00F0
00F0
00F0
00F0
00F0
F0F0
F0F0
F0F0
F0F0
3FC0
3FC0
ENDCHAR
STARTCHAR 006B
ENCODING 107
SWIDTH 500 0
DWIDTH 16 0
BBX 14 20 0 0
BITMAP
FC00
FC00
3C00
3C00
3C00
3C00
3C3C
3C3C
3CF0
3CF0
3FC0
3FC0
3FC0
3FC0
3CF0
3CF0
3C3C
3C3C
FC3C
FC3C
ENDCHAR
STARTCHAR 006C
ENCODING 108
SWIDTH 500 0
DWIDTH 16 0
BBX 8 20 4 0
BITMAP
FC
FC
3C
3C
3C
3C
3C
3C
3C
3C
3C
3C
3C
3C
3C
3C
3C
3C
FF
FF
ENDCHAR
STARTCHAR 006D
ENCODING 109
SWIDTH 500 0
DWIDTH 16 0
BBX 14 14 0 0
BITMAP
FCF0
FCF0
FFFC
FFFC
F33C
F33C
F33C
F33C
F33C
F33C
F33C
F33C
F03C
F03C
ENDCHAR
STARTCHAR 006E
ENCODING 110
SWIDTH 500 0
DWIDTH 16 0
BBX 14 14 0 0
BITMAP
F3F0
F3F0
3C3C
3C3C
3C3C
3C3C
3C3C
3C3C
3C3C
3C3C
3C3C
3C3C
3C3C
3C3C
ENDCHAR
STARTCHAR 006F
ENCODING 111
SWIDTH 500 0
DWIDTH 16 0
BBX 14 14 0 0
BITMAP
3FF0
3FF0
F03C
F03C
F03C
F03C
F03C
F03C
F03C
F03C
F03C
F03C
3FF0
3FF0
ENDCHAR
STARTCHAR 0070
ENCODING 112
SWIDTH 500 0
DWIDTH 16 0
BBX 14 20 0 -6
BITMAP
F3F0
F3F0
3C3C
3C3C
3C3C
3C3C
3C3C
3C3C
3C3C
3C3C
3C3C
3C3C
3FF0
3FF0
3C00
3C00
3C00
3C00
FF00
FF00
ENDCHAR
STARTCHAR 0071
ENCODING 113
SWIDTH 500 0
DWIDTH 16 0
BBX 14 20 0 -6
BITMAP
3F3C
3F3C
F0F0
F0F0
F0F0
F0F0
F0F0
F0F0
F0F0
F0F0
F0F0
F0F0
3FF0
3FF0
00F0
00F0
00F0
00F0
03FC
03FC
ENDCHAR
STARTCHAR 0072
ENCODING 114
SWIDTH 500 0
DWIDTH 16 0
BBX 14 14 0 0
BITMAP
F3F0
F3F0
3F3C
3F3C
3C3C
3C3C
3C00
3C00
3C00
3C00
3C00
3C00
FF00
FF00
ENDCHAR
STARTCHAR 0073
ENCODING 115
SWIDTH 500 0
DWIDTH 16 0
BBX 14 14 0 0
BITMAP
3FF0
3FF0
F03C
F03C
3C00
3C00
0FC0
0FC0
00F0
00F0
F03C
F03C
3FF0
3FF0
ENDCHAR
STARTCHAR 0074
ENCODING 116
SWIDTH 500 0
DWIDTH 16 0
BBX 14 20 0 0
BITMAP
0300
0300
0F00
0F00
0F00
0F00
FFF0
FFF0
0F00
0F00
0F00
0F00
0F00
0F00
0F00
0F00
0F3C
0F3C
03F0
03F0
ENDCHAR
STARTCHAR 0075
ENCODING 117
SWIDTH 500 0
DWIDTH 16 0
BBX 14 14 0 0
BITMAP
F0F0
F0F0
F0F0
F0F0
F0F0
F0F0
F0F0
F0F0
F0F0
F0F0
F0F0
F0F0
3F3C
3F3C
ENDCHAR
STARTCHAR 0076
ENCODING 118
SWIDTH 500 0
DWIDTH 16 0
BBX 12 14 2 0
BITMAP
F0F0
F0F0
F0F0
F0F0
F0F0
F0F0
F0F0
F0F0
F0F0
F0F0
3FC0
3FC0
0F00
0F00
ENDCHAR
STARTCHAR 0077
ENCODING 119
SWIDTH 500 0
DWIDTH 16 0
BBX 14 14 0 0
BITMAP
F03C
F03C
F03C
F03C
F33C
F33C
F33C
F33C
F33C
F33C
FFFC
FFFC
3CF0
3CF0
ENDCHAR
STARTCHAR 0078
ENCODING 120
SWIDTH 500 0
DWIDTH 16 0
BBX 14 14 0 0
BITMAP
F03C
F03C
3CF0
3CF0
0FC0
0FC0
0FC0
0FC0
0FC0
0FC0
3CF0
3CF0
F03C
F03C
ENDCHAR
STARTCHAR 0079
ENCODING 121
SWIDTH 500 0
DWIDTH 16 0
BBX 14 20 0 -6
BITMAP
F03C
F03C
F03C
F03C
F03C
F03C
F03C
F03C
F03C
F03C
F03C
F03C
3FFC
3FFC
003C
003C
00F0
00F0
FFC0
FFC0
ENDCHAR
STARTCHAR 007A
ENCODING 122
SWIDTH 500 0
DWIDTH 16 0
BBX 14 14 0 0
BITMAP
FFFC
FFFC
F0F0
F0F0
03C0
03C0
0F00
0F00
3C00
3C00
F03C
F03C
FFFC
FFFC
ENDCHAR
STARTCHAR 007B
ENCODING 123
SWIDTH 500 0
DWIDTH 16 0
BBX 12 20 2 0
BITMAP
03F0
03F0
0F00
0F00
0F00
0F00
0F00
0F00
FC00
FC00
0F00
0F00
0F00
0F00
0F00
0F00
0F00
0F00
03F0
03F0
ENDCHAR
STARTCHAR 007C
ENCODING 124
SWIDTH 500 0
DWIDTH 16 0
BBX 4 20 6 0
BITMAP
F0
F0
F0
F0
F0
F0
F0
F0
00
00
F0
F0
F0
F0
F0
F0
F0
F0
F0
F0
ENDCHAR
STARTCHAR 007D
ENCODING 125
SWIDTH 500 0
DWIDTH 16 0
BBX 12 20 2 0
BITMAP
FC00
FC00
0F00
0F00
0F00
0F00
0F00
0F00
03F0
03F0
0F00
0F00
0F00
0F00
0F00
0F00
0F00
0F00
FC00
FC00
ENDCHAR
STARTCHAR 007E
ENCODING 126
SWIDTH 500 0
DWIDTH 16 0
BBX 14 4 0 16
BITMAP
3F3C
3F3C
F3F0
F3F0
ENDCHAR
STARTCHAR 007F
ENCODING 127
SWIDTH 500 0
DWIDTH 16 0
BBX 14 14 0 2
BITMAP
0300
0300
0FC0
0FC0
3CF0
3CF0
F03C
F03C
F03C
F03C
F03C
F03C
FFFC
FFFC
ENDCHAR
STARTCHAR 00A0
ENCODING 160
SWIDTH 500 0
DWIDTH 16 0
BBX 0 0 0 0
BITMAP
ENDCHAR
STARTCHAR 00A1
ENCODING 161
SWIDTH 500 0
DWIDTH 16 0
BBX 8 20 4 0
BITMAP
3C
3C
3C
3C
00
00
3C
3C
3C
3C
3C
3C
FF
FF
FF
FF
FF
FF
3C
3C
ENDCHAR
STARTCHAR 00A2
ENCODING 162
SWIDTH 500 0
DWIDTH 16 0
BBX 12 22 2 0
BITMAP
0F00
0F00
0F00
0F00
3FC0
3FC0
F0F0
F0F0
F000
F000
F000
F000
F000
F000
F0F0
F0F0
3FC0
3FC0
0F00
0F00
0F00
0F00
ENDCHAR
STARTCHAR 00A3
ENCODING 163
SWIDTH 500 0
DWIDTH 16 0
BBX 14 22 0 0
BITMAP
0FC0
0FC0
3CF0
3CF0
3C30
3C30
3C00
3C00
FF00
FF00
3C00
3C00
3C00
3C00
3C00
3C00
3C00
3C00
FC3C
FC3C
FFF0
FFF0
ENDCHAR
STARTCHAR 00A4
ENCODING 164
SWIDTH 500 0
DWIDTH 16 0
BBX 14 16 0 0
BITMAP
F03C
F03C
3FF0
3FF0
F03C
F03C
F03C
F03C
F03C
F03C
F03C
F03C
3FF0
3FF0
F03C
F03C
ENDCHAR
STARTCHAR 00A5
ENCODING 165
SWIDTH 500 0
DWIDTH 16 0
BBX 12 20 2 0
BITMAP
F0F0
F0F0
F0F0
F0F0
3FC0
3FC0
0F00
0F00
FFF0
FFF0
0F00
0F00
FFF0
FFF0
0F00
0F00
0F00
0F00
0F00
0F00
ENDCHAR
STARTCHAR 00A6
ENCODING 166
SWIDTH 500 0
DWIDTH 16 0
BBX 4 20 6 0
BITMAP
F0
F0
F0
F0
F0
F0
F0
F0
00
00
F0
F0
F0
F0
F0
F0
F0
F0
F0
F0
ENDCHAR
STARTCHAR 00A7
ENCODING 167
SWIDTH 500 0
DWIDTH 16 0
BBX 14 24 0 -2
BITMAP
3FF0
3FF0
F03C
F03C
3C00
3C00
0FC0
0FC0
3CF0
3CF0
F03C
F03C
F03C
F03C
3CF0
3CF0
0FC0
0FC0
00F0
00F0
F03C
F03C
3FF0
3FF0
ENDCHAR
STARTCHAR 00A8
ENCODING 168
SWIDTH 500 0
DWIDTH 16 0
BBX 14 2 0 20
BITMAP
F03C
F03C
ENDCHAR
STARTCHAR 00A9
ENCODING 169
SWIDTH 500 0
DWIDTH 16 0
BBX 14 18 0 2
BITMAP
3FF0
3FF0
C00C
C00C
C3CC
C3CC
CC0C
CC0C
CC0C
CC0C
CC0C
CC0C
C3CC
C3CC
C00C
C00C
3FF0
3FF0
ENDCHAR
STARTCHAR 00AA
ENCODING 170
SWIDTH 500 0
DWIDTH 16 0
BBX 12 12 2 10
BITMAP
3FC0
3FC0
F3C0
F3C0
F3C0
F3C0
3FF0
3FF0
0000
0000
FFF0
FFF0
ENDCHAR
STARTCHAR 00AB
ENCODING 171
SWIDTH 500 0
DWIDTH 16 0
BBX 14 10 0 4
BITMAP
0F3C
0F3C
3CF0
3CF0
F3C0
F3C0
3CF0
3CF0
0F3C
0F3C
ENDCHAR
STARTCHAR 00AC
ENCODING 172
SWIDTH 500 0
DWIDTH 16 0
BBX 14 10 0 2
BITMAP
FFFC
FFFC
003C
003C
003C
003C
003C
003C
003C
003C
ENDCHAR
STARTCHAR 00AD
ENCODING 173
SWIDTH 500 0
DWIDTH 16 0
BBX 14 2 0 8
BITMAP
FFFC
FFFC
ENDCHAR
STARTCHAR 00AE
ENCODING 174
SWIDTH 500 0
DWIDTH 16 0
BBX 14 18 0 2
BITMAP
3FF0
3FF0
C00C
C00C
CF0C
CF0C
CCCC
CCCC
CF0C
CF0C
CCCC
CCCC
CCCC
CCCC
C00C
C00C
3FF0
3FF0
ENDCHAR
STARTCHAR 00AF
ENCODING 175
SWIDTH 500 0
DWIDTH 16 0
BBX 16 2 0 20
BITMAP
FFFF
FFFF
ENDCHAR
STARTCHAR 00B0
ENCODING 176
SWIDTH 500 0
DWIDTH 16 0
BBX 10 8 2 14
BITMAP
3F00
3F00
F3C0
F3C0
F3C0
F3C0
3F00
3F00
ENDCHAR
STARTCHAR 00B1
ENCODING 177
SWIDTH 500 0
DWIDTH 16 0
BBX 16 16 0 0
BITMAP
03C0
03C0
03C0
03C0
3FFC
3FFC
03C0
03C0
03C0
03C0
0000
0000
0000
0000
FFFF
FFFF
ENDCHAR
STARTCHAR 00B2
ENCODING 178
SWIDTH 500 0
DWIDTH 16 0
BBX 10 12 0 10
BITMAP
3F00
3F00
F3C0
F3C0
0F00
0F00
3C00
3C00
F0C0
F0C0
FFC0
FFC0
ENDCHAR
STARTCHAR 00B3
ENCODING 179
SWIDTH 500 0
DWIDTH 16 0
BBX 10 12 0 10
BITMAP
FF00
FF00
03C0
03C0
3F00
3F00
03C0
03C0
03C0
03C0
FF00
FF00
ENDCHAR
STARTCHAR 00B4
ENCODING 180
SWIDTH 500 0
DWIDTH 16 0
BBX 8 6 4 16
BITMAP
0F
0F
3C
3C
F0
F0
ENDCHAR
STARTCHAR 00B5
ENCODING 181
SWIDTH 500 0
DWIDTH 16 0
BBX 14 18 0 -2
BITMAP
3C3C
3C3C
3C3C
3C3C
3C3C
3C3C
3C3C
3C3C
3C3C
3C3C
3FF0
3FF0
3C00
3C00
3C00
3C00
F000
F000
ENDCHAR
STARTCHAR 00B6
ENCODING 182
SWIDTH 500 0
DWIDTH 16 0
BBX 16 20 0 0
BITMAP
3FFF
3FFF
F3CF
F3CF
F3CF
F3CF
F3CF
F3CF
3FCF
3FCF
03CF
03CF
03CF
03CF
03CF
03CF
03CF
03CF
03CF
03CF
ENDCHAR
STARTCHAR 00B7
ENCODING 183
SWIDTH 500 0
DWIDTH 16 0
BBX 4 2 6 6
BITMAP
F0
F0
ENDCHAR
STARTCHAR 00B8
ENCODING 184
SWIDTH 500 0
DWIDTH 16 0
BBX 10 6 2 -4
BITMAP
0F00
0F00
03C0
03C0
FF00
FF00
ENDCHAR
STARTCHAR 00B9
ENCODING 185
SWIDTH 500 0
DWIDTH 16 0
BBX 8 12 2 10
BITMAP
3C
3C
FC
FC
3C
3C
3C
3C
3C
3C
FF
FF
ENDCHAR
STARTCHAR 00BA
ENCODING 186
SWIDTH 500 0
DWIDTH 16 0
BBX 10 12 2 10
BITMAP
3F00
3F00
F3C0
F3C0
F3C0
F3C0
3F00
3F00
0000
0000
FFC0
FFC0
ENDCHAR
STARTCHAR 00BB
ENCODING 187
SWIDTH 500 0
DWIDTH 16 0
BBX 14 10 0 4
BITMAP
F3C0
F3C0
3CF0
3CF0
0F3C
0F3C
3CF0
3CF0
F3C0
F3C0
ENDCHAR
STARTCHAR 00BC
ENCODING 188
SWIDTH 500 0
DWIDTH 16 0
BBX 14 26 0 -4
BITMAP
F000
F000
F000
F000
F00C
F00C
F03C
F03C
F0F0
F0F0
03C0
03C0
0F00
0F00
3C3C
3C3C
F0FC
F0FC
C3FC
C3FC
0FFC
0FFC
003C
003C
003C
003C
ENDCHAR
STARTCHAR 00BD
ENCODING 189
SWIDTH 500 0
DWIDTH 16 0
BBX 14 26 0 -4
BITMAP
F000
F000
F000
F000
F00C
F00C
F03C
F03C
F0F0
F0F0
03C0
03C0
0F00
0F00
3C00
3C00
F3F0
F3F0
C03C
C03C
00F0
00F0
03C0
03C0
0FFC
0FFC
ENDCHAR
STARTCHAR 00BE
ENCODING 190
SWIDTH 500 0
DWIDTH 16 0
BBX 14 26 0 -4
BITMAP
FC00
FC00
0F00
0F00
3C0C
3C0C
0F3C
0F3C
FCF0
FCF0
03C0
03C0
0F00
0F00
3C3C
3C3C
F0FC
F0FC
C33C
C33C
0FFC
0FFC
003C
003C
003C
003C
ENDCHAR
STARTCHAR 00BF
ENCODING 191
SWIDTH 500 0
DWIDTH 16 0
BBX 14 20 0 0
BITMAP
0F00
0F00
0F00
0F00
0000
0000
0F00
0F00
0F00
0F00
3C00
3C00
F000
F000
F03C
F03C
F03C
F03C
3FF0
3FF0
ENDCHAR
STARTCHAR 00C0
ENCODING 192
SWIDTH 500 0
DWIDTH 16 0
BBX 14 24 0 0
BITMAP
00F0
00F0
003C
003C
0300
0300
0FC0
0FC0
3CF0
3CF0
F03C
F03C
F03C
F03C
FFFC
FFFC
F03C
F03C
F03C
F03C
F03C
F03C
F03C
F03C
ENDCHAR
STARTCHAR 00C1
ENCODING 193
SWIDTH 500 0
DWIDTH 16 0
BBX 14 24 0 0
BITMAP
3C00
3C00
F000
F000
0300
0300
0FC0
0FC0
3CF0
3CF0
F03C
F03C
F03C
F03C
FFFC
FFFC
F03C
F03C
F03C
F03C
F03C
F03C
F03C
F03C
ENDCHAR
STARTCHAR 00C2
ENCODING 194
SWIDTH 500 0
DWIDTH 16 0
BBX 14 24 0 0
BITMAP
3FF0
3FF0
F03C
F03C
0300
0300
0FC0
0FC0
3CF0
3CF0
F03C
F03C
F03C
F03C
FFFC
FFFC
F03C
F03C
F03C
F03C
F03C
F03C
F03C
F03C
ENDCHAR
STARTCHAR 00C3
ENCODING 195
SWIDTH 500 0
DWIDTH 16 0
BBX 14 24 0 0
BITMAP
3F3C
3F3C
F3F0
F3F0
0000
0000
0300
0300
0FC0
0FC0
3CF0
3CF0
F03C
F03C
F03C
F03C
FFFC
FFFC
F03C
F03C
F03C
F03C
F03C
F03C
ENDCHAR
STARTCHAR 00C4
ENCODING 196
SWIDTH 500 0
DWIDTH 16 0
BBX 14 22 0 0
BITMAP
F03C
F03C
0000
0000
0300
0300
0FC0
0FC0
3CF0
3CF0
F03C
F03C
F03C
F03C
FFFC
FFFC
F03C
F03C
F03C
F03C
F03C
F03C
ENDCHAR
STARTCHAR 00C5
ENCODING 197
SWIDTH 500 0
DWIDTH 16 0
BBX 14 24 0 0
BITMAP
0FC0
0FC0
3CF0
3CF0
0FC0
0FC0
0000
0000
0FC0
0FC0
3CF0
3CF0
F03C
F03C
F03C
F03C
FFFC
FFFC
F03C
F03C
F03C
F03C
F03C
F03C
ENDCHAR
STARTCHAR 00C6
ENCODING 198
SWIDTH 500 0
DWIDTH 16 0
BBX 14 20 0 0
BITMAP
0FFC
0FFC
3CF0
3CF0
F0F0
F0F0
F0F0
F0F0
FFFC
FFFC
F0F0
F0F0
F0F0
F0F0
F0F0
F0F0
F0F0
F0F0
F0FC
F0FC
ENDCHAR
STARTCHAR 00C7
ENCODING 199
SWIDTH 500 0
DWIDTH 16 0
BBX 14 24 0 -4
BITMAP
0FF0
0FF0
3C3C
3C3C
F00C
F00C
F000
F000
F000
F000
F000
F000
F00C
F00C
3C3C
3C3C
0FF0
0FF0
00F0
00F0
003C
003C
3FF0
3FF0
ENDCHAR
STARTCHAR 00C8
ENCODING 200
SWIDTH 500 0
DWIDTH 16 0
BBX 14 24 0 0
BITMAP
0F00
0F00
03C0
03C0
0000
0000
FFFC
FFFC
3C3C
3C3C
3C0C
3C0C
3CC0
3CC0
3FC0
3FC0
3CC0
3CC0
3C0C
3C0C
3C3C
3C3C
FFFC
FFFC
ENDCHAR
STARTCHAR 00C9
ENCODING 201
SWIDTH 500 0
DWIDTH 16 0
BBX 14 24 0 0
BITMAP
03C0
03C0
0F00
0F00
3C00
3C00
0000
0000
FFFC
FFFC
3C3C
3C3C
3C00
3C00
3FF0
3FF0
3C00
3C00
3C00
3C00
3C3C
3C3C
FFFC
FFFC
ENDCHAR
STARTCHAR 00CA
ENCODING 202
SWIDTH 500 0
DWIDTH 16 0
BBX 14 24 0 0
BITMAP
0FC0
0FC0
3CF0
3CF0
0000
0000
FFFC
FFFC
3C3C
3C3C
3C0C
3C0C
3CC0
3CC0
3FC0
3FC0
3CC0
3CC0
3C0C
3C0C
3C3C
3C3C
FFFC
FFFC
ENDCHAR
STARTCHAR 00CB
ENCODING 203
SWIDTH 500 0
DWIDTH 16 0
BBX 14 22 0 0
BITMAP
F03C
F03C
0000
0000
FFFC
FFFC
3C3C
3C3C
3C0C
3C0C
3CC0
3CC0
3FC0
3FC0
3CC0
3CC0
3C0C
3C0C
3C3C
3C3C
FFFC
FFFC
ENDCHAR
STARTCHAR 00CC
ENCODING 204
SWIDTH 500 0
DWIDTH 16 0
BBX 8 24 4 0
BITMAP
F0
F0
3C
3C
00
00
FF
FF
3C
3C
3C
3C
3C
3C
3C
3C
3C
3C
3C
3C
3C
3C
FF
FF
ENDCHAR
STARTCHAR 00CD
ENCODING 205
SWIDTH 500 0
DWIDTH 16 0
BBX 8 24 4 0
BITMAP
0F
0F
3C
3C
00
00
FF
FF
3C
3C
3C
3C
3C
3C
3C
3C
3C
3C
3C
3C
3C
3C
FF
FF
ENDCHAR
STARTCHAR 00CE
ENCODING 206
SWIDTH 500 0
DWIDTH 16 0
BBX 12 24 2 0
BITMAP
3FC0
3FC0
F0F0
F0F0
0000
0000
3FC0
3FC0
0F00
0F00
0F00
0F00
0F00
0F00
0F00
0F00
0F00
0F00
0F00
0F00
0F00
0F00
3FC0
3FC0
ENDCHAR
STARTCHAR 00CF
ENCODING 207
SWIDTH 500 0
DWIDTH 16 0
BBX 12 22 2 0
BITMAP
F0F0
F0F0
0000
0000
3FC0
3FC0
0F00
0F00
0F00
0F00
0F00
0F00
0F00
0F00
0F00
0F00
0F00
0F00
0F00
0F00
3FC0
3FC0
ENDCHAR
STARTCHAR 00D0
ENCODING 208
SWIDTH 500 0
DWIDTH 16 0
BBX 14 20 0 0
BITMAP
FFC0
FFC0
3CF0
3CF0
3C3C
3C3C
3C3C
3C3C
FF3C
FF3C
3C3C
3C3C
3C3C
3C3C
3C3C
3C3C
3CF0
3CF0
FFC0
FFC0
ENDCHAR
STARTCHAR 00D1
ENCODING 209
SWIDTH 500 0
DWIDTH 16 0
BBX 14 24 0 0
BITMAP
3F3C
3F3C
F3F0
F3F0
0000
0000
F03C
F03C
FC3C
FC3C
FF3C
FF3C
FFFC
FFFC
F3FC
F3FC
F0FC
F0FC
F03C
F03C
F03C
F03C
F03C
F03C
ENDCHAR
STARTCHAR 00D2
ENCODING 210
SWIDTH 500 0
DWIDTH 16 0
BBX 14 24 0 0
BITMAP
0F00
0F00
03C0
03C0
0000
0000
3FF0
3FF0
F03C
F03C
F03C
F03C
F03C
F03C
F03C
F03C
F03C
F03C
F03C
F03C
F03C
F03C
3FF0
3FF0
ENDCHAR
STARTCHAR 00D3
ENCODING 211
SWIDTH 500 0
DWIDTH 16 0
BBX 14 24 0 0
BITMAP
03C0
03C0
0F00
0F00
0000
0000
3FF0
3FF0
F03C
F03C
F03C
F03C
F03C
F03C
F03C
F03C
F03C
F03C
F03C
F03C
F03C
F03C
3FF0
3FF0
ENDCHAR
STARTCHAR 00D4
ENCODING 212
SWIDTH 500 0
DWIDTH 16 0
BBX 14 24 0 0
BITMAP
0FC0
0FC0
3CF0
3CF0
0000
0000
3FF0
3FF0
F03C
F03C
F03C
F03C
F03C
F03C
F03C
F03C
F03C
F03C
F03C
F03C
F03C
F03C
3FF0
3FF0
ENDCHAR
STARTCHAR 00D5
ENCODING 213
SWIDTH 500 0
DWIDTH 16 0
BBX 14 24 0 0
BITMAP
3F3C
3F3C
F3F0
F3F0
0000
0000
3FF0
3FF0
F03C
F03C
F03C
F03C
F03C
F03C
F03C
F03C
F03C
F03C
F03C
F03C
F03C
F03C
3FF0
3FF0
ENDCHAR
STARTCHAR 00D6
ENCODING 214
SWIDTH 500 0
DWIDTH 16 0
BBX 14 22 0 0
BITMAP
F03C
F03C
0000
0000
3FF0
3FF0
F03C
F03C
F03C
F03C
F03C
F03C
F03C
F03C
F03C
F03C
F03C
F03C
F03C
F03C
3FF0
3FF0
ENDCHAR
STARTCHAR 00D7
ENCODING 215
SWIDTH 500 0
DWIDTH 16 0
BBX 14 12 0 2
BITMAP
F03C
F03C
3CF0
3CF0
0FC0
0FC0
0FC0
0FC0
3CF0
3CF0
F03C
F03C
ENDCHAR
STARTCHAR 00D8
ENCODING 216
SWIDTH 500 0
DWIDTH 16 0
BBX 14 24 0 -2
BITMAP
0030
0030
3FF0
3FF0
F0FC
F0FC
F0FC
F0FC
F33C
F33C
F33C
F33C
F33C
F33C
F33C
F33C
FC3C
FC3C
FC3C
FC3C
3FF0
3FF0
3000
3000
ENDCHAR
STARTCHAR 00D9
ENCODING 217
SWIDTH 500 0
DWIDTH 16 0
BBX 14 24 0 0
BITMAP
0F00
0F00
03C0
03C0
0000
0000
F03C
F03C
F03C
F03C
F03C
F03C
F03C
F03C
F03C
F03C
F03C
F03C
F03C
F03C
F03C
F03C
3FF0
3FF0
ENDCHAR
STARTCHAR 00DA
ENCODING 218
SWIDTH 500 0
DWIDTH 16 0
BBX 14 24 0 0
BITMAP
03C0
03C0
0F00
0F00
0000
0000
F03C
F03C
F03C
F03C
F03C
F03C
F03C
F03C
F03C
F03C
F03C
F03C
F03C
F03C
F03C
F03C
3FF0
3FF0
ENDCHAR
STARTCHAR 00DB
ENCODING 219
SWIDTH 500 0
DWIDTH 16 0
BBX 14 24 0 0
BITMAP
0FC0
0FC0
3CF0
3CF0
0000
0000
F03C
F03C
F03C
F03C
F03C
F03C
F03C
F03C
F03C
F03C
F03C
F03C
F03C
F03C
F03C
F03C
3FF0
3FF0
ENDCHAR
STARTCHAR 00DC
ENCODING 220
SWIDTH 500 0
DWIDTH 16 0
BBX 14 22 0 0
BITMAP
F03C
F03C
0000
0000
F03C
F03C
F03C
F03C
F03C
F03C
F03C
F03C
F03C
F03C
F03C
F03C
F03C
F03C
F03C
F03C
3FF0
3FF0
ENDCHAR
STARTCHAR 00DD
ENCODING 221
SWIDTH 500 0
DWIDTH 16 0
BBX 12 24 2 0
BITMAP
03C0
03C0
0F00
0F00
0000
0000
F0F0
F0F0
F0F0
F0F0
F0F0
F0F0
F0F0
F0F0
3FC0
3FC0
0F00
0F00
0F00
0F00
0F00
0F00
3FC0
3FC0
ENDCHAR
STARTCHAR 00DE
ENCODING 222
SWIDTH 500 0
DWIDTH 16 0
BBX 14 20 0 0
BITMAP
FF00
FF00
3C00
3C00
3FF0
3FF0
3C3C
3C3C
3C3C
3C3C
3C3C
3C3C
3C3C
3C3C
3FF0
3FF0
3C00
3C00
FF00
FF00
ENDCHAR
STARTCHAR 00DF
ENCODING 223
SWIDTH 500 0
DWIDTH 16 0
BBX 14 20 0 0
BITMAP
3FC0
3FC0
F0F0
F0F0
F0F0
F0F0
F0F0
F0F0
F3C0
F3C0
F0F0
F0F0
F03C
F03C
F03C
F03C
F03C
F03C
F0F0
F0F0
ENDCHAR
STARTCHAR 00E0
ENCODING 224
SWIDTH 500 0
DWIDTH 16 0
BBX 14 22 0 0
BITMAP
3C00
3C00
0F00
0F00
03C0
03C0
0000
0000
3FC0
3FC0
00F0
00F0
3FF0
3FF0
F0F0
F0F0
F0F0
F0F0
F0F0
F0F0
3F3C
3F3C
ENDCHAR
STARTCHAR 00E1
ENCODING 225
SWIDTH 500 0
DWIDTH 16 0
BBX 14 22 0 0
BITMAP
03C0
03C0
0F00
0F00
3C00
3C00
0000
0000
3FC0
3FC0
00F0
00F0
3FF0
3FF0
F0F0
F0F0
F0F0
F0F0
F0F0
F0F0
3F3C
3F3C
ENDCHAR
STARTCHAR 00E2
ENCODING 226
SWIDTH 500 0
DWIDTH 16 0
BBX 14 22 0 0
BITMAP
0300
0300
0FC0
0FC0
3CF0
3CF0
0000
0000
3FC0
3FC0
00F0
00F0
3FF0
3FF0
F0F0
F0F0
F0F0
F0F0
F0F0
F0F0
3F3C
3F3C
ENDCHAR
STARTCHAR 00E3
ENCODING 227
SWIDTH 500 0
DWIDTH 16 0
BBX 14 20 0 0
BITMAP
3F3C
3F3C
F3F0
F3F0
0000
0000
3FC0
3FC0
00F0
00F0
3FF0
3FF0
F0F0
F0F0
F0F0
F0F0
F0F0
F0F0
3F3C
3F3C
ENDCHAR
STARTCHAR 00E4
ENCODING 228
SWIDTH 500 0
DWIDTH 16 0
BBX 14 20 0 0
BITMAP
F0F0
F0F0
0000
0000
0000
0000
3FC0
3FC0
00F0
00F0
3FF0
3FF0
F0F0
F0F0
F0F0
F0F0
F0F0
F0F0
3F3C
3F3C
ENDCHAR
STARTCHAR 00E5
ENCODING 229
SWIDTH 500 0
DWIDTH 16 0
BBX 14 22 0 0
BITMAP
0FC0
0FC0
3CF0
3CF0
0FC0
0FC0
0000
0000
3FC0
3FC0
00F0
00F0
3FF0
3FF0
F0F0
F0F0
F0F0
F0F0
F0F0
F0F0
3F3C
3F3C
ENDCHAR
STARTCHAR 00E6
ENCODING 230
SWIDTH 500 0
DWIDTH 16 0
BBX 14 14 0 0
BITMAP
F0F0
F0F0
3F3C
3F3C
0F3C
0F3C
3FFC
3FFC
F3C0
F3C0
F3C0
F3C0
3CFC
3CFC
ENDCHAR
STARTCHAR 00E7
ENCODING 231
SWIDTH 500 0
DWIDTH 16 0
BBX 12 18 2 -2
BITMAP
3FC0
3FC0
F0F0
F0F0
F000
F000
F000
F000
F0F0
F0F0
3FC0
3FC0
03C0
03C0
00F0
00F0
3FC0
3FC0
ENDCHAR
STARTCHAR 00E8
ENCODING 232
SWIDTH 500 0
DWIDTH 16 0
BBX 14 22 0 0
BITMAP
3C00
3C00
0F00
0F00
03C0
03C0
0000
0000
3FF0
3FF0
F03C
F03C
FFFC
FFFC
F000
F000
F000
F000
F03C
F03C
3FF0
3FF0
ENDCHAR
STARTCHAR 00E9
ENCODING 233
SWIDTH 500 0
DWIDTH 16 0
BBX 14 22 0 0
BITMAP
00F0
00F0
03C0
03C0
0F00
0F00
0000
0000
3FF0
3FF0
F03C
F03C
FFFC
FFFC
F000
F000
F000
F000
F03C
F03C
3FF0
3FF0
ENDCHAR
STARTCHAR 00EA
ENCODING 234
SWIDTH 500 0
DWIDTH 16 0
BBX 14 22 0 0
BITMAP
0300
0300
0FC0
0FC0
3CF0
3CF0
0000
0000
3FF0
3FF0
F03C
F03C
FFFC
FFFC
F000
F000
F000
F000
F03C
F03C
3FF0
3FF0
ENDCHAR
STARTCHAR 00EB
ENCODING 235
SWIDTH 500 0
DWIDTH 16 0
BBX 14 20 0 0
BITMAP
F03C
F03C
0000
0000
0000
0000
3FF0
3FF0
F03C
F03C
FFFC
FFFC
F000
F000
F000
F000
F03C
F03C
3FF0
3FF0
ENDCHAR
STARTCHAR 00EC
ENCODING 236
SWIDTH 500 0
DWIDTH 16 0
BBX 10 22 2 0
BITMAP
F000
F000
3C00
3C00
0F00
0F00
0000
0000
3F00
3F00
0F00
0F00
0F00
0F00
0F00
0F00
0F00
0F00
0F00
0F00
3FC0
3FC0
ENDCHAR
STARTCHAR 00ED
ENCODING 237
SWIDTH 500 0
DWIDTH 16 0
BBX 8 22 4 0
BITMAP
0F
0F
3C
3C
F0
F0
00
00
FC
FC
3C
3C
3C
3C
3C
3C
3C
3C
3C
3C
FF
FF
ENDCHAR
STARTCHAR 00EE
ENCODING 238
SWIDTH 500 0
DWIDTH 16 0
BBX 12 22 2 0
BITMAP
0F00
0F00
3FC0
3FC0
F0F0
F0F0
0000
0000
3F00
3F00
0F00
0F00
0F00
0F00
0F00
0F00
0F00
0F00
0F00
0F00
3FC0
3FC0
ENDCHAR
STARTCHAR 00EF
ENCODING 239
SWIDTH 500 0
DWIDTH 16 0
BBX 12 20 2 0
BITMAP
F0F0
F0F0
0000
0000
0000
0000
3F00
3F00
0F00
0F00
0F00
0F00
0F00
0F00
0F00
0F00
0F00
0F00
3FC0
3FC0
ENDCHAR
STARTCHAR 00F0
ENCODING 240
SWIDTH 500 0
DWIDTH 16 0
BBX 12 20 2 0
BITMAP
3CC0
3CC0
0F00
0F00
33C0
33C0
00F0
00F0
3FF0
3FF0
F0F0
F0F0
F0F0
F0F0
F0F0
F0F0
F0F0
F0F0
3FC0
3FC0
ENDCHAR
STARTCHAR 00F1
ENCODING 241
SWIDTH 500 0
DWIDTH 16 0
BBX 14 20 0 0
BITMAP
3F3C
3F3C
F3F0
F3F0
0000
0000
F3F0
F3F0
3C3C
3C3C
3C3C
3C3C
3C3C
3C3C
3C3C
3C3C
3C3C
3C3C
3C3C
3C3C
ENDCHAR
STARTCHAR 00F2
ENCODING 242
SWIDTH 500 0
DWIDTH 16 0
BBX 14 22 0 0
BITMAP
3C00
3C00
0F00
0F00
03C0
03C0
0000
0000
3FF0
3FF0
F03C
F03C
F03C
F03C
F03C
F03C
F03C
F03C
F03C
F03C
3FF0
3FF0
ENDCHAR
STARTCHAR 00F3
ENCODING 243
SWIDTH 500 0
DWIDTH 16 0
BBX 14 22 0 0
BITMAP
03C0
03C0
0F00
0F00
3C00
3C00
0000
0000
3FF0
3FF0
F03C
F03C
F03C
F03C
F03C
F03C
F03C
F03C
F03C
F03C
3FF0
3FF0
ENDCHAR
STARTCHAR 00F4
ENCODING 244
SWIDTH 500 0
DWIDTH 16 0
BBX 14 22 0 0
BITMAP
0300
0300
0FC0
0FC0
3CF0
3CF0
0000
0000
3FF0
3FF0
F03C
F03C
F03C
F03C
F03C
F03C
F03C
F03C
F03C
F03C
3FF0
3FF0
ENDCHAR
STARTCHAR 00F5
ENCODING 245
SWIDTH 500 0
DWIDTH 16 0
BBX 14 20 0 0
BITMAP
3F3C
3F3C
F3F0
F3F0
0000
0000
3FF0
3FF0
F03C
F03C
F03C
F03C
F03C
F03C
F03C
F03C
F03C
F03C
3FF0
3FF0
ENDCHAR
STARTCHAR 00F6
ENCODING 246
SWIDTH 500 0
DWIDTH 16 0
BBX 14 20 0 0
BITMAP
F03C
F03C
0000
0000
0000
0000
3FF0
3FF0
F03C
F03C
F03C
F03C
F03C
F03C
F03C
F03C
F03C
F03C
3FF0
3FF0
ENDCHAR
STARTCHAR 00F7
ENCODING 247
SWIDTH 500 0
DWIDTH 16 0
BBX 12 14 2 2
BITMAP
0F00
0F00
0F00
0F00
0000
0000
FFF0
FFF0
0000
0000
0F00
0F00
0F00
0F00
ENDCHAR
STARTCHAR 00F8
ENCODING 248
SWIDTH 500 0
DWIDTH 16 0
BBX 14 14 0 0
BITMAP
3FF0
3FF0
F0FC
F0FC
F3FC
F3FC
FF3C
FF3C
FC3C
FC3C
F03C
F03C
3FF0
3FF0
ENDCHAR
STARTCHAR 00F9
ENCODING 249
SWIDTH 500 0
DWIDTH 16 0
BBX 14 22 0 0
BITMAP
3C00
3C00
0F00
0F00
03C0
03C0
0000
0000
F0F0
F0F0
F0F0
F0F0
F0F0
F0F0
F0F0
F0F0
F0F0
F0F0
F0F0
F0F0
3F3C
3F3C
ENDCHAR
STARTCHAR 00FA
ENCODING 250
SWIDTH 500 0
DWIDTH 16 0
BBX 14 22 0 0
BITMAP
03C0
03C0
0F00
0F00
3C00
3C00
0000
0000
F0F0
F0F0
F0F0
F0F0
F0F0
F0F0
F0F0
F0F0
F0F0
F0F0
F0F0
F0F0
3F3C
3F3C
ENDCHAR
STARTCHAR 00FB
ENCODING 251
SWIDTH 500 0
DWIDTH 16 0
BBX 14 22 0 0
BITMAP
0F00
0F00
3FC0
3FC0
F0F0
F0F0
0000
0000
F0F0
F0F0
F0F0
F0F0
F0F0
F0F0
F0F0
F0F0
F0F0
F0F0
F0F0
F0F0
3F3C
3F3C
ENDCHAR
STARTCHAR 00FC
ENCODING 252
SWIDTH 500 0
DWIDTH 16 0
BBX 14 20 0 0
BITMAP
F0F0
F0F0
0000
0000
0000
0000
F0F0
F0F0
F0F0
F0F0
F0F0
F0F0
F0F0
F0F0
F0F0
F0F0
F0F0
F0F0
3F3C
3F3C
ENDCHAR
STARTCHAR 00FD
ENCODING 253
SWIDTH 500 0
DWIDTH 16 0
BBX 14 28 0 -6
BITMAP
00F0
00F0
03C0
03C0
0F00
0F00
0000
0000
F03C
F03C
F03C
F03C
F03C
F03C
F03C
F03C
F03C
F03C
F03C
F03C
3FFC
3FFC
003C
003C
00F0
00F0
FFC0
FFC0
ENDCHAR
STARTCHAR 00FE
ENCODING 254
SWIDTH 500 0
DWIDTH 16 0
BBX 14 26 0 -6
BITMAP
FC00
FC00
3C00
3C00
3C00
3C00
3FF0
3FF0
3C3C
3C3C
3C3C
3C3C
3C3C
3C3C
3C3C
3C3C
3C3C
3C3C
3FF0
3FF0
3C00
3C00
3C00
3C00
FF00
FF00
ENDCHAR
STARTCHAR 00FF
ENCODING 255
SWIDTH 500 0
DWIDTH 16 0
BBX 14 26 0 -6
BITMAP
F03C
F03C
0000
0000
0000
0000
F03C
F03C
F03C
F03C
F03C
F03C
F03C
F03C
F03C
F03C
F03C
F03C
3FFC
3FFC
003C
003C
00F0
00F0
3FC0
3FC0
ENDCHAR
STARTCHAR 0100
ENCODING 256
SWIDTH 500 0
DWIDTH 16 0
BBX 14 24 0 0
BITMAP
3FF0
3FF0
0000
0000
0300
0300
0FC0
0FC0
3CF0
3CF0
F03C
F03C
F03C
F03C
FFFC
FFFC
F03C
F03C
F03C
F03C
F03C
F03C
F03C
F03C
ENDCHAR
STARTCHAR 0101
ENCODING 257
SWIDTH 500 0
DWIDTH 16 0
BBX 14 20 0 0
BITMAP
3FF0
3FF0
0000
0000
0000
0000
3FC0
3FC0
00F0
00F0
3FF0
3FF0
F0F0
F0F0
F0F0
F0F0
F0F0
F0F0
3F3C
3F3C
ENDCHAR
STARTCHAR 0102
ENCODING 258
SWIDTH 500 0
DWIDTH 16 0
BBX 14 24 0 0
BITMAP
F03C
F03C
3FF0
3FF0
0000
0000
0300
0300
0FC0
0FC0
3CF0
3CF0
F03C
F03C
F03C
F03C
FFFC
FFFC
F03C
F03C
F03C
F03C
F03C
F03C
ENDCHAR
STARTCHAR 0103
ENCODING 259
SWIDTH 500 0
DWIDTH 16 0
BBX 14 20 0 0
BITMAP
F03C
F03C
3FF0
3FF0
0000
0000
3FC0
3FC0
00F0
00F0
3FF0
3FF0
F0F0
F0F0
F0F0
F0F0
F0F0
F0F0
3F3C
3F3C
ENDCHAR
STARTCHAR 0104
ENCODING 260
SWIDTH 500 0
DWIDTH 16 0
BBX 14 26 0 -6
BITMAP
0300
0300
0FC0
0FC0
3CF0
3CF0
F03C
F03C
F03C
F03C
FFFC
FFFC
F03C
F03C
F03C
F03C
F03C
F03C
F03C
F03C
03C0
03C0
0F00
0F00
03FC
03FC
ENDCHAR
STARTCHAR 0105
ENCODING 261
SWIDTH 500 0
DWIDTH 16 0
BBX 14 20 0 -6
BITMAP
3FC0
3FC0
00F0
00F0
3FF0
3FF0
F0F0
F0F0
F0F0
F0F0
F0F0
F0F0
3F3C
3F3C
03C0
03C0
0F00
0F00
03FC
03FC
ENDCHAR
STARTCHAR 0106
ENCODING 262
SWIDTH 500 0
DWIDTH 16 0
BBX 14 24 0 0
BITMAP
00F0
00F0
03C0
03C0
0000
0000
0FF0
0FF0
3C3C
3C3C
F00C
F00C
F000
F000
F000
F000
F000
F000
F00C
F00C
3C3C
3C3C
0FF0
0FF0
ENDCHAR
STARTCHAR 0107
ENCODING 263
SWIDTH 500 0
DWIDTH 16 0
BBX 14 22 0 0
BITMAP
00F0
00F0
03C0
03C0
0F00
0F00
0000
0000
3FF0
3FF0
F03C
F03C
F000
F000
F000
F000
F000
F000
F03C
F03C
3FF0
3FF0
ENDCHAR
STARTCHAR 0108
ENCODING 264
SWIDTH 500 0
DWIDTH 16 0
BBX 14 24 0 0
BITMAP
03F0
03F0
0F3C
0F3C
0000
0000
0FF0
0FF0
3C3C
3C3C
F00C
F00C
F000
F000
F000
F000
F000
F000
F00C
F00C
3C3C
3C3C
0FF0
0FF0
ENDCHAR
STARTCHAR 0109
ENCODING 265
SWIDTH 500 0
DWIDTH 16 0
BBX 14 22 0 0
BITMAP
0300
0300
0FC0
0FC0
3CF0
3CF0
0000
0000
3FF0
3FF0
F03C
F03C
F000
F000
F000
F000
F000
F000
F03C
F03C
3FF0
3FF0
ENDCHAR
STARTCHAR 010A
ENCODING 266
SWIDTH 500 0
DWIDTH 16 0
BBX 14 24 0 0
BITMAP
03C0
03C0
03C0
03C0
0000
0000
0FF0
0FF0
3C3C
3C3C
F00C
F00C
F000
F000
F000
F000
F000
F000
F00C
F00C
3C3C
3C3C
0FF0
0FF0
ENDCHAR
STARTCHAR 010B
ENCODING 267
SWIDTH 500 0
DWIDTH 16 0
BBX 14 20 0 0
BITMAP
03C0
03C0
03C0
03C0
0000
0000
3FF0
3FF0
F03C
F03C
F000
F000
F000
F000
F000
F000
F03C
F03C
3FF0
3FF0
ENDCHAR
STARTCHAR 010C
ENCODING 268
SWIDTH 500 0
DWIDTH 16 0
BBX 14 24 0 0
BITMAP
3C3C
3C3C
0FF0
0FF0
0000
0000
0FF0
0FF0
3C3C
3C3C
F00C
F00C
F000
F000
F000
F000
F000
F000
F00C
F00C
3C3C
3C3C
0FF0
0FF0
ENDCHAR
STARTCHAR 010D
ENCODING 269
SWIDTH 500 0
DWIDTH 16 0
BBX 14 20 0 0
BITMAP
3CF0
3CF0
0FC0
0FC0
0000
0000
3FF0
3FF0
F03C
F03C
F000
F000
F000
F000
F000
F000
F03C
F03C
3FF0
3FF0
ENDCHAR
STARTCHAR 010E
ENCODING 270
SWIDTH 500 0
DWIDTH 16 0
BBX 14 24 0 0
BITMAP
3CF0
3CF0
0FC0
0FC0
0000
0000
FFC0
FFC0
3CF0
3CF0
3C3C
3C3C
3C3C
3C3C
3C3C
3C3C
3C3C
3C3C
3C3C
3C3C
3CF0
3CF0
FFC0
FFC0
ENDCHAR
STARTCHAR 010F
ENCODING 271
SWIDTH 500 0
DWIDTH 16 0
BBX 14 24 0 0
BITMAP
3CF0
3CF0
0FC0
0FC0
0000
0000
03F0
03F0
00F0
00F0
00F0
00F0
0FF0
0FF0
3CF0
3CF0
F0F0
F0F0
F0F0
F0F0
F0F0
F0F0
3F3C
3F3C
ENDCHAR
STARTCHAR 0110
ENCODING 272
SWIDTH 500 0
DWIDTH 16 0
BBX 14 20 0 0
BITMAP
FFC0
FFC0
3CF0
3CF0
3C3C
3C3C
3C3C
3C3C
FF3C
FF3C
3C3C
3C3C
3C3C
3C3C
3C3C
3C3C
3CF0
3CF0
FFC0
FFC0
ENDCHAR
STARTCHAR 0111
ENCODING 273
SWIDTH 500 0
DWIDTH 16 0
BBX 14 20 0 0
BITMAP
00F0
00F0
00F0
00F0
3FFC
3FFC
00F0
00F0
0FF0
0FF0
3CF0
3CF0
F0F0
F0F0
F0F0
F0F0
F0F0
F0F0
3F3C
3F3C
ENDCHAR
STARTCHAR 0112
ENCODING 274
SWIDTH 500 0
DWIDTH 16 0
BBX 14 24 0 0
BITMAP
3FF0
3FF0
0000
0000
FFFC
FFFC
3C3C
3C3C
3C0C
3C0C
3CC0
3CC0
3FC0
3FC0
3CC0
3CC0
3C00
3C00
3C0C
3C0C
3C3C
3C3C
FFFC
FFFC
ENDCHAR
STARTCHAR 0113
ENCODING 275
SWIDTH 500 0
DWIDTH 16 0
BBX 14 20 0 0
BITMAP
3FF0
3FF0
0000
0000
0000
0000
3FF0
3FF0
F03C
F03C
FFFC
FFFC
F000
F000
F000
F000
F03C
F03C
3FF0
3FF0
ENDCHAR
STARTCHAR 0114
ENCODING 276
SWIDTH 500 0
DWIDTH 16 0
BBX 14 24 0 0
BITMAP
F03C
F03C
3FF0
3FF0
0000
0000
FFFC
FFFC
3C3C
3C3C
3C0C
3C0C
3CC0
3CC0
3FC0
3FC0
3CC0
3CC0
3C0C
3C0C
3C3C
3C3C
FFFC
FFFC
ENDCHAR
STARTCHAR 0115
ENCODING 277
SWIDTH 500 0
DWIDTH 16 0
BBX 14 20 0 0
BITMAP
F03C
F03C
3FF0
3FF0
0000
0000
3FF0
3FF0
F03C
F03C
FFFC
FFFC
F000
F000
F000
F000
F03C
F03C
3FF0
3FF0
ENDCHAR
STARTCHAR 0116
ENCODING 278
SWIDTH 500 0
DWIDTH 16 0
BBX 14 24 0 0
BITMAP
03C0
03C0
03C0
03C0
0000
0000
FFFC
FFFC
3C3C
3C3C
3C0C
3C0C
3CC0
3CC0
3FC0
3FC0
3CC0
3CC0
3C0C
3C0C
3C3C
3C3C
FFFC
FFFC
ENDCHAR
STARTCHAR 0117
ENCODING 279
SWIDTH 500 0
DWIDTH 16 0
BBX 14 20 0 0
BITMAP
03C0
03C0
03C0
03C0
0000
0000
3FF0
3FF0
F03C
F03C
FFFC
FFFC
F000
F000
F000
F000
F03C
F03C
3FF0
3FF0
ENDCHAR
STARTCHAR 0118
ENCODING 280
SWIDTH 500 0
DWIDTH 16 0
BBX 14 26 0 -6
BITMAP
FFFC
FFFC
3C3C
3C3C
3C0C
3C0C
3CC0
3CC0
3FC0
3FC0
3CC0
3CC0
3C00
3C00
3C0C
3C0C
3C3C
3C3C
FFFC
FFFC
03C0
03C0
0F00
0F00
03FC
03FC
ENDCHAR
STARTCHAR 0119
ENCODING 281
SWIDTH 500 0
DWIDTH 16 0
BBX 14 20 0 -6
BITMAP
3FF0
3FF0
F03C
F03C
FFFC
FFFC
F000
F000
F000
F000
F03C
F03C
3FF0
3FF0
0F00
0F00
3C00
3C00
0FF0
0FF0
ENDCHAR
STARTCHAR 011A
ENCODING 282
SWIDTH 500 0
DWIDTH 16 0
BBX 14 24 0 0
BITMAP
3CF0
3CF0
0FC0
0FC0
0000
0000
FFFC
FFFC
3C3C
3C3C
3C0C
3C0C
3CC0
3CC0
3FC0
3FC0
3CC0
3CC0
3C0C
3C0C
3C3C
3C3C
FFFC
FFFC
ENDCHAR
STARTCHAR 011B
ENCODING 283
SWIDTH 500 0
DWIDTH 16 0
BBX 14 20 0 0
BITMAP
3C3C
3C3C
0FF0
0FF0
0000
0000
3FF0
3FF0
F03C
F03C
FFFC
FFFC
F000
F000
F000
F000
F03C
F03C
3FF0
3FF0
ENDCHAR
STARTCHAR 011C
ENCODING 284
SWIDTH 500 0
DWIDTH 16 0
BBX 14 24 0 0
BITMAP
03F0
03F0
0F3C
0F3C
0000
0000
0FF0
0FF0
3C3C
3C3C
F00C
F00C
F000
F000
F000
F000
F3FC
F3FC
F03C
F03C
3C3C
3C3C
0FCC
0FCC
ENDCHAR
STARTCHAR 011D
ENCODING 285
SWIDTH 500 0
DWIDTH 16 0
BBX 14 28 0 -6
BITMAP
0300
0300
0FC0
0FC0
3CF0
3CF0
0000
0000
3F3C
3F3C
F0F0
F0F0
F0F0
F0F0
F0F0
F0F0
F0F0
F0F0
F0F0
F0F0
3FF0
3FF0
00F0
00F0
F0F0
F0F0
3FC0
3FC0
ENDCHAR
STARTCHAR 011E
ENCODING 286
SWIDTH 500 0
DWIDTH 16 0
BBX 14 24 0 0
BITMAP
3C3C
3C3C
0FF0
0FF0
0000
0000
0FF0
0FF0
3C3C
3C3C
F00C
F00C
F000
F000
F000
F000
F3FC
F3FC
F03C
F03C
3C3C
3C3C
0FCC
0FCC
ENDCHAR
STARTCHAR 011F
ENCODING 287
SWIDTH 500 0
DWIDTH 16 0
BBX 14 26 0 -6
BITMAP
F03C
F03C
3FF0
3FF0
0000
0000
3F3C
3F3C
F0F0
F0F0
F0F0
F0F0
F0F0
F0F0
F0F0
F0F0
F0F0
F0F0
3FF0
3FF0
00F0
00F0
F0F0
F0F0
3FC0
3FC0
ENDCHAR
STARTCHAR 0120
ENCODING 288
SWIDTH 500 0
DWIDTH 16 0
BBX 14 24 0 0
BITMAP
03C0
03C0
03C0
03C0
0000
0000
0FF0
0FF0
3C3C
3C3C
F00C
F00C
F000
F000
F000
F000
F3FC
F3FC
F03C
F03C
3C3C
3C3C
0FCC
0FCC
ENDCHAR
STARTCHAR 0121
ENCODING 289
SWIDTH 500 0
DWIDTH 16 0
BBX 14 26 0 -6
BITMAP
03C0
03C0
03C0
03C0
0000
0000
3F3C
3F3C
F0F0
F0F0
F0F0
F0F0
F0F0
F0F0
F0F0
F0F0
F0F0
F0F0
3FF0
3FF0
00F0
00F0
F0F0
F0F0
3FC0
3FC0
ENDCHAR
STARTCHAR 0122
ENCODING 290
SWIDTH 500 0
DWIDTH 16 0
BBX 14 26 0 -6
BITMAP
0FF0
0FF0
3C3C
3C3C
F00C
F00C
F000
F000
F000
F000
F3FC
F3FC
F03C
F03C
F03C
F03C
3C3C
3C3C
0FCC
0FCC
03C0
03C0
00F0
00F0
3FC0
3FC0
ENDCHAR
STARTCHAR 0123
ENCODING 291
SWIDTH 500 0
DWIDTH 16 0
BBX 14 28 0 -6
BITMAP
03FC
03FC
0F00
0F00
03C0
03C0
0000
0000
3F3C
3F3C
F0F0
F0F0
F0F0
F0F0
F0F0
F0F0
F0F0
F0F0
F0F0
F0F0
3FF0
3FF0
00F0
00F0
F0F0
F0F0
3FC0
3FC0
ENDCHAR
STARTCHAR 0124
ENCODING 292
SWIDTH 500 0
DWIDTH 16 0
BBX 14 24 0 0
BITMAP
0FC0
0FC0
3CF0
3CF0
0000
0000
F03C
F03C
F03C
F03C
F03C
F03C
F03C
F03C
FFFC
FFFC
F03C
F03C
F03C
F03C
F03C
F03C
F03C
F03C
ENDCHAR
STARTCHAR 0125
ENCODING 293
SWIDTH 500 0
DWIDTH 16 0
BBX 14 24 0 0
BITMAP
0FC0
0FC0
3CF0
3CF0
0000
0000
FC00
FC00
3C00
3C00
3C00
3C00
3CF0
3CF0
3F3C
3F3C
3C3C
3C3C
3C3C
3C3C
3C3C
3C3C
FC3C
FC3C
ENDCHAR
STARTCHAR 0126
ENCODING 294
SWIDTH 500 0
DWIDTH 16 0
BBX 16 20 0 0
BITMAP
3C3C
3C3C
3C3C
3C3C
FFFF
FFFF
3C3C
3C3C
3FFC
3FFC
3C3C
3C3C
3C3C
3C3C
3C3C
3C3C
3C3C
3C3C
3C3C
3C3C
ENDCHAR
STARTCHAR 0127
ENCODING 295
SWIDTH 500 0
DWIDTH 16 0
BBX 14 20 0 0
BITMAP
FC00
FC00
3C00
3C00
FFC0
FFC0
3C00
3C00
3CF0
3CF0
3F3C
3F3C
3C3C
3C3C
3C3C
3C3C
3C3C
3C3C
FC3C
FC3C
ENDCHAR
STARTCHAR 0128
ENCODING 296
SWIDTH 500 0
DWIDTH 16 0
BBX 14 24 0 0
BITMAP
3F3C
3F3C
F3F0
F3F0
0000
0000
0FF0
0FF0
03C0
03C0
03C0
03C0
03C0
03C0
03C0
03C0
03C0
03C0
03C0
03C0
03C0
03C0
0FF0
0FF0
ENDCHAR
STARTCHAR 0129
ENCODING 297
SWIDTH 500 0
DWIDTH 16 0
BBX 14 20 0 0
BITMAP
3F3C
3F3C
F3F0
F3F0
0000
0000
0FC0
0FC0
03C0
03C0
03C0
03C0
03C0
03C0
03C0
03C0
03C0
03C0
0FF0
0FF0
ENDCHAR
STARTCHAR 012A
ENCODING 298
SWIDTH 500 0
DWIDTH 16 0
BBX 12 24 2 0
BITMAP
FFF0
FFF0
0000
0000
3FC0
3FC0
0F00
0F00
0F00
0F00
0F00
0F00
0F00
0F00
0F00
0F00
0F00
0F00
0F00
0F00
0F00
0F00
3FC0
3FC0
ENDCHAR
STARTCHAR 012B
ENCODING 299
SWIDTH 500 0
DWIDTH 16 0
BBX 10 20 2 0
BITMAP
FFC0
FFC0
0000
0000
0000
0000
3F00
3F00
0F00
0F00
0F00
0F00
0F00
0F00
0F00
0F00
0F00
0F00
3FC0
3FC0
ENDCHAR
STARTCHAR 012C
ENCODING 300
SWIDTH 500 0
DWIDTH 16 0
BBX 12 24 2 0
BITMAP
F0F0
F0F0
3FC0
3FC0
0000
0000
3FC0
3FC0
0F00
0F00
0F00
0F00
0F00
0F00
0F00
0F00
0F00
0F00
0F00
0F00
0F00
0F00
3FC0
3FC0
ENDCHAR
STARTCHAR 012D
ENCODING 301
SWIDTH 500 0
DWIDTH 16 0
BBX 12 20 2 0
BITMAP
F0F0
F0F0
3FC0
3FC0
0000
0000
3F00
3F00
0F00
0F00
0F00
0F00
0F00
0F00
0F00
0F00
0F00
0F00
3FC0
3FC0
ENDCHAR
STARTCHAR 012E
ENCODING 302
SWIDTH 500 0
DWIDTH 16 0
BBX 10 26 4 -6
BITMAP
FF00
FF00
3C00
3C00
3C00
3C00
3C00
3C00
3C00
3C00
3C00
3C00
3C00
3C00
3C00
3C00
3C00
3C00
FF00
FF00
3C00
3C00
F000
F000
3FC0
3FC0
ENDCHAR
STARTCHAR 012F
ENCODING 303
SWIDTH 500 0
DWIDTH 16 0
BBX 10 26 4 -6
BITMAP
3C00
3C00
3C00
3C00
0000
0000
FC00
FC00
3C00
3C00
3C00
3C00
3C00
3C00
3C00
3C00
3C00
3C00
FF00
FF00
3C00
3C00
F000
F000
3FC0
3FC0
ENDCHAR
STARTCHAR 0130
ENCODING 304
SWIDTH 500 0
DWIDTH 16 0
BBX 8 24 4 0
BITMAP
3C
3C
3C
3C
00
00
FF
FF
3C
3C
3C
3C
3C
3C
3C
3C
3C
3C
3C
3C
3C
3C
FF
FF
ENDCHAR
STARTCHAR 0131
ENCODING 305
SWIDTH 500 0
DWIDTH 16 0
BBX 8 14 4 0
BITMAP
FC
FC
3C
3C
3C
3C
3C
3C
3C
3C
3C
3C
FF
FF
ENDCHAR
STARTCHAR 0132
ENCODING 306
SWIDTH 500 0
DWIDTH 16 0
BBX 14 20 0 0
BITMAP
F0FC
F0FC
F03C
F03C
F03C
F03C
F03C
F03C
F03C
F03C
F03C
F03C
F33C
F33C
F33C
F33C
F33C
F33C
F0F0
F0F0
ENDCHAR
STARTCHAR 0133
ENCODING 307
SWIDTH 500 0
DWIDTH 16 0
BBX 14 26 0 -6
BITMAP
F03C
F03C
F03C
F03C
0000
0000
F0FC
F0FC
F03C
F03C
F03C
F03C
F03C
F03C
F03C
F03C
F03C
F03C
F03C
F03C
0F3C
0F3C
0F3C
0F3C
03F0
03F0
ENDCHAR
STARTCHAR 0134
ENCODING 308
SWIDTH 500 0
DWIDTH 16 0
BBX 14 24 0 0
BITMAP
03F0
03F0
0F3C
0F3C
0000
0000
03FC
03FC
00F0
00F0
00F0
00F0
00F0
00F0
00F0
00F0
00F0
00F0
F0F0
F0F0
F0F0
F0F0
3FC0
3FC0
ENDCHAR
STARTCHAR 0135
ENCODING 309
SWIDTH 500 0
DWIDTH 16 0
BBX 14 28 0 -6
BITMAP
00C0
00C0
03F0
03F0
0F3C
0F3C
0000
0000
03F0
03F0
00F0
00F0
00F0
00F0
00F0
00F0
00F0
00F0
00F0
00F0
00F0
00F0
F0F0
F0F0
F0F0
F0F0
3FC0
3FC0
ENDCHAR
STARTCHAR 0136
ENCODING 310
SWIDTH 500 0
DWIDTH 16 0
BBX 14 26 0 -6
BITMAP
FC3C
FC3C
3C3C
3C3C
3C3C
3C3C
3CF0
3CF0
3FC0
3FC0
3FC0
3FC0
3CF0
3CF0
3C3C
3C3C
3C3C
3C3C
FC3C
FC3C
03C0
03C0
00F0
00F0
3FC0
3FC0
ENDCHAR
STARTCHAR 0137
ENCODING 311
SWIDTH 500 0
DWIDTH 16 0
BBX 14 26 0 -6
BITMAP
FC00
FC00
3C00
3C00
3C00
3C00
3C3C
3C3C
3CF0
3CF0
3FC0
3FC0
3FC0
3FC0
3CF0
3CF0
3C3C
3C3C
FC3C
FC3C
03C0
03C0
00F0
00F0
3FC0
3FC0
ENDCHAR
STARTCHAR 0138
ENCODING 312
SWIDTH 500 0
DWIDTH 16 0
BBX 14 14 0 0
BITMAP
FC3C
FC3C
3C3C
3C3C
3CF0
3CF0
3FC0
3FC0
3CF0
3CF0
3C3C
3C3C
FC3C
FC3C
ENDCHAR
STARTCHAR 0139
ENCODING 313
SWIDTH 500 0
DWIDTH 16 0
BBX 14 20 0 0
BITMAP
FF3C
FF3C
3CF0
3CF0
3C00
3C00
3C00
3C00
3C00
3C00
3C00
3C00
3C00
3C00
3C0C
3C0C
3C3C
3C3C
FFFC
FFFC
ENDCHAR
STARTCHAR 013A
ENCODING 314
SWIDTH 500 0
DWIDTH 16 0
BBX 14 20 0 0
BITMAP
FC3C
FC3C
3CF0
3CF0
3C00
3C00
3C00
3C00
3C00
3C00
3C00
3C00
3C00
3C00
3C00
3C00
3C00
3C00
FF00
FF00
ENDCHAR
STARTCHAR 013B
ENCODING 315
SWIDTH 500 0
DWIDTH 16 0
BBX 14 26 0 -6
BITMAP
FF00
FF00
3C00
3C00
3C00
3C00
3C00
3C00
3C00
3C00
3C00
3C00
3C00
3C00
3C0C
3C0C
3C3C
3C3C
FFFC
FFFC
03C0
03C0
00F0
00F0
3FC0
3FC0
ENDCHAR
STARTCHAR 013C
ENCODING 316
SWIDTH 500 0
DWIDTH 16 0
BBX 10 26 2 -6
BITMAP
3F00
3F00
0F00
0F00
0F00
0F00
0F00
0F00
0F00
0F00
0F00
0F00
0F00
0F00
0F00
0F00
0F00
0F00
3FC0
3FC0
0F00
0F00
03C0
03C0
FF00
FF00
ENDCHAR
STARTCHAR 013D
ENCODING 317
SWIDTH 500 0
DWIDTH 16 0
BBX 16 22 0 0
BITMAP
03CF
03CF
FCFC
FCFC
3C00
3C00
3C00
3C00
3C00
3C00
3C00
3C00
3C00
3C00
3C00
3C00
3C0C
3C0C
3C3C
3C3C
FFFC
FFFC
ENDCHAR
STARTCHAR 013E
ENCODING 318
SWIDTH 500 0
DWIDTH 16 0
BBX 16 22 0 0
BITMAP
03CF
03CF
FCFC
FCFC
3C00
3C00
3C00
3C00
3C00
3C00
3C00
3C00
3C00
3C00
3C00
3C00
3C00
3C00
3C00
3C00
FF00
FF00
ENDCHAR
STARTCHAR 013F
ENCODING 319
SWIDTH 500 0
DWIDTH 16 0
BBX 14 20 0 0
BITMAP
FF00
FF00
3C00
3C00
3C00
3C00
3C3C
3C3C
3C3C
3C3C
3C00
3C00
3C00
3C00
3C0C
3C0C
3C3C
3C3C
FFFC
FFFC
ENDCHAR
STARTCHAR 0140
ENCODING 320
SWIDTH 500 0
DWIDTH 16 0
BBX 12 20 2 0
BITMAP
FC00
FC00
3C00
3C00
3C00
3C00
3C00
3C00
3CF0
3CF0
3CF0
3CF0
3C00
3C00
3C00
3C00
3C00
3C00
FF00
FF00
ENDCHAR
STARTCHAR 0141
ENCODING 321
SWIDTH 500 0
DWIDTH 16 0
BBX 14 20 0 0
BITMAP
FF00
FF00
3C30
3C30
3CF0
3CF0
3FC0
3FC0
3F00
3F00
FC00
FC00
FC00
FC00
3C0C
3C0C
3C3C
3C3C
FFFC
FFFC
ENDCHAR
STARTCHAR 0142
ENCODING 322
SWIDTH 500 0
DWIDTH 16 0
BBX 12 20 2 0
BITMAP
3F00
3F00
0F30
0F30
0FF0
0FF0
0FC0
0FC0
0F00
0F00
3F00
3F00
FF00
FF00
CF00
CF00
0F00
0F00
3FC0
3FC0
ENDCHAR
STARTCHAR 0143
ENCODING 323
SWIDTH 500 0
DWIDTH 16 0
BBX 14 24 0 0
BITMAP
00F0
00F0
03C0
03C0
0000
0000
F03C
F03C
FC3C
FC3C
FF3C
FF3C
FFFC
FFFC
F3FC
F3FC
F0FC
F0FC
F03C
F03C
F03C
F03C
F03C
F03C
ENDCHAR
STARTCHAR 0144
ENCODING 324
SWIDTH 500 0
DWIDTH 16 0
BBX 14 22 0 0
BITMAP
00F0
00F0
03C0
03C0
0F00
0F00
0000
0000
F3F0
F3F0
3C3C
3C3C
3C3C
3C3C
3C3C
3C3C
3C3C
3C3C
3C3C
3C3C
3C3C
3C3C
ENDCHAR
STARTCHAR 0145
ENCODING 325
SWIDTH 500 0
DWIDTH 16 0
BBX 14 26 0 -6
BITMAP
F03C
F03C
FC3C
FC3C
FF3C
FF3C
FFFC
FFFC
F3FC
F3FC
F0FC
F0FC
F03C
F03C
F03C
F03C
F03C
F03C
F03C
F03C
03C0
03C0
00F0
00F0
3FC0
3FC0
ENDCHAR
STARTCHAR 0146
ENCODING 326
SWIDTH 500 0
DWIDTH 16 0
BBX 14 20 0 -6
BITMAP
F3F0
F3F0
3C3C
3C3C
3C3C
3C3C
3C3C
3C3C
3C3C
3C3C
3C3C
3C3C
3C3C
3C3C
03C0
03C0
00F0
00F0
3FC0
3FC0
ENDCHAR
STARTCHAR 0147
ENCODING 327
SWIDTH 500 0
DWIDTH 16 0
BBX 14 24 0 0
BITMAP
3CF0
3CF0
0FC0
0FC0
0000
0000
F03C
F03C
FC3C
FC3C
FF3C
FF3C
FFFC
FFFC
F3FC
F3FC
F0FC
F0FC
F03C
F03C
F03C
F03C
F03C
F03C
ENDCHAR
STARTCHAR 0148
ENCODING 328
SWIDTH 500 0
DWIDTH 16 0
BBX 14 20 0 0
BITMAP
3CF0
3CF0
0FC0
0FC0
0000
0000
F3F0
F3F0
3C3C
3C3C
3C3C
3C3C
3C3C
3C3C
3C3C
3C3C
3C3C
3C3C
3C3C
3C3C
ENDCHAR
STARTCHAR 0149
ENCODING 329
SWIDTH 500 0
DWIDTH 16 0
BBX 14 24 0 0
BITMAP
3C00
3C00
3C00
3C00
3C00
3C00
F000
F000
0000
0000
F3F0
F3F0
3C3C
3C3C
3C3C
3C3C
3C3C
3C3C
3C3C
3C3C
3C3C
3C3C
3C3C
3C3C
ENDCHAR
STARTCHAR 014A
ENCODING 330
SWIDTH 500 0
DWIDTH 16 0
BBX 14 26 0 -6
BITMAP
F03C
F03C
FC3C
FC3C
FF3C
FF3C
FFFC
FFFC
F3FC
F3FC
F0FC
F0FC
F03C
F03C
F03C
F03C
F03C
F03C
F03C
F03C
003C
003C
003C
003C
03F0
03F0
ENDCHAR
STARTCHAR 014B
ENCODING 331
SWIDTH 500 0
DWIDTH 16 0
BBX 14 20 0 -6
BITMAP
F3F0
F3F0
3C3C
3C3C
3C3C
3C3C
3C3C
3C3C
3C3C
3C3C
3C3C
3C3C
3C3C
3C3C
003C
003C
003C
003C
03F0
03F0
ENDCHAR
STARTCHAR 014C
ENCODING 332
SWIDTH 500 0
DWIDTH 16 0
BBX 14 24 0 0
BITMAP
3FF0
3FF0
0000
0000
3FF0
3FF0
F03C
F03C
F03C
F03C
F03C
F03C
F03C
F03C
F03C
F03C
F03C
F03C
F03C
F03C
F03C
F03C
3FF0
3FF0
ENDCHAR
STARTCHAR 014D
ENCODING 333
SWIDTH 500 0
DWIDTH 16 0
BBX 14 20 0 0
BITMAP
3FF0
3FF0
0000
0000
0000
0000
3FF0
3FF0
F03C
F03C
F03C
F03C
F03C
F03C
F03C
F03C
F03C
F03C
3FF0
3FF0
ENDCHAR
STARTCHAR 014E
ENCODING 334
SWIDTH 500 0
DWIDTH 16 0
BBX 14 24 0 0
BITMAP
F03C
F03C
3FF0
3FF0
0000
0000
3FF0
3FF0
F03C
F03C
F03C
F03C
F03C
F03C
F03C
F03C
F03C
F03C
F03C
F03C
F03C
F03C
3FF0
3FF0
ENDCHAR
STARTCHAR 014F
ENCODING 335
SWIDTH 500 0
DWIDTH 16 0
BBX 14 20 0 0
BITMAP
F03C
F03C
3FF0
3FF0
0000
0000
3FF0
3FF0
F03C
F03C
F03C
F03C
F03C
F03C
F03C
F03C
F03C
F03C
3FF0
3FF0
ENDCHAR
STARTCHAR 0150
ENCODING 336
SWIDTH 500 0
DWIDTH 16 0
BBX 14 24 0 0
BITMAP
0F3C
0F3C
3CF0
3CF0
0000
0000
3FF0
3FF0
F03C
F03C
F03C
F03C
F03C
F03C
F03C
F03C
F03C
F03C
F03C
F03C
F03C
F03C
3FF0
3FF0
ENDCHAR
STARTCHAR 0151
ENCODING 337
SWIDTH 500 0
DWIDTH 16 0
BBX 14 20 0 0
BITMAP
0F3C
0F3C
3CF0
3CF0
0000
0000
3FF0
3FF0
F03C
F03C
F03C
F03C
F03C
F03C
F03C
F03C
F03C
F03C
3FF0
3FF0
ENDCHAR
STARTCHAR 0152
ENCODING 338
SWIDTH 500 0
DWIDTH 16 0
BBX 14 20 0 0
BITMAP
3FFC
3FFC
F0F0
F0F0
F0F0
F0F0
F0F0
F0F0
F0FC
F0FC
F0F0
F0F0
F0F0
F0F0
F0F0
F0F0
F0F0
F0F0
3FFC
3FFC
ENDCHAR
STARTCHAR 0153
ENCODING 339
SWIDTH 500 0
DWIDTH 16 0
BBX 14 14 0 0
BITMAP
3CF0
3CF0
F33C
F33C
F33C
F33C
F3FC
F3FC
F3C0
F3C0
F3C0
F3C0
3CFC
3CFC
ENDCHAR
STARTCHAR 0154
ENCODING 340
SWIDTH 500 0
DWIDTH 16 0
BBX 14 24 0 0
BITMAP
03C0
03C0
0F00
0F00
0000
0000
FFF0
FFF0
3C3C
3C3C
3C3C
3C3C
3C3C
3C3C
3FF0
3FF0
3CF0
3CF0
3C3C
3C3C
3C3C
3C3C
FC3C
FC3C
ENDCHAR
STARTCHAR 0155
ENCODING 341
SWIDTH 500 0
DWIDTH 16 0
BBX 14 22 0 0
BITMAP
00F0
00F0
03C0
03C0
0F00
0F00
0000
0000
F3F0
F3F0
3F3C
3F3C
3C3C
3C3C
3C00
3C00
3C00
3C00
3C00
3C00
FF00
FF00
ENDCHAR
STARTCHAR 0156
ENCODING 342
SWIDTH 500 0
DWIDTH 16 0
BBX 14 26 0 -6
BITMAP
FFF0
FFF0
3C3C
3C3C
3C3C
3C3C
3C3C
3C3C
3FF0
3FF0
3CF0
3CF0
3C3C
3C3C
3C3C
3C3C
3C3C
3C3C
FC3C
FC3C
03C0
03C0
00F0
00F0
3FC0
3FC0
ENDCHAR
STARTCHAR 0157
ENCODING 343
SWIDTH 500 0
DWIDTH 16 0
BBX 14 20 0 -6
BITMAP
F3F0
F3F0
3F3C
3F3C
3C3C
3C3C
3C00
3C00
3C00
3C00
3C00
3C00
FF00
FF00
03C0
03C0
00F0
00F0
3FC0
3FC0
ENDCHAR
STARTCHAR 0158
ENCODING 344
SWIDTH 500 0
DWIDTH 16 0
BBX 14 24 0 0
BITMAP
3CF0
3CF0
0FC0
0FC0
0000
0000
FFF0
FFF0
3C3C
3C3C
3C3C
3C3C
3C3C
3C3C
3FF0
3FF0
3CF0
3CF0
3C3C
3C3C
3C3C
3C3C
FC3C
FC3C
ENDCHAR
STARTCHAR 0159
ENCODING 345
SWIDTH 500 0
DWIDTH 16 0
BBX 14 20 0 0
BITMAP
3CF0
3CF0
0FC0
0FC0
0000
0000
F3F0
F3F0
3F3C
3F3C
3C3C
3C3C
3C00
3C00
3C00
3C00
3C00
3C00
FF00
FF00
ENDCHAR
STARTCHAR 015A
ENCODING 346
SWIDTH 500 0
DWIDTH 16 0
BBX 14 24 0 0
BITMAP
03C0
03C0
0F00
0F00
0000
0000
3FF0
3FF0
F03C
F03C
F03C
F03C
3C00
3C00
0FC0
0FC0
00F0
00F0
F03C
F03C
F03C
F03C
3FF0
3FF0
ENDCHAR
STARTCHAR 015B
ENCODING 347
SWIDTH 500 0
DWIDTH 16 0
BBX 14 20 0 0
BITMAP
00F0
00F0
03C0
03C0
0000
0000
3FF0
3FF0
F03C
F03C
3C00
3C00
0FC0
0FC0
00F0
00F0
F03C
F03C
3FF0
3FF0
ENDCHAR
STARTCHAR 015C
ENCODING 348
SWIDTH 500 0
DWIDTH 16 0
BBX 14 24 0 0
BITMAP
0FC0
0FC0
3CF0
3CF0
0000
0000
3FF0
3FF0
F03C
F03C
F03C
F03C
3C00
3C00
0FC0
0FC0
00F0
00F0
F03C
F03C
F03C
F03C
3FF0
3FF0
ENDCHAR
STARTCHAR 015D
ENCODING 349
SWIDTH 500 0
DWIDTH 16 0
BBX 14 22 0 0
BITMAP
0300
0300
0FC0
0FC0
3CF0
3CF0
0000
0000
3FF0
3FF0
F03C
F03C
3C00
3C00
0FC0
0FC0
00F0
00F0
F03C
F03C
3FF0
3FF0
ENDCHAR
STARTCHAR 015E
ENCODING 350
SWIDTH 500 0
DWIDTH 16 0
BBX 14 26 0 -6
BITMAP
3FF0
3FF0
F03C
F03C
F03C
F03C
3C00
3C00
0FC0
0FC0
00F0
00F0
003C
003C
F03C
F03C
F03C
F03C
3FF0
3FF0
03C0
03C0
00F0
00F0
3FC0
3FC0
ENDCHAR
STARTCHAR 015F
ENCODING 351
SWIDTH 500 0
DWIDTH 16 0
BBX 14 20 0 -6
BITMAP
3FF0
3FF0
F03C
F03C
3C00
3C00
0FC0
0FC0
00F0
00F0
F03C
F03C
3FF0
3FF0
03C0
03C0
00F0
00F0
3FC0
3FC0
ENDCHAR
STARTCHAR 0160
ENCODING 352
SWIDTH 500 0
DWIDTH 16 0
BBX 14 24 0 0
BITMAP
3CF0
3CF0
0FC0
0FC0
0000
0000
3FF0
3FF0
F03C
F03C
F000
F000
3C00
3C00
0FC0
0FC0
00F0
00F0
003C
003C
F03C
F03C
3FF0
3FF0
ENDCHAR
STARTCHAR 0161
ENCODING 353
SWIDTH 500 0
DWIDTH 16 0
BBX 14 20 0 0
BITMAP
3CF0
3CF0
0FC0
0FC0
0000
0000
3FF0
3FF0
F03C
F03C
3C00
3C00
0FC0
0FC0
00F0
00F0
F03C
F03C
3FF0
3FF0
ENDCHAR
STARTCHAR 0162
ENCODING 354
SWIDTH 500 0
DWIDTH 16 0
BBX 12 26 2 -6
BITMAP
FFF0
FFF0
FFF0
FFF0
CF30
CF30
0F00
0F00
0F00
0F00
0F00
0F00
0F00
0F00
0F00
0F00
0F00
0F00
3FC0
3FC0
0F00
0F00
03C0
03C0
FF00
FF00
ENDCHAR
STARTCHAR 0163
ENCODING 355
SWIDTH 500 0
DWIDTH 16 0
BBX 14 26 0 -6
BITMAP
0300
0300
0F00
0F00
0F00
0F00
FFF0
FFF0
0F00
0F00
0F00
0F00
0F00
0F00
0F00
0F00
0F3C
0F3C
03F0
03F0
03C0
03C0
00F0
00F0
3FC0
3FC0
ENDCHAR
STARTCHAR 0164
ENCODING 356
SWIDTH 500 0
DWIDTH 16 0
BBX 12 24 2 0
BITMAP
F0F0
F0F0
3FC0
3FC0
0000
0000
FFF0
FFF0
FFF0
FFF0
CF30
CF30
0F00
0F00
0F00
0F00
0F00
0F00
0F00
0F00
0F00
0F00
3FC0
3FC0
ENDCHAR
STARTCHAR 0165
ENCODING 357
SWIDTH 500 0
DWIDTH 16 0
BBX 14 24 0 0
BITMAP
3CF0
3CF0
0FC0
0FC0
0000
0000
0300
0300
0F00
0F00
0F00
0F00
FFF0
FFF0
0F00
0F00
0F00
0F00
0F00
0F00
0F3C
0F3C
03F0
03F0
ENDCHAR
STARTCHAR 0166
ENCODING 358
SWIDTH 500 0
DWIDTH 16 0
BBX 12 20 2 0
BITMAP
FFF0
FFF0
FFF0
FFF0
CF30
CF30
0F00
0F00
0F00
0F00
FFF0
FFF0
0F00
0F00
0F00
0F00
0F00
0F00
3FC0
3FC0
ENDCHAR
STARTCHAR 0167
ENCODING 359
SWIDTH 500 0
DWIDTH 16 0
BBX 14 20 0 0
BITMAP
0300
0300
0F00
0F00
0F00
0F00
FFF0
FFF0
0F00
0F00
FFF0
FFF0
0F00
0F00
0F00
0F00
0F3C
0F3C
03F0
03F0
ENDCHAR
STARTCHAR 0168
ENCODING 360
SWIDTH 500 0
DWIDTH 16 0
BBX 14 24 0 0
BITMAP
3F3C
3F3C
F3F0
F3F0
0000
0000
F03C
F03C
F03C
F03C
F03C
F03C
F03C
F03C
F03C
F03C
F03C
F03C
F03C
F03C
F03C
F03C
3FF0
3FF0
ENDCHAR
STARTCHAR 0169
ENCODING 361
SWIDTH 500 0
DWIDTH 16 0
BBX 14 20 0 0
BITMAP
3F3C
3F3C
F3F0
F3F0
0000
0000
F0F0
F0F0
F0F0
F0F0
F0F0
F0F0
F0F0
F0F0
F0F0
F0F0
F0F0
F0F0
3F3C
3F3C
ENDCHAR
STARTCHAR 016A
ENCODING 362
SWIDTH 500 0
DWIDTH 16 0
BBX 14 24 0 0
BITMAP
FFFC
FFFC
0000
0000
F03C
F03C
F03C
F03C
F03C
F03C
F03C
F03C
F03C
F03C
F03C
F03C
F03C
F03C
F03C
F03C
F03C
F03C
3FF0
3FF0
ENDCHAR
STARTCHAR 016B
ENCODING 363
SWIDTH 500 0
DWIDTH 16 0
BBX 14 20 0 0
BITMAP
FFF0
FFF0
0000
0000
0000
0000
F0F0
F0F0
F0F0
F0F0
F0F0
F0F0
F0F0
F0F0
F0F0
F0F0
F0F0
F0F0
3F3C
3F3C
ENDCHAR
STARTCHAR 016C
ENCODING 364
SWIDTH 500 0
DWIDTH 16 0
BBX 14 24 0 0
BITMAP
F03C
F03C
3FF0
3FF0
0000
0000
F03C
F03C
F03C
F03C
F03C
F03C
F03C
F03C
F03C
F03C
F03C
F03C
F03C
F03C
F03C
F03C
3FF0
3FF0
ENDCHAR
STARTCHAR 016D
ENCODING 365
SWIDTH 500 0
DWIDTH 16 0
BBX 14 20 0 0
BITMAP
F03C
F03C
3FF0
3FF0
0000
0000
F0F0
F0F0
F0F0
F0F0
F0F0
F0F0
F0F0
F0F0
F0F0
F0F0
F0F0
F0F0
3F3C
3F3C
ENDCHAR
STARTCHAR 016E
ENCODING 366
SWIDTH 500 0
DWIDTH 16 0
BBX 14 24 0 0
BITMAP
0FC0
0FC0
3CF0
3CF0
0FC0
0FC0
0000
0000
F03C
F03C
F03C
F03C
F03C
F03C
F03C
F03C
F03C
F03C
F03C
F03C
F03C
F03C
3FF0
3FF0
ENDCHAR
STARTCHAR 016F
ENCODING 367
SWIDTH 500 0
DWIDTH 16 0
BBX 14 22 0 0
BITMAP
3FC0
3FC0
F0F0
F0F0
3FC0
3FC0
0000
0000
F0F0
F0F0
F0F0
F0F0
F0F0
F0F0
F0F0
F0F0
F0F0
F0F0
F0F0
F0F0
3F3C
3F3C
ENDCHAR
STARTCHAR 0170
ENCODING 368
SWIDTH 500 0
DWIDTH 16 0
BBX 14 24 0 0
BITMAP
0F3C
0F3C
3CF0
3CF0
0000
0000
F03C
F03C
F03C
F03C
F03C
F03C
F03C
F03C
F03C
F03C
F03C
F03C
F03C
F03C
F03C
F03C
3FF0
3FF0
ENDCHAR
STARTCHAR 0171
ENCODING 369
SWIDTH 500 0
DWIDTH 16 0
BBX 14 20 0 0
BITMAP
0F3C
0F3C
3CF0
3CF0
0000
0000
F0F0
F0F0
F0F0
F0F0
F0F0
F0F0
F0F0
F0F0
F0F0
F0F0
F0F0
F0F0
3F3C
3F3C
ENDCHAR
STARTCHAR 0172
ENCODING 370
SWIDTH 500 0
DWIDTH 16 0
BBX 14 26 0 -6
BITMAP
F03C
F03C
F03C
F03C
F03C
F03C
F03C
F03C
F03C
F03C
F03C
F03C
F03C
F03C
F03C
F03C
F03C
F03C
3FF0
3FF0
03C0
03C0
0F00
0F00
03FC
03FC
ENDCHAR
STARTCHAR 0173
ENCODING 371
SWIDTH 500 0
DWIDTH 16 0
BBX 14 20 0 -6
BITMAP
F0F0
F0F0
F0F0
F0F0
F0F0
F0F0
F0F0
F0F0
F0F0
F0F0
F0F0
F0F0
3F3C
3F3C
03C0
03C0
0F00
0F00
03FC
03FC
ENDCHAR
STARTCHAR 0174
ENCODING 372
SWIDTH 500 0
DWIDTH 16 0
BBX 14 24 0 0
BITMAP
0FC0
0FC0
3CF0
3CF0
0000
0000
F03C
F03C
F03C
F03C
F03C
F03C
F33C
F33C
F33C
F33C
F33C
F33C
FFFC
FFFC
FCFC
FCFC
3CF0
3CF0
ENDCHAR
STARTCHAR 0175
ENCODING 373
SWIDTH 500 0
DWIDTH 16 0
BBX 14 22 0 0
BITMAP
0300
0300
0FC0
0FC0
3CF0
3CF0
0000
0000
F03C
F03C
F03C
F03C
F33C
F33C
F33C
F33C
F33C
F33C
FFFC
FFFC
3CF0
3CF0
ENDCHAR
STARTCHAR 0176
ENCODING 374
SWIDTH 500 0
DWIDTH 16 0
BBX 12 24 2 0
BITMAP
3FC0
3FC0
F0F0
F0F0
0000
0000
F0F0
F0F0
F0F0
F0F0
F0F0
F0F0
F0F0
F0F0
3FC0
3FC0
0F00
0F00
0F00
0F00
0F00
0F00
3FC0
3FC0
ENDCHAR
STARTCHAR 0177
ENCODING 375
SWIDTH 500 0
DWIDTH 16 0
BBX 14 28 0 -6
BITMAP
0300
0300
0FC0
0FC0
3CF0
3CF0
0000
0000
F03C
F03C
F03C
F03C
F03C
F03C
F03C
F03C
F03C
F03C
F03C
F03C
3FFC
3FFC
003C
003C
00F0
00F0
FFC0
FFC0
ENDCHAR
STARTCHAR 0178
ENCODING 376
SWIDTH 500 0
DWIDTH 16 0
BBX 12 22 2 0
BITMAP
F0F0
F0F0
0000
0000
F0F0
F0F0
F0F0
F0F0
F0F0
F0F0
F0F0
F0F0
3FC0
3FC0
0F00
0F00
0F00
0F00
0F00
0F00
3FC0
3FC0
ENDCHAR
STARTCHAR 0179
ENCODING 377
SWIDTH 500 0
DWIDTH 16 0
BBX 14 24 0 0
BITMAP
03C0
03C0
0F00
0F00
0000
0000
FFFC
FFFC
F03C
F03C
C0F0
C0F0
03C0
03C0
0F00
0F00
3C00
3C00
F00C
F00C
F03C
F03C
FFFC
FFFC
ENDCHAR
STARTCHAR 017A
ENCODING 378
SWIDTH 500 0
DWIDTH 16 0
BBX 14 22 0 0
BITMAP
00F0
00F0
03C0
03C0
0F00
0F00
0000
0000
FFFC
FFFC
F0F0
F0F0
03C0
03C0
0F00
0F00
3C00
3C00
F03C
F03C
FFFC
FFFC
ENDCHAR
STARTCHAR 017B
ENCODING 379
SWIDTH 500 0
DWIDTH 16 0
BBX 14 24 0 0
BITMAP
03C0
03C0
03C0
03C0
0000
0000
FFFC
FFFC
F03C
F03C
C0F0
C0F0
03C0
03C0
0F00
0F00
3C00
3C00
F00C
F00C
F03C
F03C
FFFC
FFFC
ENDCHAR
STARTCHAR 017C
ENCODING 380
SWIDTH 500 0
DWIDTH 16 0
BBX 14 20 0 0
BITMAP
03C0
03C0
03C0
03C0
0000
0000
FFFC
FFFC
F0F0
F0F0
03C0
03C0
0F00
0F00
3C00
3C00
F03C
F03C
FFFC
FFFC
ENDCHAR
STARTCHAR 017D
ENCODING 381
SWIDTH 500 0
DWIDTH 16 0
BBX 14 24 0 0
BITMAP
3CF0
3CF0
0FC0
0FC0
0000
0000
FFFC
FFFC
F03C
F03C
C0F0
C0F0
03C0
03C0
0F00
0F00
3C00
3C00
F00C
F00C
F03C
F03C
FFFC
FFFC
ENDCHAR
STARTCHAR 017E
ENCODING 382
SWIDTH 500 0
DWIDTH 16 0
BBX 14 20 0 0
BITMAP
3CF0
3CF0
0FC0
0FC0
0000
0000
FFFC
FFFC
F0F0
F0F0
03C0
03C0
0F00
0F00
3C00
3C00
F03C
F03C
FFFC
FFFC
ENDCHAR
STARTCHAR 017F
ENCODING 383
SWIDTH 500 0
DWIDTH 16 0
BBX 12 20 2 0
BITMAP
0FC0
0FC0
3CF0
3CF0
3C30
3C30
3C00
3C00
3C00
3C00
3C00
3C00
3C00
3C00
3C00
3C00
3C00
3C00
FF00
FF00
ENDCHAR
STARTCHAR 0192
ENCODING 402
SWIDTH 500 0
DWIDTH 16 0
BBX 16 26 0 -4
BITMAP
00FC
00FC
03CF
03CF
03C0
03C0
03C0
03C0
03C0
03C0
3FFC
3FFC
03C0
03C0
03C0
03C0
03C0
03C0
03C0
03C0
03C0
03C0
F3C0
F3C0
3F00
3F00
ENDCHAR
STARTCHAR 01A1
ENCODING 417
SWIDTH 500 0
DWIDTH 16 0
BBX 14 14 0 0
BITMAP
3FFC
3FFC
F3C0
F3C0
F3C0
F3C0
F3C0
F3C0
F3C0
F3C0
F3C0
F3C0
3F00
3F00
ENDCHAR
STARTCHAR 01B7
ENCODING 439
SWIDTH 500 0
DWIDTH 16 0
BBX 14 20 0 0
BITMAP
FFFC
FFFC
F03C
F03C
00F0
00F0
03C0
03C0
0FF0
0FF0
003C
003C
003C
003C
003C
003C
F03C
F03C
3FF0
3FF0
ENDCHAR
STARTCHAR 01FA
ENCODING 506
SWIDTH 500 0
DWIDTH 16 0
BBX 14 24 0 0
BITMAP
0FCC
0FCC
3CF0
3CF0
0FC0
0FC0
0000
0000
0FC0
0FC0
3CF0
3CF0
F03C
F03C
F03C
F03C
FFFC
FFFC
F03C
F03C
F03C
F03C
F03C
F03C
ENDCHAR
STARTCHAR 01FB
ENCODING 507
SWIDTH 500 0
DWIDTH 16 0
BBX 14 24 0 0
BITMAP
00F0
00F0
0FC0
0FC0
3CF0
3CF0
0FC0
0FC0
0000
0000
3FC0
3FC0
00F0
00F0
3FF0
3FF0
F0F0
F0F0
F0F0
F0F0
F0F0
F0F0
3F3C
3F3C
ENDCHAR
STARTCHAR 01FC
ENCODING 508
SWIDTH 500 0
DWIDTH 16 0
BBX 14 24 0 0
BITMAP
00F0
00F0
03C0
03C0
0000
0000
0FFC
0FFC
3CF0
3CF0
F0F0
F0F0
F0F0
F0F0
FFFC
FFFC
F0F0
F0F0
F0F0
F0F0
F0F0
F0F0
F0FC
F0FC
ENDCHAR
STARTCHAR 01FD
ENCODING 509
SWIDTH 500 0
DWIDTH 16 0
BBX 14 22 0 0
BITMAP
00F0
00F0
03C0
03C0
0F00
0F00
0000
0000
F0F0
F0F0
3F3C
3F3C
0F3C
0F3C
3FFC
3FFC
F3C0
F3C0
F3C0
F3C0
3CFC
3CFC
ENDCHAR
STARTCHAR 01FE
ENCODING 510
SWIDTH 500 0
DWIDTH 16 0
BBX 14 26 0 -2
BITMAP
03C0
03C0
0F00
0F00
0030
0030
3FF0
3FF0
F0FC
F0FC
F0FC
F0FC
F33C
F33C
F33C
F33C
F33C
F33C
FC3C
FC3C
FC3C
FC3C
3FF0
3FF0
3000
3000
ENDCHAR
STARTCHAR 01FF
ENCODING 511
SWIDTH 500 0
DWIDTH 16 0
BBX 14 22 0 0
BITMAP
03C0
03C0
0F00
0F00
3C00
3C00
0000
0000
3FF0
3FF0
F0FC
F0FC
F3FC
F3FC
FF3C
FF3C
FC3C
FC3C
F03C
F03C
3FF0
3FF0
ENDCHAR
STARTCHAR 0218
ENCODING 536
SWIDTH 500 0
DWIDTH 16 0
BBX 14 26 0 -6
BITMAP
3FF0
3FF0
F03C
F03C
F03C
F03C
3C00
3C00
0FC0
0FC0
00F0
00F0
003C
003C
F03C
F03C
F03C
F03C
3FF0
3FF0
0000
0000
03C0
03C0
0F00
0F00
ENDCHAR
STARTCHAR 0219
ENCODING 537
SWIDTH 500 0
DWIDTH 16 0
BBX 14 20 0 -6
BITMAP
3FF0
3FF0
F03C
F03C
3C00
3C00
0FC0
0FC0
00F0
00F0
F03C
F03C
3FF0
3FF0
0000
0000
03C0
03C0
0F00
0F00
ENDCHAR
STARTCHAR 021A
ENCODING 538
SWIDTH 500 0
DWIDTH 16 0
BBX 12 26 2 -6
BITMAP
FFF0
FFF0
FFF0
FFF0
CF30
CF30
0F00
0F00
0F00
0F00
0F00
0F00
0F00
0F00
0F00
0F00
0F00
0F00
3FC0
3FC0
0000
0000
0F00
0F00
3C00
3C00
ENDCHAR
STARTCHAR 021B
ENCODING 539
SWIDTH 500 0
DWIDTH 16 0
BBX 14 26 0 -6
BITMAP
0300
0300
0F00
0F00
0F00
0F00
FFF0
FFF0
0F00
0F00
0F00
0F00
0F00
0F00
0F00
0F00
0F3C
0F3C
03F0
03F0
0000
0000
03C0
03C0
0F00
0F00
ENDCHAR
STARTCHAR 0251
ENCODING 593
SWIDTH 500 0
DWIDTH 16 0
BBX 14 14 0 0
BITMAP
3F3C
3F3C
F3F0
F3F0
F3C0
F3C0
F3C0
F3C0
F3C0
F3C0
F3F0
F3F0
3F3C
3F3C
ENDCHAR
STARTCHAR 0278
ENCODING 632
SWIDTH 500 0
DWIDTH 16 0
BBX 12 18 2 0
BITMAP
FFF0
FFF0
0F00
0F00
3FC0
3FC0
F0F0
F0F0
F0F0
F0F0
F0F0
F0F0
3FC0
3FC0
0F00
0F00
FFF0
FFF0
ENDCHAR
STARTCHAR 02C6
ENCODING 710
SWIDTH 500 0
DWIDTH 16 0
BBX 10 6 2 16
BITMAP
0C00
0C00
3F00
3F00
F3C0
F3C0
ENDCHAR
STARTCHAR 02C7
ENCODING 711
SWIDTH 500 0
DWIDTH 16 0
BBX 10 4 2 18
BITMAP
F3C0
F3C0
3F00
3F00
ENDCHAR
STARTCHAR 02C9
ENCODING 713
SWIDTH 500 0
DWIDTH 16 0
BBX 10 2 2 20
BITMAP
FFC0
FFC0
ENDCHAR
STARTCHAR 02D8
ENCODING 728
SWIDTH 500 0
DWIDTH 16 0
BBX 14 4 0 18
BITMAP
F03C
F03C
3FF0
3FF0
ENDCHAR
STARTCHAR 02D9
ENCODING 729
SWIDTH 500 0
DWIDTH 16 0
BBX 4 4 6 18
BITMAP
F0
F0
F0
F0
ENDCHAR
STARTCHAR 02DA
ENCODING 730
SWIDTH 500 0
DWIDTH 16 0
BBX 10 8 2 14
BITMAP
3F00
3F00
F3C0
F3C0
F3C0
F3C0
3F00
3F00
ENDCHAR
STARTCHAR 02DB
ENCODING 731
SWIDTH 500 0
DWIDTH 16 0
BBX 10 6 2 -6
BITMAP
3C00
3C00
F000
F000
3FC0
3FC0
ENDCHAR
STARTCHAR 02DC
ENCODING 732
SWIDTH 500 0
DWIDTH 16 0
BBX 14 4 0 18
BITMAP
3F3C
3F3C
F3F0
F3F0
ENDCHAR
STARTCHAR 02DD
ENCODING 733
SWIDTH 500 0
DWIDTH 16 0
BBX 14 6 0 16
BITMAP
0F3C
0F3C
3CF0
3CF0
F3C0
F3C0
ENDCHAR
STARTCHAR 037E
ENCODING 894
SWIDTH 500 0
DWIDTH 16 0
BBX 6 16 4 0
BITMAP
3C
3C
3C
3C
00
00
00
00
00
00
3C
3C
3C
3C
F0
F0
ENDCHAR
STARTCHAR 0384
ENCODING 900
SWIDTH 500 0
DWIDTH 16 0
BBX 6 6 6 18
BITMAP
3C
3C
F0
F0
C0
C0
ENDCHAR
STARTCHAR 0385
ENCODING 901
SWIDTH 500 0
DWIDTH 16 0
BBX 12 8 0 16
BITMAP
03C0
03C0
0F00
0F00
0000
0000
F0F0
F0F0
ENDCHAR
STARTCHAR 0386
ENCODING 902
SWIDTH 500 0
DWIDTH 16 0
BBX 14 24 0 0
BITMAP
3C00
3C00
F000
F000
0300
0300
0FC0
0FC0
3CF0
3CF0
F03C
F03C
F03C
F03C
FFFC
FFFC
F03C
F03C
F03C
F03C
F03C
F03C
F03C
F03C
ENDCHAR
STARTCHAR 0387
ENCODING 903
SWIDTH 500 0
DWIDTH 16 0
BBX 4 4 6 10
BITMAP
F0
F0
F0
F0
ENDCHAR
STARTCHAR 0388
ENCODING 904
SWIDTH 500 0
DWIDTH 16 0
BBX 14 24 0 0
BITMAP
3C00
3C00
F000
F000
0000
0000
FFFC
FFFC
3C3C
3C3C
3C0C
3C0C
3CC0
3CC0
3FC0
3FC0
3CC0
3CC0
3C0C
3C0C
3C3C
3C3C
FFFC
FFFC
ENDCHAR
STARTCHAR 0389
ENCODING 905
SWIDTH 500 0
DWIDTH 16 0
BBX 14 24 0 0
BITMAP
3C00
3C00
F000
F000
0000
0000
F03C
F03C
F03C
F03C
F03C
F03C
F03C
F03C
FFFC
FFFC
F03C
F03C
F03C
F03C
F03C
F03C
F03C
F03C
ENDCHAR
STARTCHAR 038A
ENCODING 906
SWIDTH 500 0
DWIDTH 16 0
BBX 12 24 0 0
BITMAP
3C00
3C00
F000
F000
0000
0000
0FF0
0FF0
03C0
03C0
03C0
03C0
03C0
03C0
03C0
03C0
03C0
03C0
03C0
03C0
03C0
03C0
0FF0
0FF0
ENDCHAR
STARTCHAR 038C
ENCODING 908
SWIDTH 500 0
DWIDTH 16 0
BBX 14 24 0 0
BITMAP
3C00
3C00
F000
F000
0000
0000
3FF0
3FF0
F03C
F03C
F03C
F03C
F03C
F03C
F03C
F03C
F03C
F03C
F03C
F03C
F03C
F03C
3FF0
3FF0
ENDCHAR
STARTCHAR 038E
ENCODING 910
SWIDTH 500 0
DWIDTH 16 0
BBX 14 24 0 0
BITMAP
3C00
3C00
F000
F000
0000
0000
3C3C
3C3C
3C3C
3C3C
3C3C
3C3C
3C3C
3C3C
0FF0
0FF0
03C0
03C0
03C0
03C0
03C0
03C0
0FF0
0FF0
ENDCHAR
STARTCHAR 038F
ENCODING 911
SWIDTH 500 0
DWIDTH 16 0
BBX 14 24 0 0
BITMAP
3C00
3C00
F000
F000
0000
0000
0FC0
0FC0
3CF0
3CF0
F03C
F03C
F03C
F03C
F03C
F03C
F03C
F03C
3CF0
3CF0
3CF0
3CF0
FCFC
FCFC
ENDCHAR
STARTCHAR 0390
ENCODING 912
SWIDTH 500 0
DWIDTH 16 0
BBX 12 24 0 0
BITMAP
03C0
03C0
0F00
0F00
0000
0000
F0F0
F0F0
0000
0000
0F00
0F00
0F00
0F00
0F00
0F00
0F00
0F00
0F00
0F00
0F30
0F30
03C0
03C0
ENDCHAR
STARTCHAR 0391
ENCODING 913
SWIDTH 500 0
DWIDTH 16 0
BBX 14 20 0 0
BITMAP
0300
0300
0FC0
0FC0
3CF0
3CF0
F03C
F03C
F03C
F03C
FFFC
FFFC
F03C
F03C
F03C
F03C
F03C
F03C
F03C
F03C
ENDCHAR
STARTCHAR 0392
ENCODING 914
SWIDTH 500 0
DWIDTH 16 0
BBX 14 20 0 0
BITMAP
FFF0
FFF0
3C3C
3C3C
3C3C
3C3C
3C3C
3C3C
3FF0
3FF0
3C3C
3C3C
3C3C
3C3C
3C3C
3C3C
3C3C
3C3C
FFF0
FFF0
ENDCHAR
STARTCHAR 0393
ENCODING 915
SWIDTH 500 0
DWIDTH 16 0
BBX 14 20 0 0
BITMAP
FFFC
FFFC
3C3C
3C3C
3C0C
3C0C
3C00
3C00
3C00
3C00
3C00
3C00
3C00
3C00
3C00
3C00
3C00
3C00
FF00
FF00
ENDCHAR
STARTCHAR 0394
ENCODING 916
SWIDTH 500 0
DWIDTH 16 0
BBX 14 20 0 0
BITMAP
0300
0300
0300
0300
0FC0
0FC0
0FC0
0FC0
3CF0
3CF0
3CF0
3CF0
F03C
F03C
F03C
F03C
F03C
F03C
FFFC
FFFC
ENDCHAR
STARTCHAR 0395
ENCODING 917
SWIDTH 500 0
DWIDTH 16 0
BBX 14 20 0 0
BITMAP
FFFC
FFFC
3C3C
3C3C
3C0C
3C0C
3CC0
3CC0
3FC0
3FC0
3CC0
3CC0
3C00
3C00
3C0C
3C0C
3C3C
3C3C
FFFC
FFFC
ENDCHAR
STARTCHAR 0396
ENCODING 918
SWIDTH 500 0
DWIDTH 16 0
BBX 14 20 0 0
BITMAP
FFFC
FFFC
F03C
F03C
C03C
C03C
00F0
00F0
03C0
03C0
0F00
0F00
3C00
3C00
F00C
F00C
F03C
F03C
FFFC
FFFC
ENDCHAR
STARTCHAR 0397
ENCODING 919
SWIDTH 500 0
DWIDTH 16 0
BBX 14 20 0 0
BITMAP
F03C
F03C
F03C
F03C
F03C
F03C
F03C
F03C
FFFC
FFFC
F03C
F03C
F03C
F03C
F03C
F03C
F03C
F03C
F03C
F03C
ENDCHAR
STARTCHAR 0398
ENCODING 920
SWIDTH 500 0
DWIDTH 16 0
BBX 14 20 0 0
BITMAP
0FC0
0FC0
3CF0
3CF0
F03C
F03C
F03C
F03C
FFFC
FFFC
F03C
F03C
F03C
F03C
F03C
F03C
3CF0
3CF0
0FC0
0FC0
ENDCHAR
STARTCHAR 0399
ENCODING 921
SWIDTH 500 0
DWIDTH 16 0
BBX 8 20 4 0
BITMAP
FF
FF
3C
3C
3C
3C
3C
3C
3C
3C
3C
3C
3C
3C
3C
3C
3C
3C
FF
FF
ENDCHAR
STARTCHAR 039A
ENCODING 922
SWIDTH 500 0
DWIDTH 16 0
BBX 14 20 0 0
BITMAP
FC3C
FC3C
3C3C
3C3C
3C3C
3C3C
3CF0
3CF0
3FC0
3FC0
3FC0
3FC0
3CF0
3CF0
3C3C
3C3C
3C3C
3C3C
FC3C
FC3C
ENDCHAR
STARTCHAR 039B
ENCODING 923
SWIDTH 500 0
DWIDTH 16 0
BBX 14 20 0 0
BITMAP
0300
0300
0300
0300
0FC0
0FC0
0FC0
0FC0
3CF0
3CF0
3CF0
3CF0
F03C
F03C
F03C
F03C
F03C
F03C
F03C
F03C
ENDCHAR
STARTCHAR 039C
ENCODING 924
SWIDTH 500 0
DWIDTH 16 0
BBX 14 20 0 0
BITMAP
F03C
F03C
FCFC
FCFC
FFFC
FFFC
FFFC
FFFC
F33C
F33C
F03C
F03C
F03C
F03C
F03C
F03C
F03C
F03C
F03C
F03C
ENDCHAR
STARTCHAR 039D
ENCODING 925
SWIDTH 500 0
DWIDTH 16 0
BBX 14 20 0 0
BITMAP
F03C
F03C
FC3C
FC3C
FF3C
FF3C
FFFC
FFFC
F3FC
F3FC
F0FC
F0FC
F03C
F03C
F03C
F03C
F03C
F03C
F03C
F03C
ENDCHAR
STARTCHAR 039E
ENCODING 926
SWIDTH 500 0
DWIDTH 16 0
BBX 14 20 0 0
BITMAP
FFFC
FFFC
F03C
F03C
0000
0000
0000
0000
3FF0
3FF0
0000
0000
0000
0000
0000
0000
F03C
F03C
FFFC
FFFC
ENDCHAR
STARTCHAR 039F
ENCODING 927
SWIDTH 500 0
DWIDTH 16 0
BBX 14 20 0 0
BITMAP
3FF0
3FF0
F03C
F03C
F03C
F03C
F03C
F03C
F03C
F03C
F03C
F03C
F03C
F03C
F03C
F03C
F03C
F03C
3FF0
3FF0
ENDCHAR
STARTCHAR 03A0
ENCODING 928
SWIDTH 500 0
DWIDTH 16 0
BBX 14 20 0 0
BITMAP
FFFC
FFFC
F03C
F03C
F03C
F03C
F03C
F03C
F03C
F03C
F03C
F03C
F03C
F03C
F03C
F03C
F03C
F03C
F03C
F03C
ENDCHAR
STARTCHAR 03A1
ENCODING 929
SWIDTH 500 0
DWIDTH 16 0
BBX 14 20 0 0
BITMAP
FFF0
FFF0
3C3C
3C3C
3C3C
3C3C
3C3C
3C3C
3FF0
3FF0
3C00
3C00
3C00
3C00
3C00
3C00
3C00
3C00
FF00
FF00
ENDCHAR
STARTCHAR 03A3
ENCODING 931
SWIDTH 500 0
DWIDTH 16 0
BBX 14 20 0 0
BITMAP
FFFC
FFFC
F03C
F03C
3C0C
3C0C
0F00
0F00
03C0
03C0
03C0
03C0
0F00
0F00
3C0C
3C0C
F03C
F03C
FFFC
FFFC
ENDCHAR
STARTCHAR 03A4
ENCODING 932
SWIDTH 500 0
DWIDTH 16 0
BBX 12 20 2 0
BITMAP
FFF0
FFF0
FFF0
FFF0
CF30
CF30
0F00
0F00
0F00
0F00
0F00
0F00
0F00
0F00
0F00
0F00
0F00
0F00
3FC0
3FC0
ENDCHAR
STARTCHAR 03A5
ENCODING 933
SWIDTH 500 0
DWIDTH 16 0
BBX 12 20 2 0
BITMAP
F0F0
F0F0
F0F0
F0F0
F0F0
F0F0
F0F0
F0F0
3FC0
3FC0
0F00
0F00
0F00
0F00
0F00
0F00
0F00
0F00
3FC0
3FC0
ENDCHAR
STARTCHAR 03A6
ENCODING 934
SWIDTH 500 0
DWIDTH 16 0
BBX 14 20 0 0
BITMAP
0FC0
0FC0
0300
0300
3FF0
3FF0
F33C
F33C
F33C
F33C
F33C
F33C
F33C
F33C
3FF0
3FF0
0300
0300
0FC0
0FC0
ENDCHAR
STARTCHAR 03A7
ENCODING 935
SWIDTH 500 0
DWIDTH 16 0
BBX 14 20 0 0
BITMAP
F03C
F03C
F03C
F03C
3CF0
3CF0
3FF0
3FF0
0FC0
0FC0
0FC0
0FC0
3FF0
3FF0
3CF0
3CF0
F03C
F03C
F03C
F03C
ENDCHAR
STARTCHAR 03A8
ENCODING 936
SWIDTH 500 0
DWIDTH 16 0
BBX 14 20 0 0
BITMAP
F33C
F33C
F33C
F33C
F33C
F33C
F33C
F33C
F33C
F33C
F33C
F33C
3FF0
3FF0
0300
0300
0300
0300
0FC0
0FC0
ENDCHAR
STARTCHAR 03A9
ENCODING 937
SWIDTH 500 0
DWIDTH 16 0
BBX 14 20 0 0
BITMAP
0FC0
0FC0
3CF0
3CF0
F03C
F03C
F03C
F03C
F03C
F03C
F03C
F03C
3CF0
3CF0
3CF0
3CF0
3CF0
3CF0
FCFC
FCFC
ENDCHAR
STARTCHAR 03AA
ENCODING 938
SWIDTH 500 0
DWIDTH 16 0
BBX 12 22 2 0
BITMAP
F0F0
F0F0
0000
0000
3FC0
3FC0
0F00
0F00
0F00
0F00
0F00
0F00
0F00
0F00
0F00
0F00
0F00
0F00
0F00
0F00
3FC0
3FC0
ENDCHAR
STARTCHAR 03AB
ENCODING 939
SWIDTH 500 0
DWIDTH 16 0
BBX 12 22 2 0
BITMAP
F0F0
F0F0
0000
0000
F0F0
F0F0
F0F0
F0F0
F0F0
F0F0
F0F0
F0F0
3FC0
3FC0
0F00
0F00
0F00
0F00
0F00
0F00
3FC0
3FC0
ENDCHAR
STARTCHAR 03AC
ENCODING 940
SWIDTH 500 0
DWIDTH 16 0
BBX 14 20 0 0
BITMAP
00F0
00F0
03C0
03C0
0000
0000
3F30
3F30
F0F0
F0F0
F0F0
F0F0
F0F0
F0F0
F0F0
F0F0
F0F0
F0F0
3F3C
3F3C
ENDCHAR
STARTCHAR 03AD
ENCODING 941
SWIDTH 500 0
DWIDTH 16 0
BBX 12 20 2 0
BITMAP
00F0
00F0
03C0
03C0
0000
0000
3FF0
3FF0
F000
F000
F000
F000
3F00
3F00
F000
F000
F000
F000
3FF0
3FF0
ENDCHAR
STARTCHAR 03AE
ENCODING 942
SWIDTH 500 0
DWIDTH 16 0
BBX 14 26 0 -6
BITMAP
00F0
00F0
03C0
03C0
0000
0000
F3F0
F3F0
3C3C
3C3C
3C3C
3C3C
3C3C
3C3C
3C3C
3C3C
3C3C
3C3C
3C3C
3C3C
003C
003C
003C
003C
003C
003C
ENDCHAR
STARTCHAR 03AF
ENCODING 943
SWIDTH 500 0
DWIDTH 16 0
BBX 8 20 4 0
BITMAP
0F
0F
3C
3C
00
00
F0
F0
F0
F0
F0
F0
F0
F0
F0
F0
F3
F3
3C
3C
ENDCHAR
STARTCHAR 03B0
ENCODING 944
SWIDTH 500 0
DWIDTH 16 0
BBX 14 24 0 0
BITMAP
03C0
03C0
0F00
0F00
0000
0000
F0F0
F0F0
0000
0000
F0FC
F0FC
F0F0
F0F0
F0F0
F0F0
F0F0
F0F0
F0F0
F0F0
F0F0
F0F0
3FC0
3FC0
ENDCHAR
STARTCHAR 03B1
ENCODING 945
SWIDTH 500 0
DWIDTH 16 0
BBX 14 14 0 0
BITMAP
3F30
3F30
F0F0
F0F0
F0F0
F0F0
F0F0
F0F0
F0F0
F0F0
F0F0
F0F0
3F3C
3F3C
ENDCHAR
STARTCHAR 03B2
ENCODING 946
SWIDTH 500 0
DWIDTH 16 0
BBX 14 26 0 -6
BITMAP
3FC0
3FC0
F0F0
F0F0
F0F0
F0F0
F3C0
F3C0
FFF0
FFF0
F03C
F03C
F03C
F03C
F03C
F03C
F03C
F03C
FFF0
FFF0
F000
F000
F000
F000
C000
C000
ENDCHAR
STARTCHAR 03B3
ENCODING 947
SWIDTH 500 0
DWIDTH 16 0
BBX 14 20 0 -6
BITMAP
F03C
F03C
3CF0
3CF0
3CF0
3CF0
0FC0
0FC0
0FC0
0FC0
0FC0
0FC0
3CF0
3CF0
3CF0
3CF0
3CF0
3CF0
0FC0
0FC0
ENDCHAR
STARTCHAR 03B4
ENCODING 948
SWIDTH 500 0
DWIDTH 16 0
BBX 12 20 2 0
BITMAP
0FF0
0FF0
3C00
3C00
0F00
0F00
03C0
03C0
3FF0
3FF0
F0F0
F0F0
F0F0
F0F0
F0F0
F0F0
F0F0
F0F0
3FC0
3FC0
ENDCHAR
STARTCHAR 03B5
ENCODING 949
SWIDTH 500 0
DWIDTH 16 0
BBX 12 14 2 0
BITMAP
3FF0
3FF0
F000
F000
F000
F000
3F00
3F00
F000
F000
F000
F000
3FF0
3FF0
ENDCHAR
STARTCHAR 03B6
ENCODING 950
SWIDTH 500 0
DWIDTH 16 0
BBX 14 24 0 -4
BITMAP
F000
F000
3FF0
3FF0
0F00
0F00
3C00
3C00
F000
F000
F000
F000
F000
F000
F000
F000
3C00
3C00
0FF0
0FF0
003C
003C
03F0
03F0
ENDCHAR
STARTCHAR 03B7
ENCODING 951
SWIDTH 500 0
DWIDTH 16 0
BBX 14 20 0 -6
BITMAP
F3F0
F3F0
3C3C
3C3C
3C3C
3C3C
3C3C
3C3C
3C3C
3C3C
3C3C
3C3C
3C3C
3C3C
003C
003C
003C
003C
003C
003C
ENDCHAR
STARTCHAR 03B8
ENCODING 952
SWIDTH 500 0
DWIDTH 16 0
BBX 14 20 0 0
BITMAP
0FF0
0FF0
3C3C
3C3C
3C3C
3C3C
3C3C
3C3C
0F3C
0F3C
03FC
03FC
F03C
F03C
3C3C
3C3C
3C3C
3C3C
0FF0
0FF0
ENDCHAR
STARTCHAR 03B9
ENCODING 953
SWIDTH 500 0
DWIDTH 16 0
BBX 8 14 4 0
BITMAP
F0
F0
F0
F0
F0
F0
F0
F0
F0
F0
F3
F3
3C
3C
ENDCHAR
STARTCHAR 03BA
ENCODING 954
SWIDTH 500 0
DWIDTH 16 0
BBX 14 14 0 0
BITMAP
F03C
F03C
F0F0
F0F0
F3C0
F3C0
FFC0
FFC0
FCF0
FCF0
F03C
F03C
F03C
F03C
ENDCHAR
STARTCHAR 03BB
ENCODING 955
SWIDTH 500 0
DWIDTH 16 0
BBX 12 20 2 0
BITMAP
3FC0
3FC0
F0F0
F0F0
00F0
00F0
00F0
00F0
03F0
03F0
0FF0
0FF0
3CF0
3CF0
F0F0
F0F0
F0F0
F0F0
F0F0
F0F0
ENDCHAR
STARTCHAR 03BC
ENCODING 956
SWIDTH 500 0
DWIDTH 16 0
BBX 14 20 0 -6
BITMAP
F0F0
F0F0
F0F0
F0F0
F0F0
F0F0
F0F0
F0F0
F0F0
F0F0
FCF0
FCF0
F3CC
F3CC
F000
F000
F000
F000
F000
F000
ENDCHAR
STARTCHAR 03BD
ENCODING 957
SWIDTH 500 0
DWIDTH 16 0
BBX 14 14 0 0
BITMAP
FC3C
FC3C
3C3C
3C3C
3C3C
3C3C
3C3C
3C3C
3CF0
3CF0
3FC0
3FC0
0F00
0F00
ENDCHAR
STARTCHAR 03BE
ENCODING 958
SWIDTH 500 0
DWIDTH 16 0
BBX 14 24 0 -4
BITMAP
F000
F000
3FF0
3FF0
3C00
3C00
F000
F000
F000
F000
3FF0
3FF0
3C00
3C00
F000
F000
F000
F000
3FF0
3FF0
003C
003C
03F0
03F0
ENDCHAR
STARTCHAR 03BF
ENCODING 959
SWIDTH 500 0
DWIDTH 16 0
BBX 14 14 0 0
BITMAP
3FF0
3FF0
F03C
F03C
F03C
F03C
F03C
F03C
F03C
F03C
F03C
F03C
3FF0
3FF0
ENDCHAR
STARTCHAR 03C0
ENCODING 960
SWIDTH 500 0
DWIDTH 16 0
BBX 14 14 0 0
BITMAP
FFFC
FFFC
3CF0
3CF0
3CF0
3CF0
3CF0
3CF0
3CF0
3CF0
3CF0
3CF0
3CF0
3CF0
ENDCHAR
STARTCHAR 03C1
ENCODING 961
SWIDTH 500 0
DWIDTH 16 0
BBX 14 20 0 -6
BITMAP
3FF0
3FF0
F03C
F03C
F03C
F03C
F03C
F03C
F03C
F03C
FC3C
FC3C
F3F0
F3F0
F000
F000
F000
F000
F000
F000
ENDCHAR
STARTCHAR 03C2
ENCODING 962
SWIDTH 500 0
DWIDTH 16 0
BBX 14 18 0 -4
BITMAP
3FF0
3FF0
F03C
F03C
F000
F000
F000
F000
3C00
3C00
0FF0
0FF0
003C
003C
003C
003C
3FF0
3FF0
ENDCHAR
STARTCHAR 03C3
ENCODING 963
SWIDTH 500 0
DWIDTH 16 0
BBX 14 14 0 0
BITMAP
3FFC
3FFC
F0C0
F0C0
F0F0
F0F0
F0F0
F0F0
F0F0
F0F0
F0F0
F0F0
3FC0
3FC0
ENDCHAR
STARTCHAR 03C4
ENCODING 964
SWIDTH 500 0
DWIDTH 16 0
BBX 12 14 2 0
BITMAP
FFF0
FFF0
0F00
0F00
0F00
0F00
0F00
0F00
0F00
0F00
0F30
0F30
03C0
03C0
ENDCHAR
STARTCHAR 03C5
ENCODING 965
SWIDTH 500 0
DWIDTH 16 0
BBX 14 14 0 0
BITMAP
F0FC
F0FC
F0F0
F0F0
F0F0
F0F0
F0F0
F0F0
F0F0
F0F0
F0F0
F0F0
3FC0
3FC0
ENDCHAR
STARTCHAR 03C6
ENCODING 966
SWIDTH 500 0
DWIDTH 16 0
BBX 14 20 0 -6
BITMAP
03F0
03F0
333C
333C
F33C
F33C
F33C
F33C
F33C
F33C
F33C
F33C
3FF0
3FF0
0300
0300
0300
0300
0300
0300
ENDCHAR
STARTCHAR 03C7
ENCODING 967
SWIDTH 500 0
DWIDTH 16 0
BBX 14 14 0 0
BITMAP
F00C
F00C
3CF0
3CF0
0FC0
0FC0
0FC0
0FC0
0FC0
0FC0
3CF0
3CF0
C03C
C03C
ENDCHAR
STARTCHAR 03C8
ENCODING 968
SWIDTH 500 0
DWIDTH 16 0
BBX 14 20 0 -6
BITMAP
F03C
F03C
F33C
F33C
F33C
F33C
F33C
F33C
F33C
F33C
F33C
F33C
3FF0
3FF0
0300
0300
0300
0300
0300
0300
ENDCHAR
STARTCHAR 03C9
ENCODING 969
SWIDTH 500 0
DWIDTH 16 0
BBX 14 14 0 0
BITMAP
3030
3030
F03C
F03C
F03C
F03C
F33C
F33C
F33C
F33C
F33C
F33C
3CF0
3CF0
ENDCHAR
STARTCHAR 03CA
ENCODING 970
SWIDTH 500 0
DWIDTH 16 0
BBX 12 20 0 0
BITMAP
F0F0
F0F0
0000
0000
0000
0000
0F00
0F00
0F00
0F00
0F00
0F00
0F00
0F00
0F00
0F00
0F30
0F30
03C0
03C0
ENDCHAR
STARTCHAR 03CB
ENCODING 971
SWIDTH 500 0
DWIDTH 16 0
BBX 14 20 0 0
BITMAP
F0F0
F0F0
0000
0000
0000
0000
F0FC
F0FC
F0F0
F0F0
F0F0
F0F0
F0F0
F0F0
F0F0
F0F0
F0F0
F0F0
3FC0
3FC0
ENDCHAR
STARTCHAR 03CC
ENCODING 972
SWIDTH 500 0
DWIDTH 16 0
BBX 14 20 0 0
BITMAP
00F0
00F0
03C0
03C0
0000
0000
3FF0
3FF0
F03C
F03C
F03C
F03C
F03C
F03C
F03C
F03C
F03C
F03C
3FF0
3FF0
ENDCHAR
STARTCHAR 03CD
ENCODING 973
SWIDTH 500 0
DWIDTH 16 0
BBX 14 20 0 0
BITMAP
00F0
00F0
03C0
03C0
0000
0000
F0FC
F0FC
F0F0
F0F0
F0F0
F0F0
F0F0
F0F0
F0F0
F0F0
F0F0
F0F0
3FC0
3FC0
ENDCHAR
STARTCHAR 03CE
ENCODING 974
SWIDTH 500 0
DWIDTH 16 0
BBX 14 20 0 0
BITMAP
00F0
00F0
03C0
03C0
0000
0000
3030
3030
F03C
F03C
F03C
F03C
F33C
F33C
F33C
F33C
F33C
F33C
3CF0
3CF0
ENDCHAR
STARTCHAR 03D0
ENCODING 976
SWIDTH 500 0
DWIDTH 16 0
BBX 14 20 0 0
BITMAP
3FC0
3FC0
F0F0
F0F0
F0F0
F0F0
F0F0
F0F0
F3C0
F3C0
F0F0
F0F0
F03C
F03C
F03C
F03C
F03C
F03C
F0F0
F0F0
ENDCHAR
STARTCHAR 03F4
ENCODING 1012
SWIDTH 500 0
DWIDTH 16 0
BBX 14 18 0 0
BITMAP
0FC0
0FC0
3CF0
3CF0
F03C
F03C
F03C
F03C
FFFC
FFFC
F03C
F03C
F03C
F03C
3CF0
3CF0
0FC0
0FC0
ENDCHAR
STARTCHAR 0400
ENCODING 1024
SWIDTH 500 0
DWIDTH 16 0
BBX 14 24 0 0
BITMAP
0F00
0F00
03C0
03C0
0000
0000
FFFC
FFFC
3C3C
3C3C
3C0C
3C0C
3CC0
3CC0
3FC0
3FC0
3CC0
3CC0
3C0C
3C0C
3C3C
3C3C
FFFC
FFFC
ENDCHAR
STARTCHAR 0401
ENCODING 1025
SWIDTH 500 0
DWIDTH 16 0
BBX 14 22 0 0
BITMAP
F03C
F03C
0000
0000
FFFC
FFFC
3C3C
3C3C
3C0C
3C0C
3CC0
3CC0
3FC0
3FC0
3CC0
3CC0
3C0C
3C0C
3C3C
3C3C
FFFC
FFFC
ENDCHAR
STARTCHAR 0402
ENCODING 1026
SWIDTH 500 0
DWIDTH 16 0
BBX 14 22 0 -2
BITMAP
FFF0
FFF0
3C30
3C30
3C00
3C00
3CF0
3CF0
3F3C
3F3C
3C3C
3C3C
3C3C
3C3C
3C3C
3C3C
3C3C
3C3C
FC3C
FC3C
00F0
00F0
ENDCHAR
STARTCHAR 0403
ENCODING 1027
SWIDTH 500 0
DWIDTH 16 0
BBX 14 24 0 0
BITMAP
00F0
00F0
03C0
03C0
0000
0000
FFFC
FFFC
3C3C
3C3C
3C0C
3C0C
3C00
3C00
3C00
3C00
3C00
3C00
3C00
3C00
3C00
3C00
FF00
FF00
ENDCHAR
STARTCHAR 0404
ENCODING 1028
SWIDTH 500 0
DWIDTH 16 0
BBX 14 20 0 0
BITMAP
0FF0
0FF0
3C3C
3C3C
F00C
F00C
F0C0
F0C0
FFC0
FFC0
F0C0
F0C0
F000
F000
F00C
F00C
3C3C
3C3C
0FF0
0FF0
ENDCHAR
STARTCHAR 0405
ENCODING 1029
SWIDTH 500 0
DWIDTH 16 0
BBX 14 20 0 0
BITMAP
3FF0
3FF0
F03C
F03C
F03C
F03C
3C00
3C00
0FC0
0FC0
00F0
00F0
003C
003C
F03C
F03C
F03C
F03C
3FF0
3FF0
ENDCHAR
STARTCHAR 0406
ENCODING 1030
SWIDTH 500 0
DWIDTH 16 0
BBX 8 20 4 0
BITMAP
FF
FF
3C
3C
3C
3C
3C
3C
3C
3C
3C
3C
3C
3C
3C
3C
3C
3C
FF
FF
ENDCHAR
STARTCHAR 0407
ENCODING 1031
SWIDTH 500 0
DWIDTH 16 0
BBX 12 22 2 0
BITMAP
F0F0
F0F0
0000
0000
3FC0
3FC0
0F00
0F00
0F00
0F00
0F00
0F00
0F00
0F00
0F00
0F00
0F00
0F00
0F00
0F00
3FC0
3FC0
ENDCHAR
STARTCHAR 0408
ENCODING 1032
SWIDTH 500 0
DWIDTH 16 0
BBX 14 20 0 0
BITMAP
03FC
03FC
00F0
00F0
00F0
00F0
00F0
00F0
00F0
00F0
00F0
00F0
F0F0
F0F0
F0F0
F0F0
F0F0
F0F0
3FC0
3FC0
ENDCHAR
STARTCHAR 0409
ENCODING 1033
SWIDTH 500 0
DWIDTH 16 0
BBX 14 20 0 0
BITMAP
FFF0
FFF0
F3C0
F3C0
F3C0
F3C0
F3C0
F3C0
F3F0
F3F0
F3CC
F3CC
F3CC
F3CC
F3CC
F3CC
F3CC
F3CC
F3F0
F3F0
ENDCHAR
STARTCHAR 040A
ENCODING 1034
SWIDTH 500 0
DWIDTH 16 0
BBX 14 20 0 0
BITMAP
F3C0
F3C0
F3C0
F3C0
F3C0
F3C0
F3C0
F3C0
FFF0
FFF0
F3CC
F3CC
F3CC
F3CC
F3CC
F3CC
F3CC
F3CC
F3F0
F3F0
ENDCHAR
STARTCHAR 040B
ENCODING 1035
SWIDTH 500 0
DWIDTH 16 0
BBX 14 20 0 0
BITMAP
FFF0
FFF0
3C30
3C30
3C00
3C00
3C00
3C00
3FF0
3FF0
3C3C
3C3C
3C3C
3C3C
3C3C
3C3C
3C3C
3C3C
FC3C
FC3C
ENDCHAR
STARTCHAR 040C
ENCODING 1036
SWIDTH 500 0
DWIDTH 16 0
BBX 14 24 0 0
BITMAP
00F0
00F0
03C0
03C0
0000
0000
FC3C
FC3C
3C3C
3C3C
3C3C
3C3C
3CF0
3CF0
3FC0
3FC0
3CF0
3CF0
3C3C
3C3C
3C3C
3C3C
FC3C
FC3C
ENDCHAR
STARTCHAR 040D
ENCODING 1037
SWIDTH 500 0
DWIDTH 16 0
BBX 14 24 0 0
BITMAP
0F00
0F00
03C0
03C0
0000
0000
F03C
F03C
F03C
F03C
F03C
F03C
F0FC
F0FC
F3FC
F3FC
FFFC
FFFC
FF3C
FF3C
FC3C
FC3C
F03C
F03C
ENDCHAR
STARTCHAR 040E
ENCODING 1038
SWIDTH 500 0
DWIDTH 16 0
BBX 14 24 0 0
BITMAP
3CF0
3CF0
0FC0
0FC0
0000
0000
F03C
F03C
F03C
F03C
F03C
F03C
F03C
F03C
3FFC
3FFC
003C
003C
003C
003C
F03C
F03C
3FF0
3FF0
ENDCHAR
STARTCHAR 040F
ENCODING 1039
SWIDTH 500 0
DWIDTH 16 0
BBX 14 24 0 -4
BITMAP
FCFC
FCFC
3CF0
3CF0
3CF0
3CF0
3CF0
3CF0
3CF0
3CF0
3CF0
3CF0
3CF0
3CF0
3CF0
3CF0
3CF0
3CF0
FFFC
FFFC
0300
0300
0300
0300
ENDCHAR
STARTCHAR 0410
ENCODING 1040
SWIDTH 500 0
DWIDTH 16 0
BBX 14 20 0 0
BITMAP
0300
0300
0FC0
0FC0
3CF0
3CF0
F03C
F03C
F03C
F03C
FFFC
FFFC
F03C
F03C
F03C
F03C
F03C
F03C
F03C
F03C
ENDCHAR
STARTCHAR 0411
ENCODING 1041
SWIDTH 500 0
DWIDTH 16 0
BBX 14 20 0 0
BITMAP
FFFC
FFFC
3C3C
3C3C
3C0C
3C0C
3C00
3C00
3FF0
3FF0
3C3C
3C3C
3C3C
3C3C
3C3C
3C3C
3C3C
3C3C
FFF0
FFF0
ENDCHAR
STARTCHAR 0412
ENCODING 1042
SWIDTH 500 0
DWIDTH 16 0
BBX 14 20 0 0
BITMAP
FFF0
FFF0
3C3C
3C3C
3C3C
3C3C
3C3C
3C3C
3FF0
3FF0
3C3C
3C3C
3C3C
3C3C
3C3C
3C3C
3C3C
3C3C
FFF0
FFF0
ENDCHAR
STARTCHAR 0413
ENCODING 1043
SWIDTH 500 0
DWIDTH 16 0
BBX 14 20 0 0
BITMAP
FFFC
FFFC
3C3C
3C3C
3C0C
3C0C
3C00
3C00
3C00
3C00
3C00
3C00
3C00
3C00
3C00
3C00
3C00
3C00
FF00
FF00
ENDCHAR
STARTCHAR 0414
ENCODING 1044
SWIDTH 500 0
DWIDTH 16 0
BBX 16 24 0 -4
BITMAP
03FC
03FC
0F3C
0F3C
3C3C
3C3C
3C3C
3C3C
3C3C
3C3C
3C3C
3C3C
3C3C
3C3C
3C3C
3C3C
3C3C
3C3C
FFFF
FFFF
F00F
F00F
C003
C003
ENDCHAR
STARTCHAR 0415
ENCODING 1045
SWIDTH 500 0
DWIDTH 16 0
BBX 14 20 0 0
BITMAP
FFFC
FFFC
3C3C
3C3C
3C0C
3C0C
3CC0
3CC0
3FC0
3FC0
3CC0
3CC0
3C00
3C00
3C0C
3C0C
3C3C
3C3C
FFFC
FFFC
ENDCHAR
STARTCHAR 0416
ENCODING 1046
SWIDTH 500 0
DWIDTH 16 0
BBX 14 20 0 0
BITMAP
F33C
F33C
F33C
F33C
F33C
F33C
3FF0
3FF0
0FC0
0FC0
3FF0
3FF0
F33C
F33C
F33C
F33C
F33C
F33C
F33C
F33C
ENDCHAR
STARTCHAR 0417
ENCODING 1047
SWIDTH 500 0
DWIDTH 16 0
BBX 14 20 0 0
BITMAP
3FF0
3FF0
F03C
F03C
C03C
C03C
003C
003C
0FF0
0FF0
003C
003C
003C
003C
C03C
C03C
F03C
F03C
3FF0
3FF0
ENDCHAR
STARTCHAR 0418
ENCODING 1048
SWIDTH 500 0
DWIDTH 16 0
BBX 14 20 0 0
BITMAP
F03C
F03C
F03C
F03C
F03C
F03C
F0FC
F0FC
F3FC
F3FC
FFFC
FFFC
FF3C
FF3C
FC3C
FC3C
F03C
F03C
F03C
F03C
ENDCHAR
STARTCHAR 0419
ENCODING 1049
SWIDTH 500 0
DWIDTH 16 0
BBX 14 24 0 0
BITMAP
3CF0
3CF0
0FC0
0FC0
0000
0000
F03C
F03C
F03C
F03C
F03C
F03C
F0FC
F0FC
F3FC
F3FC
FFFC
FFFC
FF3C
FF3C
FC3C
FC3C
F03C
F03C
ENDCHAR
STARTCHAR 041A
ENCODING 1050
SWIDTH 500 0
DWIDTH 16 0
BBX 14 20 0 0
BITMAP
FC3C
FC3C
3C3C
3C3C
3C3C
3C3C
3CF0
3CF0
3FC0
3FC0
3FC0
3FC0
3CF0
3CF0
3C3C
3C3C
3C3C
3C3C
FC3C
FC3C
ENDCHAR
STARTCHAR 041B
ENCODING 1051
SWIDTH 500 0
DWIDTH 16 0
BBX 14 20 0 0
BITMAP
03FC
03FC
0F3C
0F3C
3C3C
3C3C
3C3C
3C3C
3C3C
3C3C
3C3C
3C3C
3C3C
3C3C
3C3C
3C3C
3C3C
3C3C
F03C
F03C
ENDCHAR
STARTCHAR 041C
ENCODING 1052
SWIDTH 500 0
DWIDTH 16 0
BBX 14 20 0 0
BITMAP
F03C
F03C
FCFC
FCFC
FFFC
FFFC
FFFC
FFFC
F33C
F33C
F03C
F03C
F03C
F03C
F03C
F03C
F03C
F03C
F03C
F03C
ENDCHAR
STARTCHAR 041D
ENCODING 1053
SWIDTH 500 0
DWIDTH 16 0
BBX 14 20 0 0
BITMAP
F03C
F03C
F03C
F03C
F03C
F03C
F03C
F03C
FFFC
FFFC
F03C
F03C
F03C
F03C
F03C
F03C
F03C
F03C
F03C
F03C
ENDCHAR
STARTCHAR 041E
ENCODING 1054
SWIDTH 500 0
DWIDTH 16 0
BBX 14 20 0 0
BITMAP
3FF0
3FF0
F03C
F03C
F03C
F03C
F03C
F03C
F03C
F03C
F03C
F03C
F03C
F03C
F03C
F03C
F03C
F03C
3FF0
3FF0
ENDCHAR
STARTCHAR 041F
ENCODING 1055
SWIDTH 500 0
DWIDTH 16 0
BBX 14 20 0 0
BITMAP
FFFC
FFFC
F03C
F03C
F03C
F03C
F03C
F03C
F03C
F03C
F03C
F03C
F03C
F03C
F03C
F03C
F03C
F03C
F03C
F03C
ENDCHAR
STARTCHAR 0420
ENCODING 1056
SWIDTH 500 0
DWIDTH 16 0
BBX 14 20 0 0
BITMAP
FFF0
FFF0
3C3C
3C3C
3C3C
3C3C
3C3C
3C3C
3FF0
3FF0
3C00
3C00
3C00
3C00
3C00
3C00
3C00
3C00
FF00
FF00
ENDCHAR
STARTCHAR 0421
ENCODING 1057
SWIDTH 500 0
DWIDTH 16 0
BBX 14 20 0 0
BITMAP
0FF0
0FF0
3C3C
3C3C
F00C
F00C
F000
F000
F000
F000
F000
F000
F000
F000
F00C
F00C
3C3C
3C3C
0FF0
0FF0
ENDCHAR
STARTCHAR 0422
ENCODING 1058
SWIDTH 500 0
DWIDTH 16 0
BBX 12 20 2 0
BITMAP
FFF0
FFF0
FFF0
FFF0
CF30
CF30
0F00
0F00
0F00
0F00
0F00
0F00
0F00
0F00
0F00
0F00
0F00
0F00
3FC0
3FC0
ENDCHAR
STARTCHAR 0423
ENCODING 1059
SWIDTH 500 0
DWIDTH 16 0
BBX 14 20 0 0
BITMAP
F03C
F03C
F03C
F03C
F03C
F03C
F03C
F03C
F03C
F03C
3FFC
3FFC
003C
003C
003C
003C
F03C
F03C
3FF0
3FF0
ENDCHAR
STARTCHAR 0424
ENCODING 1060
SWIDTH 500 0
DWIDTH 16 0
BBX 14 20 0 0
BITMAP
0FC0
0FC0
0300
0300
3FF0
3FF0
F33C
F33C
F33C
F33C
F33C
F33C
F33C
F33C
3FF0
3FF0
0300
0300
0FC0
0FC0
ENDCHAR
STARTCHAR 0425
ENCODING 1061
SWIDTH 500 0
DWIDTH 16 0
BBX 14 20 0 0
BITMAP
F03C
F03C
F03C
F03C
3CF0
3CF0
3FF0
3FF0
0FC0
0FC0
0FC0
0FC0
3FF0
3FF0
3CF0
3CF0
F03C
F03C
F03C
F03C
ENDCHAR
STARTCHAR 0426
ENCODING 1062
SWIDTH 500 0
DWIDTH 16 0
BBX 14 24 0 -4
BITMAP
F0F0
F0F0
F0F0
F0F0
F0F0
F0F0
F0F0
F0F0
F0F0
F0F0
F0F0
F0F0
F0F0
F0F0
F0F0
F0F0
F0F0
F0F0
FFFC
FFFC
003C
003C
000C
000C
ENDCHAR
STARTCHAR 0427
ENCODING 1063
SWIDTH 500 0
DWIDTH 16 0
BBX 14 20 0 0
BITMAP
F03C
F03C
F03C
F03C
F03C
F03C
F03C
F03C
F03C
F03C
3FFC
3FFC
003C
003C
003C
003C
003C
003C
003C
003C
ENDCHAR
STARTCHAR 0428
ENCODING 1064
SWIDTH 500 0
DWIDTH 16 0
BBX 14 20 0 0
BITMAP
F33C
F33C
F33C
F33C
F33C
F33C
F33C
F33C
F33C
F33C
F33C
F33C
F33C
F33C
F33C
F33C
F33C
F33C
FFFC
FFFC
ENDCHAR
STARTCHAR 0429
ENCODING 1065
SWIDTH 500 0
DWIDTH 16 0
BBX 16 24 0 -4
BITMAP
F33C
F33C
F33C
F33C
F33C
F33C
F33C
F33C
F33C
F33C
F33C
F33C
F33C
F33C
F33C
F33C
F33C
F33C
FFFF
FFFF
000F
000F
0003
0003
ENDCHAR
STARTCHAR 042A
ENCODING 1066
SWIDTH 500 0
DWIDTH 16 0
BBX 14 20 0 0
BITMAP
FF00
FF00
CF00
CF00
CF00
CF00
0F00
0F00
0FF0
0FF0
0F3C
0F3C
0F3C
0F3C
0F3C
0F3C
0F3C
0F3C
3FF0
3FF0
ENDCHAR
STARTCHAR 042B
ENCODING 1067
SWIDTH 500 0
DWIDTH 16 0
BBX 14 20 0 0
BITMAP
F03C
F03C
F03C
F03C
F03C
F03C
F03C
F03C
FC3C
FC3C
F33C
F33C
F33C
F33C
F33C
F33C
F33C
F33C
FC3C
FC3C
ENDCHAR
STARTCHAR 042C
ENCODING 1068
SWIDTH 500 0
DWIDTH 16 0
BBX 14 20 0 0
BITMAP
FF00
FF00
3C00
3C00
3C00
3C00
3C00
3C00
3FF0
3FF0
3C3C
3C3C
3C3C
3C3C
3C3C
3C3C
3C3C
3C3C
FFF0
FFF0
ENDCHAR
STARTCHAR 042D
ENCODING 1069
SWIDTH 500 0
DWIDTH 16 0
BBX 14 20 0 0
BITMAP
3FC0
3FC0
F0F0
F0F0
C03C
C03C
0C3C
0C3C
0FFC
0FFC
0C3C
0C3C
003C
003C
C03C
C03C
F0F0
F0F0
3FC0
3FC0
ENDCHAR
STARTCHAR 042E
ENCODING 1070
SWIDTH 500 0
DWIDTH 16 0
BBX 14 20 0 0
BITMAP
F0F0
F0F0
F33C
F33C
F33C
F33C
F33C
F33C
FF3C
FF3C
F33C
F33C
F33C
F33C
F33C
F33C
F33C
F33C
F0F0
F0F0
ENDCHAR
STARTCHAR 042F
ENCODING 1071
SWIDTH 500 0
DWIDTH 16 0
BBX 14 20 0 0
BITMAP
3FFC
3FFC
F0F0
F0F0
F0F0
F0F0
F0F0
F0F0
3FF0
3FF0
3CF0
3CF0
F0F0
F0F0
F0F0
F0F0
F0F0
F0F0
F0FC
F0FC
ENDCHAR
STARTCHAR 0430
ENCODING 1072
SWIDTH 500 0
DWIDTH 16 0
BBX 14 14 0 0
BITMAP
3FC0
3FC0
00F0
00F0
3FF0
3FF0
F0F0
F0F0
F0F0
F0F0
F0F0
F0F0
3F3C
3F3C
ENDCHAR
STARTCHAR 0431
ENCODING 1073
SWIDTH 500 0
DWIDTH 16 0
BBX 14 18 0 0
BITMAP
00F0
00F0
3FC0
3FC0
F000
F000
F000
F000
FFF0
FFF0
F03C
F03C
F03C
F03C
F03C
F03C
3FF0
3FF0
ENDCHAR
STARTCHAR 0432
ENCODING 1074
SWIDTH 500 0
DWIDTH 16 0
BBX 14 14 0 0
BITMAP
FFF0
FFF0
3C3C
3C3C
3C3C
3C3C
3FF0
3FF0
3C3C
3C3C
3C3C
3C3C
FFF0
FFF0
ENDCHAR
STARTCHAR 0433
ENCODING 1075
SWIDTH 500 0
DWIDTH 16 0
BBX 14 14 0 0
BITMAP
FFFC
FFFC
3C3C
3C3C
3C0C
3C0C
3C00
3C00
3C00
3C00
3C00
3C00
FF00
FF00
ENDCHAR
STARTCHAR 0434
ENCODING 1076
SWIDTH 500 0
DWIDTH 16 0
BBX 14 18 0 -4
BITMAP
0FF0
0FF0
0FF0
0FF0
3CF0
3CF0
F0F0
F0F0
F0F0
F0F0
F0F0
F0F0
FFFC
FFFC
F03C
F03C
C00C
C00C
ENDCHAR
STARTCHAR 0435
ENCODING 1077
SWIDTH 500 0
DWIDTH 16 0
BBX 14 14 0 0
BITMAP
3FF0
3FF0
F03C
F03C
FFFC
FFFC
F000
F000
F000
F000
F03C
F03C
3FF0
3FF0
ENDCHAR
STARTCHAR 0436
ENCODING 1078
SWIDTH 500 0
DWIDTH 16 0
BBX 14 14 0 0
BITMAP
F33C
F33C
F33C
F33C
F33C
F33C
3FF0
3FF0
F33C
F33C
F33C
F33C
F33C
F33C
ENDCHAR
STARTCHAR 0437
ENCODING 1079
SWIDTH 500 0
DWIDTH 16 0
BBX 14 14 0 0
BITMAP
3FF0
3FF0
F03C
F03C
003C
003C
03F0
03F0
003C
003C
F03C
F03C
3FF0
3FF0
ENDCHAR
STARTCHAR 0438
ENCODING 1080
SWIDTH 500 0
DWIDTH 16 0
BBX 14 14 0 0
BITMAP
F03C
F03C
F03C
F03C
F0FC
F0FC
F3FC
F3FC
FF3C
FF3C
FC3C
FC3C
F03C
F03C
ENDCHAR
STARTCHAR 0439
ENCODING 1081
SWIDTH 500 0
DWIDTH 16 0
BBX 14 20 0 0
BITMAP
3CF0
3CF0
0FC0
0FC0
0000
0000
F03C
F03C
F03C
F03C
F0FC
F0FC
F3FC
F3FC
FF3C
FF3C
FC3C
FC3C
F03C
F03C
ENDCHAR
STARTCHAR 043A
ENCODING 1082
SWIDTH 500 0
DWIDTH 16 0
BBX 14 14 0 0
BITMAP
FC3C
FC3C
3C3C
3C3C
3CF0
3CF0
3FC0
3FC0
3CF0
3CF0
3C3C
3C3C
FC3C
FC3C
ENDCHAR
STARTCHAR 043B
ENCODING 1083
SWIDTH 500 0
DWIDTH 16 0
BBX 14 14 0 0
BITMAP
03FC
03FC
0F3C
0F3C
3C3C
3C3C
3C3C
3C3C
3C3C
3C3C
3C3C
3C3C
F03C
F03C
ENDCHAR
STARTCHAR 043C
ENCODING 1084
SWIDTH 500 0
DWIDTH 16 0
BBX 14 14 0 0
BITMAP
F03C
F03C
FCFC
FCFC
FFFC
FFFC
F33C
F33C
F33C
F33C
F03C
F03C
F03C
F03C
ENDCHAR
STARTCHAR 043D
ENCODING 1085
SWIDTH 500 0
DWIDTH 16 0
BBX 14 14 0 0
BITMAP
F03C
F03C
F03C
F03C
F03C
F03C
FFFC
FFFC
F03C
F03C
F03C
F03C
F03C
F03C
ENDCHAR
STARTCHAR 043E
ENCODING 1086
SWIDTH 500 0
DWIDTH 16 0
BBX 14 14 0 0
BITMAP
3FF0
3FF0
F03C
F03C
F03C
F03C
F03C
F03C
F03C
F03C
F03C
F03C
3FF0
3FF0
ENDCHAR
STARTCHAR 043F
ENCODING 1087
SWIDTH 500 0
DWIDTH 16 0
BBX 14 14 0 0
BITMAP
FFFC
FFFC
F03C
F03C
F03C
F03C
F03C
F03C
F03C
F03C
F03C
F03C
F03C
F03C
ENDCHAR
STARTCHAR 0440
ENCODING 1088
SWIDTH 500 0
DWIDTH 16 0
BBX 14 20 0 -6
BITMAP
F3F0
F3F0
3C3C
3C3C
3C3C
3C3C
3C3C
3C3C
3C3C
3C3C
3C3C
3C3C
3FF0
3FF0
3C00
3C00
3C00
3C00
FF00
FF00
ENDCHAR
STARTCHAR 0441
ENCODING 1089
SWIDTH 500 0
DWIDTH 16 0
BBX 14 14 0 0
BITMAP
3FF0
3FF0
F03C
F03C
F000
F000
F000
F000
F000
F000
F03C
F03C
3FF0
3FF0
ENDCHAR
STARTCHAR 0442
ENCODING 1090
SWIDTH 500 0
DWIDTH 16 0
BBX 12 14 2 0
BITMAP
FFF0
FFF0
CF30
CF30
0F00
0F00
0F00
0F00
0F00
0F00
0F00
0F00
3FC0
3FC0
ENDCHAR
STARTCHAR 0443
ENCODING 1091
SWIDTH 500 0
DWIDTH 16 0
BBX 14 20 0 -6
BITMAP
F03C
F03C
F03C
F03C
F03C
F03C
F03C
F03C
F03C
F03C
F03C
F03C
3FFC
3FFC
003C
003C
00F0
00F0
FFC0
FFC0
ENDCHAR
STARTCHAR 0444
ENCODING 1092
SWIDTH 500 0
DWIDTH 16 0
BBX 14 26 0 -6
BITMAP
0300
0300
0300
0300
0300
0300
3FF0
3FF0
F33C
F33C
F33C
F33C
F33C
F33C
F33C
F33C
F33C
F33C
3FF0
3FF0
0300
0300
0300
0300
0300
0300
ENDCHAR
STARTCHAR 0445
ENCODING 1093
SWIDTH 500 0
DWIDTH 16 0
BBX 14 14 0 0
BITMAP
F03C
F03C
3CF0
3CF0
0FC0
0FC0
0FC0
0FC0
0FC0
0FC0
3CF0
3CF0
F03C
F03C
ENDCHAR
STARTCHAR 0446
ENCODING 1094
SWIDTH 500 0
DWIDTH 16 0
BBX 14 18 0 -4
BITMAP
F0F0
F0F0
F0F0
F0F0
F0F0
F0F0
F0F0
F0F0
F0F0
F0F0
F0F0
F0F0
FFFC
FFFC
003C
003C
000C
000C
ENDCHAR
STARTCHAR 0447
ENCODING 1095
SWIDTH 500 0
DWIDTH 16 0
BBX 14 14 0 0
BITMAP
F03C
F03C
F03C
F03C
F03C
F03C
3FFC
3FFC
003C
003C
003C
003C
003C
003C
ENDCHAR
STARTCHAR 0448
ENCODING 1096
SWIDTH 500 0
DWIDTH 16 0
BBX 14 14 0 0
BITMAP
F33C
F33C
F33C
F33C
F33C
F33C
F33C
F33C
F33C
F33C
F33C
F33C
FFFC
FFFC
ENDCHAR
STARTCHAR 0449
ENCODING 1097
SWIDTH 500 0
DWIDTH 16 0
BBX 16 18 0 -4
BITMAP
F33C
F33C
F33C
F33C
F33C
F33C
F33C
F33C
F33C
F33C
F33C
F33C
FFFF
FFFF
000F
000F
0003
0003
ENDCHAR
STARTCHAR 044A
ENCODING 1098
SWIDTH 500 0
DWIDTH 16 0
BBX 14 14 0 0
BITMAP
FF00
FF00
CF00
CF00
0F00
0F00
0FF0
0FF0
0F3C
0F3C
0F3C
0F3C
3FF0
3FF0
ENDCHAR
STARTCHAR 044B
ENCODING 1099
SWIDTH 500 0
DWIDTH 16 0
BBX 14 14 0 0
BITMAP
F03C
F03C
F03C
F03C
F03C
F03C
FC3C
FC3C
F33C
F33C
F33C
F33C
FC3C
FC3C
ENDCHAR
STARTCHAR 044C
ENCODING 1100
SWIDTH 500 0
DWIDTH 16 0
BBX 12 14 2 0
BITMAP
FF00
FF00
3C00
3C00
3C00
3C00
3FC0
3FC0
3CF0
3CF0
3CF0
3CF0
FFC0
FFC0
ENDCHAR
STARTCHAR 044D
ENCODING 1101
SWIDTH 500 0
DWIDTH 16 0
BBX 14 14 0 0
BITMAP
3FF0
3FF0
F03C
F03C
03FC
03FC
003C
003C
003C
003C
F03C
F03C
3FF0
3FF0
ENDCHAR
STARTCHAR 044E
ENCODING 1102
SWIDTH 500 0
DWIDTH 16 0
BBX 14 14 0 0
BITMAP
F0F0
F0F0
F33C
F33C
F33C
F33C
FF3C
FF3C
F33C
F33C
F33C
F33C
F0F0
F0F0
ENDCHAR
STARTCHAR 044F
ENCODING 1103
SWIDTH 500 0
DWIDTH 16 0
BBX 14 14 0 0
BITMAP
0FFC
0FFC
3CF0
3CF0
3CF0
3CF0
0FF0
0FF0
3CF0
3CF0
3CF0
3CF0
FCFC
FCFC
ENDCHAR
STARTCHAR 0450
ENCODING 1104
SWIDTH 500 0
DWIDTH 16 0
BBX 14 22 0 0
BITMAP
3C00
3C00
0F00
0F00
03C0
03C0
0000
0000
3FF0
3FF0
F03C
F03C
FFFC
FFFC
F000
F000
F000
F000
F03C
F03C
3FF0
3FF0
ENDCHAR
STARTCHAR 0451
ENCODING 1105
SWIDTH 500 0
DWIDTH 16 0
BBX 14 20 0 0
BITMAP
F03C
F03C
0000
0000
0000
0000
3FF0
3FF0
F03C
F03C
FFFC
FFFC
F000
F000
F000
F000
F03C
F03C
3FF0
3FF0
ENDCHAR
STARTCHAR 0452
ENCODING 1106
SWIDTH 500 0
DWIDTH 16 0
BBX 14 26 0 -6
BITMAP
3C00
3C00
FFC0
FFC0
3C00
3C00
3CF0
3CF0
3F3C
3F3C
3C3C
3C3C
3C3C
3C3C
3C3C
3C3C
3C3C
3C3C
FC3C
FC3C
003C
003C
003C
003C
00F0
00F0
ENDCHAR
STARTCHAR 0453
ENCODING 1107
SWIDTH 500 0
DWIDTH 16 0
BBX 14 22 0 0
BITMAP
00F0
00F0
03C0
03C0
0F00
0F00
0000
0000
FFFC
FFFC
3C3C
3C3C
3C0C
3C0C
3C00
3C00
3C00
3C00
3C00
3C00
FF00
FF00
ENDCHAR
STARTCHAR 0454
ENCODING 1108
SWIDTH 500 0
DWIDTH 16 0
BBX 14 14 0 0
BITMAP
3FF0
3FF0
F03C
F03C
F000
F000
FFC0
FFC0
F000
F000
F03C
F03C
3FF0
3FF0
ENDCHAR
STARTCHAR 0455
ENCODING 1109
SWIDTH 500 0
DWIDTH 16 0
BBX 14 14 0 0
BITMAP
3FF0
3FF0
F03C
F03C
3C00
3C00
0FC0
0FC0
00F0
00F0
F03C
F03C
3FF0
3FF0
ENDCHAR
STARTCHAR 0456
ENCODING 1110
SWIDTH 500 0
DWIDTH 16 0
BBX 8 20 4 0
BITMAP
3C
3C
3C
3C
00
00
FC
FC
3C
3C
3C
3C
3C
3C
3C
3C
3C
3C
FF
FF
ENDCHAR
STARTCHAR 0457
ENCODING 1111
SWIDTH 500 0
DWIDTH 16 0
BBX 12 20 2 0
BITMAP
F0F0
F0F0
0000
0000
0000
0000
3F00
3F00
0F00
0F00
0F00
0F00
0F00
0F00
0F00
0F00
0F00
0F00
3FC0
3FC0
ENDCHAR
STARTCHAR 0458
ENCODING 1112
SWIDTH 500 0
DWIDTH 16 0
BBX 12 26 0 -6
BITMAP
00F0
00F0
00F0
00F0
0000
0000
03F0
03F0
00F0
00F0
00F0
00F0
00F0
00F0
00F0
00F0
00F0
00F0
00F0
00F0
F0F0
F0F0
F0F0
F0F0
3FC0
3FC0
ENDCHAR
STARTCHAR 0459
ENCODING 1113
SWIDTH 500 0
DWIDTH 16 0
BBX 14 14 0 0
BITMAP
FFF0
FFF0
F3C0
F3C0
F3C0
F3C0
F3F0
F3F0
F3CC
F3CC
F3CC
F3CC
F3F0
F3F0
ENDCHAR
STARTCHAR 045A
ENCODING 1114
SWIDTH 500 0
DWIDTH 16 0
BBX 14 14 0 0
BITMAP
F3C0
F3C0
F3C0
F3C0
F3C0
F3C0
FFF0
FFF0
F3CC
F3CC
F3CC
F3CC
F3F0
F3F0
ENDCHAR
STARTCHAR 045B
ENCODING 1115
SWIDTH 500 0
DWIDTH 16 0
BBX 14 20 0 0
BITMAP
3C00
3C00
FFC0
FFC0
3C00
3C00
3FF0
3FF0
3C3C
3C3C
3C3C
3C3C
3C3C
3C3C
3C3C
3C3C
3C3C
3C3C
FC3C
FC3C
ENDCHAR
STARTCHAR 045C
ENCODING 1116
SWIDTH 500 0
DWIDTH 16 0
BBX 14 22 0 0
BITMAP
00F0
00F0
03C0
03C0
0F00
0F00
0000
0000
FC3C
FC3C
3C3C
3C3C
3CF0
3CF0
3FC0
3FC0
3CF0
3CF0
3C3C
3C3C
FC3C
FC3C
ENDCHAR
STARTCHAR 045D
ENCODING 1117
SWIDTH 500 0
DWIDTH 16 0
BBX 14 22 0 0
BITMAP
3C00
3C00
0F00
0F00
03C0
03C0
0000
0000
F03C
F03C
F03C
F03C
F0FC
F0FC
F3FC
F3FC
FF3C
FF3C
FC3C
FC3C
F03C
F03C
ENDCHAR
STARTCHAR 045E
ENCODING 1118
SWIDTH 500 0
DWIDTH 16 0
BBX 14 26 0 -6
BITMAP
3CF0
3CF0
0FC0
0FC0
0000
0000
F03C
F03C
F03C
F03C
F03C
F03C
F03C
F03C
F03C
F03C
F03C
F03C
3FFC
3FFC
003C
003C
00F0
00F0
FFC0
FFC0
ENDCHAR
STARTCHAR 045F
ENCODING 1119
SWIDTH 500 0
DWIDTH 16 0
BBX 14 18 0 -4
BITMAP
FCFC
FCFC
3CF0
3CF0
3CF0
3CF0
3CF0
3CF0
3CF0
3CF0
3CF0
3CF0
FFFC
FFFC
0300
0300
0300
0300
ENDCHAR
STARTCHAR 0490
ENCODING 1168
SWIDTH 500 0
DWIDTH 16 0
BBX 14 24 0 0
BITMAP
000C
000C
003C
003C
FFFC
FFFC
3C00
3C00
3C00
3C00
3C00
3C00
3C00
3C00
3C00
3C00
3C00
3C00
3C00
3C00
3C00
3C00
FF00
FF00
ENDCHAR
STARTCHAR 0491
ENCODING 1169
SWIDTH 500 0
DWIDTH 16 0
BBX 14 18 0 0
BITMAP
000C
000C
003C
003C
FFFC
FFFC
3C00
3C00
3C00
3C00
3C00
3C00
3C00
3C00
3C00
3C00
FF00
FF00
ENDCHAR
STARTCHAR 05BE
ENCODING 1470
SWIDTH 500 0
DWIDTH 16 0
BBX 12 2 2 14
BITMAP
FFF0
FFF0
ENDCHAR
STARTCHAR 05D0
ENCODING 1488
SWIDTH 500 0
DWIDTH 16 0
BBX 14 16 0 0
BITMAP
F03C
F03C
F03C
F03C
3C3C
3C3C
3F3C
3F3C
F3F0
F3F0
F0F0
F0F0
F03C
F03C
F03C
F03C
ENDCHAR
STARTCHAR 05D1
ENCODING 1489
SWIDTH 500 0
DWIDTH 16 0
BBX 14 16 0 0
BITMAP
FFC0
FFC0
00F0
00F0
00F0
00F0
00F0
00F0
00F0
00F0
00F0
00F0
00F0
00F0
FFFC
FFFC
ENDCHAR
STARTCHAR 05D2
ENCODING 1490
SWIDTH 500 0
DWIDTH 16 0
BBX 14 16 0 0
BITMAP
0FC0
0FC0
00F0
00F0
00F0
00F0
00F0
00F0
00F0
00F0
03F0
03F0
0F3C
0F3C
FC3C
FC3C
ENDCHAR
STARTCHAR 05D3
ENCODING 1491
SWIDTH 500 0
DWIDTH 16 0
BBX 14 16 0 0
BITMAP
FFFC
FFFC
00F0
00F0
00F0
00F0
00F0
00F0
00F0
00F0
00F0
00F0
00F0
00F0
00F0
00F0
ENDCHAR
STARTCHAR 05D4
ENCODING 1492
SWIDTH 500 0
DWIDTH 16 0
BBX 14 16 0 0
BITMAP
FFF0
FFF0
003C
003C
003C
003C
003C
003C
F03C
F03C
F03C
F03C
F03C
F03C
F03C
F03C
ENDCHAR
STARTCHAR 05D5
ENCODING 1493
SWIDTH 500 0
DWIDTH 16 0
BBX 8 16 2 0
BITMAP
FC
FC
0F
0F
0F
0F
0F
0F
0F
0F
0F
0F
0F
0F
0F
0F
ENDCHAR
STARTCHAR 05D6
ENCODING 1494
SWIDTH 500 0
DWIDTH 16 0
BBX 12 16 0 0
BITMAP
FFF0
FFF0
0F00
0F00
0F00
0F00
0F00
0F00
03C0
03C0
03C0
03C0
0F00
0F00
3C00
3C00
ENDCHAR
STARTCHAR 05D7
ENCODING 1495
SWIDTH 500 0
DWIDTH 16 0
BBX 14 16 0 0
BITMAP
FFF0
FFF0
3C3C
3C3C
F03C
F03C
F03C
F03C
F03C
F03C
F03C
F03C
F03C
F03C
F03C
F03C
ENDCHAR
STARTCHAR 05D8
ENCODING 1496
SWIDTH 500 0
DWIDTH 16 0
BBX 14 16 0 0
BITMAP
F0F0
F0F0
F33C
F33C
F33C
F33C
F03C
F03C
F03C
F03C
F03C
F03C
F03C
F03C
3FF0
3FF0
ENDCHAR
STARTCHAR 05D9
ENCODING 1497
SWIDTH 500 0
DWIDTH 16 0
BBX 8 10 2 6
BITMAP
FC
FC
0F
0F
0F
0F
0F
0F
3C
3C
ENDCHAR
STARTCHAR 05DA
ENCODING 1498
SWIDTH 500 0
DWIDTH 16 0
BBX 14 22 0 -6
BITMAP
FFF0
FFF0
003C
003C
003C
003C
003C
003C
00F0
00F0
00F0
00F0
00F0
00F0
00F0
00F0
00F0
00F0
00F0
00F0
00FC
00FC
ENDCHAR
STARTCHAR 05DB
ENCODING 1499
SWIDTH 500 0
DWIDTH 16 0
BBX 14 16 0 0
BITMAP
FFF0
FFF0
003C
003C
003C
003C
003C
003C
003C
003C
003C
003C
003C
003C
FFF0
FFF0
ENDCHAR
STARTCHAR 05DC
ENCODING 1500
SWIDTH 500 0
DWIDTH 16 0
BBX 14 20 0 0
BITMAP
F000
F000
F000
F000
FFF0
FFF0
003C
003C
003C
003C
003C
003C
003C
003C
00F0
00F0
03C0
03C0
03C0
03C0
ENDCHAR
STARTCHAR 05DD
ENCODING 1501
SWIDTH 500 0
DWIDTH 16 0
BBX 14 16 0 0
BITMAP
FFF0
FFF0
3C3C
3C3C
F03C
F03C
F03C
F03C
F03C
F03C
F03C
F03C
F03C
F03C
FFFC
FFFC
ENDCHAR
STARTCHAR 05DE
ENCODING 1502
SWIDTH 500 0
DWIDTH 16 0
BBX 14 16 0 0
BITMAP
F3F0
F3F0
3F3C
3F3C
3C3C
3C3C
F03C
F03C
F03C
F03C
F03C
F03C
F03C
F03C
F3FC
F3FC
ENDCHAR
STARTCHAR 05DF
ENCODING 1503
SWIDTH 500 0
DWIDTH 16 0
BBX 8 22 4 -6
BITMAP
FC
FC
0F
0F
0F
0F
3C
3C
3C
3C
3C
3C
3C
3C
3C
3C
3C
3C
3C
3C
3F
3F
ENDCHAR
STARTCHAR 05E0
ENCODING 1504
SWIDTH 500 0
DWIDTH 16 0
BBX 10 16 2 0
BITMAP
3F00
3F00
03C0
03C0
03C0
03C0
03C0
03C0
03C0
03C0
03C0
03C0
03C0
03C0
FFC0
FFC0
ENDCHAR
STARTCHAR 05E1
ENCODING 1505
SWIDTH 500 0
DWIDTH 16 0
BBX 14 16 0 0
BITMAP
FFF0
FFF0
3C3C
3C3C
F03C
F03C
F03C
F03C
F03C
F03C
F03C
F03C
F0F0
F0F0
3FC0
3FC0
ENDCHAR
STARTCHAR 05E2
ENCODING 1506
SWIDTH 500 0
DWIDTH 16 0
BBX 14 16 0 0
BITMAP
FCFC
FCFC
3C3C
3C3C
3C3C
3C3C
3C3C
3C3C
3C3C
3C3C
3C3C
3C3C
0CF0
0CF0
FFC0
FFC0
ENDCHAR
STARTCHAR 05E3
ENCODING 1507
SWIDTH 500 0
DWIDTH 16 0
BBX 14 22 0 -6
BITMAP
FFC0
FFC0
30F0
30F0
F0F0
F0F0
F0F0
F0F0
FCF0
FCF0
00F0
00F0
00F0
00F0
00F0
00F0
00F0
00F0
00F0
00F0
00FC
00FC
ENDCHAR
STARTCHAR 05E4
ENCODING 1508
SWIDTH 500 0
DWIDTH 16 0
BBX 14 16 0 0
BITMAP
FFF0
FFF0
303C
303C
F03C
F03C
F03C
F03C
FC3C
FC3C
003C
003C
003C
003C
FFFC
FFFC
ENDCHAR
STARTCHAR 05E5
ENCODING 1509
SWIDTH 500 0
DWIDTH 16 0
BBX 14 22 0 -6
BITMAP
FCFC
FCFC
3C3C
3C3C
3C3C
3C3C
3CF0
3CF0
3FC0
3FC0
3C00
3C00
3C00
3C00
3C00
3C00
3C00
3C00
3C00
3C00
3F00
3F00
ENDCHAR
STARTCHAR 05E6
ENCODING 1510
SWIDTH 500 0
DWIDTH 16 0
BBX 14 16 0 0
BITMAP
FCFC
FCFC
3C3C
3C3C
3C3C
3C3C
0F30
0F30
03C0
03C0
00F0
00F0
003C
003C
FFFC
FFFC
ENDCHAR
STARTCHAR 05E7
ENCODING 1511
SWIDTH 500 0
DWIDTH 16 0
BBX 14 22 0 -6
BITMAP
FFF0
FFF0
003C
003C
003C
003C
3C3C
3C3C
3C30
3C30
3CF0
3CF0
3CFC
3CFC
3C00
3C00
3C00
3C00
3C00
3C00
3C00
3C00
ENDCHAR
STARTCHAR 05E8
ENCODING 1512
SWIDTH 500 0
DWIDTH 16 0
BBX 14 16 0 0
BITMAP
FFF0
FFF0
003C
003C
003C
003C
003C
003C
003C
003C
003C
003C
003C
003C
003C
003C
ENDCHAR
STARTCHAR 05E9
ENCODING 1513
SWIDTH 500 0
DWIDTH 16 0
BBX 14 16 0 0
BITMAP
F33C
F33C
F33C
F33C
F33C
F33C
F33C
F33C
F33C
F33C
FF3C
FF3C
F03C
F03C
3FF0
3FF0
ENDCHAR
STARTCHAR 05EA
ENCODING 1514
SWIDTH 500 0
DWIDTH 16 0
BBX 14 16 0 0
BITMAP
FFF0
FFF0
3C3C
3C3C
3C3C
3C3C
3C3C
3C3C
3C3C
3C3C
3C3C
3C3C
FC3C
FC3C
FC3C
FC3C
ENDCHAR
STARTCHAR 05F0
ENCODING 1520
SWIDTH 500 0
DWIDTH 16 0
BBX 14 16 0 0
BITMAP
F0F0
F0F0
3C3C
3C3C
3C3C
3C3C
3C3C
3C3C
3C3C
3C3C
3C3C
3C3C
3C3C
3C3C
3C3C
3C3C
ENDCHAR
STARTCHAR 05F1
ENCODING 1521
SWIDTH 500 0
DWIDTH 16 0
BBX 14 16 0 0
BITMAP
F0F0
F0F0
3C3C
3C3C
3C3C
3C3C
3C3C
3C3C
003C
003C
003C
003C
003C
003C
003C
003C
ENDCHAR
STARTCHAR 05F2
ENCODING 1522
SWIDTH 500 0
DWIDTH 16 0
BBX 14 8 0 8
BITMAP
F0F0
F0F0
3C3C
3C3C
3C3C
3C3C
3C3C
3C3C
ENDCHAR
STARTCHAR 05F3
ENCODING 1523
SWIDTH 500 0
DWIDTH 16 0
BBX 6 6 4 12
BITMAP
3C
3C
3C
3C
F0
F0
ENDCHAR
STARTCHAR 05F4
ENCODING 1524
SWIDTH 500 0
DWIDTH 16 0
BBX 14 6 0 12
BITMAP
3C3C
3C3C
3C3C
3C3C
F0F0
F0F0
ENDCHAR
STARTCHAR 1D1B
ENCODING 7451
SWIDTH 500 0
DWIDTH 16 0
BBX 14 16 0 0
BITMAP
3F3C
3F3C
F3F0
F3F0
03C0
03C0
03C0
03C0
03C0
03C0
03C0
03C0
03C0
03C0
03C0
03C0
ENDCHAR
STARTCHAR 1D26
ENCODING 7462
SWIDTH 500 0
DWIDTH 16 0
BBX 14 20 0 0
BITMAP
FFFC
FFFC
F03C
F03C
F03C
F03C
F000
F000
F000
F000
F000
F000
F000
F000
F000
F000
F000
F000
F000
F000
ENDCHAR
STARTCHAR 1D28
ENCODING 7464
SWIDTH 500 0
DWIDTH 16 0
BBX 14 16 0 0
BITMAP
FFFC
FFFC
3CF0
3CF0
3CF0
3CF0
3CF0
3CF0
3CF0
3CF0
3CF0
3CF0
3CF0
3CF0
3CF0
3CF0
ENDCHAR
STARTCHAR 1E80
ENCODING 7808
SWIDTH 500 0
DWIDTH 16 0
BBX 14 24 0 0
BITMAP
0F00
0F00
03C0
03C0
0000
0000
F03C
F03C
F03C
F03C
F03C
F03C
F33C
F33C
F33C
F33C
F33C
F33C
FFFC
FFFC
FCFC
FCFC
3CF0
3CF0
ENDCHAR
STARTCHAR 1E81
ENCODING 7809
SWIDTH 500 0
DWIDTH 16 0
BBX 14 22 0 0
BITMAP
3C00
3C00
0F00
0F00
03C0
03C0
0000
0000
F03C
F03C
F03C
F03C
F33C
F33C
F33C
F33C
F33C
F33C
FFFC
FFFC
3CF0
3CF0
ENDCHAR
STARTCHAR 1E82
ENCODING 7810
SWIDTH 500 0
DWIDTH 16 0
BBX 14 24 0 0
BITMAP
03C0
03C0
0F00
0F00
0000
0000
F03C
F03C
F03C
F03C
F03C
F03C
F33C
F33C
F33C
F33C
F33C
F33C
FFFC
FFFC
FCFC
FCFC
3CF0
3CF0
ENDCHAR
STARTCHAR 1E83
ENCODING 7811
SWIDTH 500 0
DWIDTH 16 0
BBX 14 22 0 0
BITMAP
03C0
03C0
0F00
0F00
3C00
3C00
0000
0000
F03C
F03C
F03C
F03C
F33C
F33C
F33C
F33C
F33C
F33C
FFFC
FFFC
3CF0
3CF0
ENDCHAR
STARTCHAR 1E84
ENCODING 7812
SWIDTH 500 0
DWIDTH 16 0
BBX 14 22 0 0
BITMAP
F03C
F03C
0000
0000
F03C
F03C
F03C
F03C
F03C
F03C
F33C
F33C
F33C
F33C
F33C
F33C
FFFC
FFFC
FCFC
FCFC
3CF0
3CF0
ENDCHAR
STARTCHAR 1E85
ENCODING 7813
SWIDTH 500 0
DWIDTH 16 0
BBX 14 20 0 0
BITMAP
F03C
F03C
0000
0000
0000
0000
F03C
F03C
F03C
F03C
F33C
F33C
F33C
F33C
F33C
F33C
FFFC
FFFC
3CF0
3CF0
ENDCHAR
STARTCHAR 1E9F
ENCODING 7839
SWIDTH 500 0
DWIDTH 16 0
BBX 12 20 2 0
BITMAP
0FF0
0FF0
3C00
3C00
0F00
0F00
03C0
03C0
3FF0
3FF0
F0F0
F0F0
F0F0
F0F0
F0F0
F0F0
F0F0
F0F0
3FC0
3FC0
ENDCHAR
STARTCHAR 1EF2
ENCODING 7922
SWIDTH 500 0
DWIDTH 16 0
BBX 12 24 2 0
BITMAP
3C00
3C00
0F00
0F00
0000
0000
F0F0
F0F0
F0F0
F0F0
F0F0
F0F0
F0F0
F0F0
3FC0
3FC0
0F00
0F00
0F00
0F00
0F00
0F00
3FC0
3FC0
ENDCHAR
STARTCHAR 1EF3
ENCODING 7923
SWIDTH 500 0
DWIDTH 16 0
BBX 14 28 0 -6
BITMAP
3C00
3C00
0F00
0F00
03C0
03C0
0000
0000
F03C
F03C
F03C
F03C
F03C
F03C
F03C
F03C
F03C
F03C
F03C
F03C
3FFC
3FFC
003C
003C
00F0
00F0
FFC0
FFC0
ENDCHAR
STARTCHAR 2010
ENCODING 8208
SWIDTH 500 0
DWIDTH 16 0
BBX 12 2 2 8
BITMAP
FFF0
FFF0
ENDCHAR
STARTCHAR 2012
ENCODING 8210
SWIDTH 500 0
DWIDTH 16 0
BBX 10 2 2 8
BITMAP
FFC0
FFC0
ENDCHAR
STARTCHAR 2013
ENCODING 8211
SWIDTH 500 0
DWIDTH 16 0
BBX 10 2 2 8
BITMAP
FFC0
FFC0
ENDCHAR
STARTCHAR 2014
ENCODING 8212
SWIDTH 500 0
DWIDTH 16 0
BBX 16 2 0 8
BITMAP
FFFF
FFFF
ENDCHAR
STARTCHAR 2015
ENCODING 8213
SWIDTH 500 0
DWIDTH 16 0
BBX 16 2 0 8
BITMAP
FFFF
FFFF
ENDCHAR
STARTCHAR 2017
ENCODING 8215
SWIDTH 500 0
DWIDTH 16 0
BBX 16 6 0 -6
BITMAP
FFFF
FFFF
0000
0000
FFFF
FFFF
ENDCHAR
STARTCHAR 2018
ENCODING 8216
SWIDTH 500 0
DWIDTH 16 0
BBX 6 6 4 16
BITMAP
3C
3C
F0
F0
F0
F0
ENDCHAR
STARTCHAR 2019
ENCODING 8217
SWIDTH 500 0
DWIDTH 16 0
BBX 6 6 4 16
BITMAP
3C
3C
3C
3C
F0
F0
ENDCHAR
STARTCHAR 201A
ENCODING 8218
SWIDTH 500 0
DWIDTH 16 0
BBX 6 6 4 -6
BITMAP
3C
3C
3C
3C
F0
F0
ENDCHAR
STARTCHAR 201B
ENCODING 8219
SWIDTH 500 0
DWIDTH 16 0
BBX 6 6 4 16
BITMAP
F0
F0
F0
F0
3C
3C
ENDCHAR
STARTCHAR 201C
ENCODING 8220
SWIDTH 500 0
DWIDTH 16 0
BBX 14 6 0 16
BITMAP
3C3C
3C3C
F0F0
F0F0
F0F0
F0F0
ENDCHAR
STARTCHAR 201D
ENCODING 8221
SWIDTH 500 0
DWIDTH 16 0
BBX 14 6 0 16
BITMAP
3C3C
3C3C
3C3C
3C3C
F0F0
F0F0
ENDCHAR
STARTCHAR 201E
ENCODING 8222
SWIDTH 500 0
DWIDTH 16 0
BBX 14 6 0 -6
BITMAP
3C3C
3C3C
3C3C
3C3C
F0F0
F0F0
ENDCHAR
STARTCHAR 201F
ENCODING 8223
SWIDTH 500 0
DWIDTH 16 0
BBX 14 6 0 16
BITMAP
F0F0
F0F0
F0F0
F0F0
3C3C
3C3C
ENDCHAR
STARTCHAR 2020
ENCODING 8224
SWIDTH 500 0
DWIDTH 16 0
BBX 12 26 2 -4
BITMAP
0F00
0F00
0F00
0F00
0F00
0F00
0F00
0F00
FFF0
FFF0
0F00
0F00
0F00
0F00
0F00
0F00
0F00
0F00
0F00
0F00
0F00
0F00
0F00
0F00
0F00
0F00
ENDCHAR
STARTCHAR 2021
ENCODING 8225
SWIDTH 500 0
DWIDTH 16 0
BBX 12 26 2 -4
BITMAP
0F00
0F00
0F00
0F00
0F00
0F00
0F00
0F00
FFF0
FFF0
0F00
0F00
0F00
0F00
0F00
0F00
FFF0
FFF0
0F00
0F00
0F00
0F00
0F00
0F00
0F00
0F00
ENDCHAR
STARTCHAR 2022
ENCODING 8226
SWIDTH 500 0
DWIDTH 16 0
BBX 8 8 4 4
BITMAP
3C
3C
FF
FF
FF
FF
3C
3C
ENDCHAR
STARTCHAR 2026
ENCODING 8230
SWIDTH 500 0
DWIDTH 16 0
BBX 16 4 0 0
BITMAP
F3CF
F3CF
F3CF
F3CF
ENDCHAR
STARTCHAR 2027
ENCODING 8231
SWIDTH 500 0
DWIDTH 16 0
BBX 4 4 6 6
BITMAP
F0
F0
F0
F0
ENDCHAR
STARTCHAR 2030
ENCODING 8240
SWIDTH 500 0
DWIDTH 16 0
BBX 16 14 0 0
BITMAP
F03C
F03C
F0F0
F0F0
03C0
03C0
0F00
0F00
3C00
3C00
F3CF
F3CF
03CF
03CF
ENDCHAR
STARTCHAR 2032
ENCODING 8242
SWIDTH 500 0
DWIDTH 16 0
BBX 8 6 4 16
BITMAP
0F
0F
3C
3C
F0
F0
ENDCHAR
STARTCHAR 2033
ENCODING 8243
SWIDTH 500 0
DWIDTH 16 0
BBX 14 6 0 16
BITMAP
0F3C
0F3C
3CF0
3CF0
F3C0
F3C0
ENDCHAR
STARTCHAR 2035
ENCODING 8245
SWIDTH 500 0
DWIDTH 16 0
BBX 8 6 4 16
BITMAP
F0
F0
3C
3C
0F
0F
ENDCHAR
STARTCHAR 2039
ENCODING 8249
SWIDTH 500 0
DWIDTH 16 0
BBX 8 10 4 4
BITMAP
0F
0F
3C
3C
F0
F0
3C
3C
0F
0F
ENDCHAR
STARTCHAR 203A
ENCODING 8250
SWIDTH 500 0
DWIDTH 16 0
BBX 8 10 4 4
BITMAP
F0
F0
3C
3C
0F
0F
3C
3C
F0
F0
ENDCHAR
STARTCHAR 203C
ENCODING 8252
SWIDTH 500 0
DWIDTH 16 0
BBX 12 20 2 0
BITMAP
F0F0
F0F0
F0F0
F0F0
F0F0
F0F0
F0F0
F0F0
F0F0
F0F0
F0F0
F0F0
F0F0
F0F0
0000
0000
F0F0
F0F0
F0F0
F0F0
ENDCHAR
STARTCHAR 203E
ENCODING 8254
SWIDTH 500 0
DWIDTH 16 0
BBX 12 2 2 20
BITMAP
FFF0
FFF0
ENDCHAR
STARTCHAR 203F
ENCODING 8255
SWIDTH 500 0
DWIDTH 16 0
BBX 14 4 0 -6
BITMAP
F03C
F03C
3FF0
3FF0
ENDCHAR
STARTCHAR 2040
ENCODING 8256
SWIDTH 500 0
DWIDTH 16 0
BBX 14 4 0 18
BITMAP
3FF0
3FF0
F03C
F03C
ENDCHAR
STARTCHAR 2044
ENCODING 8260
SWIDTH 500 0
DWIDTH 16 0
BBX 14 16 0 0
BITMAP
000C
000C
003C
003C
00F0
00F0
03C0
03C0
0F00
0F00
3C00
3C00
F000
F000
C000
C000
ENDCHAR
STARTCHAR 2054
ENCODING 8276
SWIDTH 500 0
DWIDTH 16 0
BBX 14 4 0 -6
BITMAP
3FF0
3FF0
F03C
F03C
ENDCHAR
STARTCHAR 2074
ENCODING 8308
SWIDTH 500 0
DWIDTH 16 0
BBX 10 12 0 10
BITMAP
03C0
03C0
0FC0
0FC0
33C0
33C0
FFC0
FFC0
03C0
03C0
03C0
03C0
ENDCHAR
STARTCHAR 2075
ENCODING 8309
SWIDTH 500 0
DWIDTH 16 0
BBX 10 12 0 10
BITMAP
FFC0
FFC0
F000
F000
FF00
FF00
03C0
03C0
03C0
03C0
FF00
FF00
ENDCHAR
STARTCHAR 2076
ENCODING 8310
SWIDTH 500 0
DWIDTH 16 0
BBX 10 12 0 10
BITMAP
3F00
3F00
F000
F000
FF00
FF00
F3C0
F3C0
F3C0
F3C0
3F00
3F00
ENDCHAR
STARTCHAR 2077
ENCODING 8311
SWIDTH 500 0
DWIDTH 16 0
BBX 10 12 0 10
BITMAP
FFC0
FFC0
C3C0
C3C0
0F00
0F00
3C00
3C00
3C00
3C00
3C00
3C00
ENDCHAR
STARTCHAR 2078
ENCODING 8312
SWIDTH 500 0
DWIDTH 16 0
BBX 10 12 0 10
BITMAP
3F00
3F00
F3C0
F3C0
3F00
3F00
F3C0
F3C0
F3C0
F3C0
3F00
3F00
ENDCHAR
STARTCHAR 2079
ENCODING 8313
SWIDTH 500 0
DWIDTH 16 0
BBX 10 12 0 10
BITMAP
3F00
3F00
F3C0
F3C0
F3C0
F3C0
3FC0
3FC0
03C0
03C0
3F00
3F00
ENDCHAR
STARTCHAR 207A
ENCODING 8314
SWIDTH 500 0
DWIDTH 16 0
BBX 12 10 0 12
BITMAP
0F00
0F00
0F00
0F00
FFF0
FFF0
0F00
0F00
0F00
0F00
ENDCHAR
STARTCHAR 207B
ENCODING 8315
SWIDTH 500 0
DWIDTH 16 0
BBX 10 2 2 16
BITMAP
FFC0
FFC0
ENDCHAR
STARTCHAR 207F
ENCODING 8319
SWIDTH 500 0
DWIDTH 16 0
BBX 12 12 0 10
BITMAP
F3C0
F3C0
3CF0
3CF0
3CF0
3CF0
3CF0
3CF0
3CF0
3CF0
3CF0
3CF0
ENDCHAR
STARTCHAR 2081
ENCODING 8321
SWIDTH 500 0
DWIDTH 16 0
BBX 8 12 2 -6
BITMAP
3C
3C
FC
FC
3C
3C
3C
3C
3C
3C
FF
FF
ENDCHAR
STARTCHAR 2082
ENCODING 8322
SWIDTH 500 0
DWIDTH 16 0
BBX 10 12 0 -6
BITMAP
3F00
3F00
F3C0
F3C0
0F00
0F00
3C00
3C00
F0C0
F0C0
FFC0
FFC0
ENDCHAR
STARTCHAR 2083
ENCODING 8323
SWIDTH 500 0
DWIDTH 16 0
BBX 10 12 0 -6
BITMAP
FF00
FF00
03C0
03C0
3F00
3F00
03C0
03C0
03C0
03C0
FF00
FF00
ENDCHAR
STARTCHAR 2084
ENCODING 8324
SWIDTH 500 0
DWIDTH 16 0
BBX 10 12 0 -6
BITMAP
03C0
03C0
0FC0
0FC0
33C0
33C0
FFC0
FFC0
03C0
03C0
03C0
03C0
ENDCHAR
STARTCHAR 2085
ENCODING 8325
SWIDTH 500 0
DWIDTH 16 0
BBX 10 12 0 -6
BITMAP
FFC0
FFC0
F000
F000
FF00
FF00
03C0
03C0
03C0
03C0
FF00
FF00
ENDCHAR
STARTCHAR 2086
ENCODING 8326
SWIDTH 500 0
DWIDTH 16 0
BBX 10 12 0 -6
BITMAP
3F00
3F00
F000
F000
FF00
FF00
F3C0
F3C0
F3C0
F3C0
3F00
3F00
ENDCHAR
STARTCHAR 2087
ENCODING 8327
SWIDTH 500 0
DWIDTH 16 0
BBX 10 12 0 -6
BITMAP
FFC0
FFC0
C3C0
C3C0
0F00
0F00
3C00
3C00
3C00
3C00
3C00
3C00
ENDCHAR
STARTCHAR 2088
ENCODING 8328
SWIDTH 500 0
DWIDTH 16 0
BBX 10 12 0 -6
BITMAP
3F00
3F00
F3C0
F3C0
3F00
3F00
F3C0
F3C0
F3C0
F3C0
3F00
3F00
ENDCHAR
STARTCHAR 2089
ENCODING 8329
SWIDTH 500 0
DWIDTH 16 0
BBX 10 12 0 -6
BITMAP
3F00
3F00
F3C0
F3C0
F3C0
F3C0
3FC0
3FC0
03C0
03C0
3F00
3F00
ENDCHAR
STARTCHAR 208A
ENCODING 8330
SWIDTH 500 0
DWIDTH 16 0
BBX 12 10 0 -6
BITMAP
0F00
0F00
0F00
0F00
FFF0
FFF0
0F00
0F00
0F00
0F00
ENDCHAR
STARTCHAR 208B
ENCODING 8331
SWIDTH 500 0
DWIDTH 16 0
BBX 10 2 2 -2
BITMAP
FFC0
FFC0
ENDCHAR
STARTCHAR 20A3
ENCODING 8355
SWIDTH 500 0
DWIDTH 16 0
BBX 14 20 0 0
BITMAP
FFFC
FFFC
3C3C
3C3C
3C0C
3C0C
3CC0
3CC0
3FC0
3FC0
3CC0
3CC0
3C00
3C00
FF00
FF00
3C00
3C00
FF00
FF00
ENDCHAR
STARTCHAR 20A4
ENCODING 8356
SWIDTH 500 0
DWIDTH 16 0
BBX 14 22 0 0
BITMAP
0FC0
0FC0
3CF0
3CF0
3C30
3C30
3C00
3C00
FF00
FF00
3C00
3C00
FF00
FF00
3C00
3C00
3C00
3C00
FC3C
FC3C
FFF0
FFF0
ENDCHAR
STARTCHAR 20A7
ENCODING 8359
SWIDTH 500 0
DWIDTH 16 0
BBX 14 22 0 0
BITMAP
FFC0
FFC0
F0F0
F0F0
F0F0
F0F0
FFC0
FFC0
F030
F030
F0F0
F0F0
F3FC
F3FC
F0F0
F0F0
F0F0
F0F0
F0F0
F0F0
F03C
F03C
ENDCHAR
STARTCHAR 20AA
ENCODING 8362
SWIDTH 500 0
DWIDTH 16 0
BBX 14 14 0 2
BITMAP
FFCC
FFCC
C0CC
C0CC
CCCC
CCCC
CCCC
CCCC
CCCC
CCCC
CC0C
CC0C
CFFC
CFFC
ENDCHAR
STARTCHAR 20AC
ENCODING 8364
SWIDTH 500 0
DWIDTH 16 0
BBX 14 18 0 0
BITMAP
03F0
03F0
0F3C
0F3C
3C00
3C00
FFF0
FFF0
3C00
3C00
FFC0
FFC0
3C00
3C00
0F3C
0F3C
03F0
03F0
ENDCHAR
STARTCHAR 2105
ENCODING 8453
SWIDTH 500 0
DWIDTH 16 0
BBX 14 26 0 -4
BITMAP
3C00
3C00
F300
F300
F00C
F00C
F33C
F33C
3CF0
3CF0
03C0
03C0
0F00
0F00
3C00
3C00
F3F0
F3F0
CF3C
CF3C
0F3C
0F3C
0F3C
0F3C
03F0
03F0
ENDCHAR
STARTCHAR 2113
ENCODING 8467
SWIDTH 500 0
DWIDTH 16 0
BBX 12 20 2 0
BITMAP
0C00
0C00
3F00
3F00
F3C0
F3C0
F3C0
F3C0
F3C0
F3C0
F3C0
F3C0
3F00
3F00
3C00
3C00
CF30
CF30
03C0
03C0
ENDCHAR
STARTCHAR 2116
ENCODING 8470
SWIDTH 500 0
DWIDTH 16 0
BBX 16 20 0 0
BITMAP
C0FF
C0FF
F0F3
F0F3
FCF3
FCF3
FFFF
FFFF
FFF0
FFF0
F3FF
F3FF
F0F0
F0F0
F0F0
F0F0
F0F0
F0F0
F0F0
F0F0
ENDCHAR
STARTCHAR 2122
ENCODING 8482
SWIDTH 500 0
DWIDTH 16 0
BBX 16 10 0 12
BITMAP
FF03
FF03
33CF
33CF
3333
3333
3303
3303
3303
3303
ENDCHAR
STARTCHAR 2126
ENCODING 8486
SWIDTH 500 0
DWIDTH 16 0
BBX 14 20 0 0
BITMAP
0FC0
0FC0
3CF0
3CF0
F03C
F03C
F03C
F03C
F03C
F03C
3CF0
3CF0
3CF0
3CF0
3CF0
3CF0
3CF0
3CF0
FCFC
FCFC
ENDCHAR
STARTCHAR 212E
ENCODING 8494
SWIDTH 500 0
DWIDTH 16 0
BBX 14 14 0 0
BITMAP
3FF0
3FF0
F03C
F03C
FFFC
FFFC
F000
F000
F000
F000
F03C
F03C
3FF0
3FF0
ENDCHAR
STARTCHAR 2150
ENCODING 8528
SWIDTH 500 0
DWIDTH 16 0
BBX 14 26 0 -4
BITMAP
F000
F000
F000
F000
F00C
F00C
F03C
F03C
F0F0
F0F0
03C0
03C0
0F00
0F00
3C00
3C00
F3FC
F3FC
C03C
C03C
00F0
00F0
03C0
03C0
03C0
03C0
ENDCHAR
STARTCHAR 2151
ENCODING 8529
SWIDTH 500 0
DWIDTH 16 0
BBX 14 26 0 -4
BITMAP
F000
F000
F000
F000
F00C
F00C
F03C
F03C
F0F0
F0F0
03C0
03C0
0F00
0F00
3C00
3C00
F3F0
F3F0
CF3C
CF3C
03FC
03FC
003C
003C
03F0
03F0
ENDCHAR
STARTCHAR 2153
ENCODING 8531
SWIDTH 500 0
DWIDTH 16 0
BBX 14 26 0 -4
BITMAP
F000
F000
F000
F000
F00C
F00C
F03C
F03C
F0F0
F0F0
03C0
03C0
0F00
0F00
3C00
3C00
F3F0
F3F0
C03C
C03C
03F0
03F0
003C
003C
03F0
03F0
ENDCHAR
STARTCHAR 2154
ENCODING 8532
SWIDTH 500 0
DWIDTH 16 0
BBX 14 26 0 -4
BITMAP
FC00
FC00
0F00
0F00
3C0C
3C0C
F03C
F03C
FFF0
FFF0
03C0
03C0
0F00
0F00
3C00
3C00
F3F0
F3F0
C03C
C03C
03F0
03F0
003C
003C
03F0
03F0
ENDCHAR
STARTCHAR 2155
ENCODING 8533
SWIDTH 500 0
DWIDTH 16 0
BBX 14 26 0 -4
BITMAP
F000
F000
F000
F000
F00C
F00C
F03C
F03C
F0F0
F0F0
03C0
03C0
0F00
0F00
3C00
3C00
F3FC
F3FC
C3C0
C3C0
03F0
03F0
003C
003C
03F0
03F0
ENDCHAR
STARTCHAR 2156
ENCODING 8534
SWIDTH 500 0
DWIDTH 16 0
BBX 14 26 0 -4
BITMAP
FC00
FC00
0F00
0F00
3C0C
3C0C
F03C
F03C
FFF0
FFF0
03C0
03C0
0F00
0F00
3C00
3C00
F3FC
F3FC
C3C0
C3C0
03F0
03F0
003C
003C
03F0
03F0
ENDCHAR
STARTCHAR 2157
ENCODING 8535
SWIDTH 500 0
DWIDTH 16 0
BBX 14 26 0 -4
BITMAP
FC00
FC00
0F00
0F00
FC0C
FC0C
0F3C
0F3C
FCF0
FCF0
03C0
03C0
0F00
0F00
3C00
3C00
F3FC
F3FC
C3C0
C3C0
03F0
03F0
003C
003C
03F0
03F0
ENDCHAR
STARTCHAR 2158
ENCODING 8536
SWIDTH 500 0
DWIDTH 16 0
BBX 14 26 0 -4
BITMAP
0F00
0F00
3F00
3F00
CF0C
CF0C
FF3C
FF3C
0FF0
0FF0
03C0
03C0
0F00
0F00
3C00
3C00
F3FC
F3FC
C3C0
C3C0
03F0
03F0
003C
003C
03F0
03F0
ENDCHAR
STARTCHAR 2159
ENCODING 8537
SWIDTH 500 0
DWIDTH 16 0
BBX 14 26 0 -4
BITMAP
F000
F000
F000
F000
F00C
F00C
F03C
F03C
F0F0
F0F0
03C0
03C0
0F00
0F00
3C00
3C00
F3F0
F3F0
CF00
CF00
0FF0
0FF0
0F3C
0F3C
03F0
03F0
ENDCHAR
STARTCHAR 215A
ENCODING 8538
SWIDTH 500 0
DWIDTH 16 0
BBX 14 26 0 -4
BITMAP
FF00
FF00
F000
F000
FC0C
FC0C
0F3C
0F3C
FCF0
FCF0
03C0
03C0
0F00
0F00
3C00
3C00
F3F0
F3F0
CF00
CF00
0FF0
0FF0
0F3C
0F3C
03F0
03F0
ENDCHAR
STARTCHAR 215B
ENCODING 8539
SWIDTH 500 0
DWIDTH 16 0
BBX 14 26 0 -4
BITMAP
F000
F000
F000
F000
F00C
F00C
F03C
F03C
F0F0
F0F0
03C0
03C0
0F00
0F00
3C00
3C00
F3F0
F3F0
CF3C
CF3C
03F0
03F0
0F3C
0F3C
03F0
03F0
ENDCHAR
STARTCHAR 215C
ENCODING 8540
SWIDTH 500 0
DWIDTH 16 0
BBX 14 26 0 -4
BITMAP
FC00
FC00
0F00
0F00
FC0C
FC0C
0F3C
0F3C
FCF0
FCF0
03C0
03C0
0F00
0F00
3C00
3C00
F3F0
F3F0
CF3C
CF3C
03F0
03F0
0F3C
0F3C
03F0
03F0
ENDCHAR
STARTCHAR 215D
ENCODING 8541
SWIDTH 500 0
DWIDTH 16 0
BBX 14 26 0 -4
BITMAP
FF00
FF00
F000
F000
FC0C
FC0C
0F3C
0F3C
FCF0
FCF0
03C0
03C0
0F00
0F00
3C00
3C00
F3F0
F3F0
CF3C
CF3C
03F0
03F0
0F3C
0F3C
03F0
03F0
ENDCHAR
STARTCHAR 215E
ENCODING 8542
SWIDTH 500 0
DWIDTH 16 0
BBX 14 26 0 -4
BITMAP
FF00
FF00
0F00
0F00
3C0C
3C0C
F03C
F03C
F0F0
F0F0
03C0
03C0
0F00
0F00
3C00
3C00
F3F0
F3F0
CF3C
CF3C
03F0
03F0
0F3C
0F3C
03F0
03F0
ENDCHAR
STARTCHAR 2190
ENCODING 8592
SWIDTH 500 0
DWIDTH 16 0
BBX 14 10 0 4
BITMAP
0F00
0F00
3C00
3C00
FFFC
FFFC
3C00
3C00
0F00
0F00
ENDCHAR
STARTCHAR 2191
ENCODING 8593
SWIDTH 500 0
DWIDTH 16 0
BBX 12 20 2 0
BITMAP
0F00
0F00
3FC0
3FC0
FFF0
FFF0
0F00
0F00
0F00
0F00
0F00
0F00
0F00
0F00
0F00
0F00
0F00
0F00
0F00
0F00
ENDCHAR
STARTCHAR 2192
ENCODING 8594
SWIDTH 500 0
DWIDTH 16 0
BBX 14 10 0 4
BITMAP
03C0
03C0
00F0
00F0
FFFC
FFFC
00F0
00F0
03C0
03C0
ENDCHAR
STARTCHAR 2193
ENCODING 8595
SWIDTH 500 0
DWIDTH 16 0
BBX 12 20 2 0
BITMAP
0F00
0F00
0F00
0F00
0F00
0F00
0F00
0F00
0F00
0F00
0F00
0F00
0F00
0F00
FFF0
FFF0
3FC0
3FC0
0F00
0F00
ENDCHAR
STARTCHAR 2194
ENCODING 8596
SWIDTH 500 0
DWIDTH 16 0
BBX 14 10 0 4
BITMAP
0CC0
0CC0
3CF0
3CF0
FFFC
FFFC
3CF0
3CF0
0CC0
0CC0
ENDCHAR
STARTCHAR 2195
ENCODING 8597
SWIDTH 500 0
DWIDTH 16 0
BBX 12 18 2 2
BITMAP
0F00
0F00
3FC0
3FC0
FFF0
FFF0
0F00
0F00
0F00
0F00
0F00
0F00
FFF0
FFF0
3FC0
3FC0
0F00
0F00
ENDCHAR
STARTCHAR 21A8
ENCODING 8616
SWIDTH 500 0
DWIDTH 16 0
BBX 12 20 2 0
BITMAP
0F00
0F00
3FC0
3FC0
FFF0
FFF0
0F00
0F00
0F00
0F00
0F00
0F00
FFF0
FFF0
3FC0
3FC0
0F00
0F00
FFF0
FFF0
ENDCHAR
STARTCHAR 2202
ENCODING 8706
SWIDTH 500 0
DWIDTH 16 0
BBX 14 20 0 0
BITMAP
0FC0
0FC0
3CF0
3CF0
003C
003C
003C
003C
0FFC
0FFC
3C3C
3C3C
F03C
F03C
F03C
F03C
F0F0
F0F0
3FC0
3FC0
ENDCHAR
STARTCHAR 2205
ENCODING 8709
SWIDTH 500 0
DWIDTH 16 0
BBX 16 18 0 0
BITMAP
000F
000F
003C
003C
3FFC
3FFC
F3CF
F3CF
F3CF
F3CF
FF0F
FF0F
3FFC
3FFC
3C00
3C00
F000
F000
ENDCHAR
STARTCHAR 2206
ENCODING 8710
SWIDTH 500 0
DWIDTH 16 0
BBX 14 16 0 2
BITMAP
0300
0300
0FC0
0FC0
3CF0
3CF0
F03C
F03C
F03C
F03C
F03C
F03C
F03C
F03C
FFFC
FFFC
ENDCHAR
STARTCHAR 2208
ENCODING 8712
SWIDTH 500 0
DWIDTH 16 0
BBX 10 20 2 0
BITMAP
0FC0
0FC0
3C00
3C00
F000
F000
F000
F000
FFC0
FFC0
F000
F000
F000
F000
F000
F000
3C00
3C00
0FC0
0FC0
ENDCHAR
STARTCHAR 220F
ENCODING 8719
SWIDTH 500 0
DWIDTH 16 0
BBX 14 24 0 -4
BITMAP
FFFC
FFFC
F03C
F03C
F03C
F03C
F03C
F03C
F03C
F03C
F03C
F03C
F03C
F03C
F03C
F03C
F03C
F03C
F03C
F03C
F03C
F03C
F03C
F03C
ENDCHAR
STARTCHAR 2211
ENCODING 8721
SWIDTH 500 0
DWIDTH 16 0
BBX 14 18 0 0
BITMAP
FFFC
FFFC
F03C
F03C
3C00
3C00
0F00
0F00
03C0
03C0
0F00
0F00
3C00
3C00
F03C
F03C
FFFC
FFFC
ENDCHAR
STARTCHAR 2212
ENCODING 8722
SWIDTH 500 0
DWIDTH 16 0
BBX 14 2 0 8
BITMAP
FFFC
FFFC
ENDCHAR
STARTCHAR 2215
ENCODING 8725
SWIDTH 500 0
DWIDTH 16 0
BBX 14 16 0 0
BITMAP
000C
000C
003C
003C
00F0
00F0
03C0
03C0
0F00
0F00
3C00
3C00
F000
F000
C000
C000
ENDCHAR
STARTCHAR 2219
ENCODING 8729
SWIDTH 500 0
DWIDTH 16 0
BBX 4 4 6 6
BITMAP
F0
F0
F0
F0
ENDCHAR
STARTCHAR 221A
ENCODING 8730
SWIDTH 500 0
DWIDTH 16 0
BBX 16 22 0 0
BITMAP
00FF
00FF
00F0
00F0
00F0
00F0
00F0
00F0
00F0
00F0
00F0
00F0
FCF0
FCF0
3CF0
3CF0
3CF0
3CF0
0FF0
0FF0
03F0
03F0
ENDCHAR
STARTCHAR 221E
ENCODING 8734
SWIDTH 500 0
DWIDTH 16 0
BBX 16 10 0 4
BITMAP
3FFC
3FFC
F3CF
F3CF
F3CF
F3CF
F3CF
F3CF
3FFC
3FFC
ENDCHAR
STARTCHAR 221F
ENCODING 8735
SWIDTH 500 0
DWIDTH 16 0
BBX 14 8 0 4
BITMAP
F000
F000
F000
F000
F000
F000
FFFC
FFFC
ENDCHAR
STARTCHAR 2229
ENCODING 8745
SWIDTH 500 0
DWIDTH 16 0
BBX 14 18 0 0
BITMAP
3FF0
3FF0
F03C
F03C
F03C
F03C
F03C
F03C
F03C
F03C
F03C
F03C
F03C
F03C
F03C
F03C
F03C
F03C
ENDCHAR
STARTCHAR 222B
ENCODING 8747
SWIDTH 500 0
DWIDTH 16 0
BBX 16 32 0 -8
BITMAP
00FC
00FC
03CF
03CF
03CF
03CF
03C0
03C0
03C0
03C0
03C0
03C0
03C0
03C0
03C0
03C0
03C0
03C0
03C0
03C0
03C0
03C0
03C0
03C0
F3C0
F3C0
F3C0
F3C0
F3C0
F3C0
3F00
3F00
ENDCHAR
STARTCHAR 2248
ENCODING 8776
SWIDTH 500 0
DWIDTH 16 0
BBX 14 10 0 4
BITMAP
3F3C
3F3C
F3F0
F3F0
0000
0000
3F3C
3F3C
F3F0
F3F0
ENDCHAR
STARTCHAR 2260
ENCODING 8800
SWIDTH 500 0
DWIDTH 16 0
BBX 14 16 0 2
BITMAP
003C
003C
00F0
00F0
FFFC
FFFC
03C0
03C0
0F00
0F00
FFFC
FFFC
3C00
3C00
F000
F000
ENDCHAR
STARTCHAR 2261
ENCODING 8801
SWIDTH 500 0
DWIDTH 16 0
BBX 14 14 0 2
BITMAP
FFFC
FFFC
0000
0000
0000
0000
FFFC
FFFC
0000
0000
0000
0000
FFFC
FFFC
ENDCHAR
STARTCHAR 2264
ENCODING 8804
SWIDTH 500 0
DWIDTH 16 0
BBX 12 18 2 0
BITMAP
03C0
03C0
0F00
0F00
3C00
3C00
F000
F000
3C00
3C00
0F00
0F00
03C0
03C0
0000
0000
FFF0
FFF0
ENDCHAR
STARTCHAR 2265
ENCODING 8805
SWIDTH 500 0
DWIDTH 16 0
BBX 12 18 2 0
BITMAP
3C00
3C00
0F00
0F00
03C0
03C0
00F0
00F0
03C0
03C0
0F00
0F00
3C00
3C00
0000
0000
FFF0
FFF0
ENDCHAR
STARTCHAR 2299
ENCODING 8857
SWIDTH 500 0
DWIDTH 16 0
BBX 14 20 0 0
BITMAP
3FF0
3FF0
F03C
F03C
F03C
F03C
F03C
F03C
F33C
F33C
F33C
F33C
F03C
F03C
F03C
F03C
F03C
F03C
3FF0
3FF0
ENDCHAR
STARTCHAR 2300
ENCODING 8960
SWIDTH 500 0
DWIDTH 16 0
BBX 14 20 0 0
BITMAP
3FF0
3FF0
F03C
F03C
F03C
F03C
F0FC
F0FC
F3FC
F3FC
FF3C
FF3C
FC3C
FC3C
F03C
F03C
F03C
F03C
3FF0
3FF0
ENDCHAR
STARTCHAR 2302
ENCODING 8962
SWIDTH 500 0
DWIDTH 16 0
BBX 14 14 0 2
BITMAP
0300
0300
0FC0
0FC0
3CF0
3CF0
F03C
F03C
F03C
F03C
F03C
F03C
FFFC
FFFC
ENDCHAR
STARTCHAR 2310
ENCODING 8976
SWIDTH 500 0
DWIDTH 16 0
BBX 14 10 0 2
BITMAP
FFFC
FFFC
F000
F000
F000
F000
F000
F000
F000
F000
ENDCHAR
STARTCHAR 2320
ENCODING 8992
SWIDTH 500 0
DWIDTH 16 0
BBX 10 28 6 -8
BITMAP
3F00
3F00
F3C0
F3C0
F3C0
F3C0
F000
F000
F000
F000
F000
F000
F000
F000
F000
F000
F000
F000
F000
F000
F000
F000
F000
F000
F000
F000
F000
F000
ENDCHAR
STARTCHAR 2321
ENCODING 8993
SWIDTH 500 0
DWIDTH 16 0
BBX 10 24 0 0
BITMAP
03C0
03C0
03C0
03C0
03C0
03C0
03C0
03C0
03C0
03C0
03C0
03C0
03C0
03C0
03C0
03C0
F3C0
F3C0
F3C0
F3C0
F3C0
F3C0
3F00
3F00
ENDCHAR
STARTCHAR 2500
ENCODING 9472
SWIDTH 500 0
DWIDTH 16 0
BBX 16 2 0 8
BITMAP
FFFF
FFFF
ENDCHAR
STARTCHAR 2502
ENCODING 9474
SWIDTH 500 0
DWIDTH 16 0
BBX 4 32 6 -8
BITMAP
F0
F0
F0
F0
F0
F0
F0
F0
F0
F0
F0
F0
F0
F0
F0
F0
F0
F0
F0
F0
F0
F0
F0
F0
F0
F0
F0
F0
F0
F0
F0
F0
ENDCHAR
STARTCHAR 250C
ENCODING 9484
SWIDTH 500 0
DWIDTH 16 0
BBX 10 18 6 -8
BITMAP
FFC0
FFC0
F000
F000
F000
F000
F000
F000
F000
F000
F000
F000
F000
F000
F000
F000
F000
F000
ENDCHAR
STARTCHAR 2510
ENCODING 9488
SWIDTH 500 0
DWIDTH 16 0
BBX 10 18 0 -8
BITMAP
FFC0
FFC0
03C0
03C0
03C0
03C0
03C0
03C0
03C0
03C0
03C0
03C0
03C0
03C0
03C0
03C0
03C0
03C0
ENDCHAR
STARTCHAR 2514
ENCODING 9492
SWIDTH 500 0
DWIDTH 16 0
BBX 10 16 6 8
BITMAP
F000
F000
F000
F000
F000
F000
F000
F000
F000
F000
F000
F000
F000
F000
FFC0
FFC0
ENDCHAR
STARTCHAR 2518
ENCODING 9496
SWIDTH 500 0
DWIDTH 16 0
BBX 10 16 0 8
BITMAP
03C0
03C0
03C0
03C0
03C0
03C0
03C0
03C0
03C0
03C0
03C0
03C0
03C0
03C0
FFC0
FFC0
ENDCHAR
STARTCHAR 251C
ENCODING 9500
SWIDTH 500 0
DWIDTH 16 0
BBX 10 32 6 -8
BITMAP
F000
F000
F000
F000
F000
F000
F000
F000
F000
F000
F000
F000
F000
F000
FFC0
FFC0
F000
F000
F000
F000
F000
F000
F000
F000
F000
F000
F000
F000
F000
F000
F000
F000
ENDCHAR
STARTCHAR 2524
ENCODING 9508
SWIDTH 500 0
DWIDTH 16 0
BBX 10 32 0 -8
BITMAP
03C0
03C0
03C0
03C0
03C0
03C0
03C0
03C0
03C0
03C0
03C0
03C0
03C0
03C0
FFC0
FFC0
03C0
03C0
03C0
03C0
03C0
03C0
03C0
03C0
03C0
03C0
03C0
03C0
03C0
03C0
03C0
03C0
ENDCHAR
STARTCHAR 252C
ENCODING 9516
SWIDTH 500 0
DWIDTH 16 0
BBX 16 18 0 -8
BITMAP
FFFF
FFFF
03C0
03C0
03C0
03C0
03C0
03C0
03C0
03C0
03C0
03C0
03C0
03C0
03C0
03C0
03C0
03C0
ENDCHAR
STARTCHAR 2534
ENCODING 9524
SWIDTH 500 0
DWIDTH 16 0
BBX 16 16 0 8
BITMAP
03C0
03C0
03C0
03C0
03C0
03C0
03C0
03C0
03C0
03C0
03C0
03C0
03C0
03C0
FFFF
FFFF
ENDCHAR
STARTCHAR 253C
ENCODING 9532
SWIDTH 500 0
DWIDTH 16 0
BBX 16 32 0 -8
BITMAP
03C0
03C0
03C0
03C0
03C0
03C0
03C0
03C0
03C0
03C0
03C0
03C0
03C0
03C0
FFFF
FFFF
03C0
03C0
03C0
03C0
03C0
03C0
03C0
03C0
03C0
03C0
03C0
03C0
03C0
03C0
03C0
03C0
ENDCHAR
STARTCHAR 2550
ENCODING 9552
SWIDTH 500 0
DWIDTH 16 0
BBX 16 6 0 8
BITMAP
FFFF
FFFF
0000
0000
FFFF
FFFF
ENDCHAR
STARTCHAR 2551
ENCODING 9553
SWIDTH 500 0
DWIDTH 16 0
BBX 10 32 4 -8
BITMAP
F3C0
F3C0
F3C0
F3C0
F3C0
F3C0
F3C0
F3C0
F3C0
F3C0
F3C0
F3C0
F3C0
F3C0
F3C0
F3C0
F3C0
F3C0
F3C0
F3C0
F3C0
F3C0
F3C0
F3C0
F3C0
F3C0
F3C0
F3C0
F3C0
F3C0
F3C0
F3C0
ENDCHAR
STARTCHAR 2552
ENCODING 9554
SWIDTH 500 0
DWIDTH 16 0
BBX 10 22 6 -8
BITMAP
FFC0
FFC0
F000
F000
FFC0
FFC0
F000
F000
F000
F000
F000
F000
F000
F000
F000
F000
F000
F000
F000
F000
F000
F000
ENDCHAR
STARTCHAR 2553
ENCODING 9555
SWIDTH 500 0
DWIDTH 16 0
BBX 12 18 4 -8
BITMAP
FFF0
FFF0
F3C0
F3C0
F3C0
F3C0
F3C0
F3C0
F3C0
F3C0
F3C0
F3C0
F3C0
F3C0
F3C0
F3C0
F3C0
F3C0
ENDCHAR
STARTCHAR 2554
ENCODING 9556
SWIDTH 500 0
DWIDTH 16 0
BBX 12 22 4 -8
BITMAP
FFF0
FFF0
F000
F000
F3F0
F3F0
F3C0
F3C0
F3C0
F3C0
F3C0
F3C0
F3C0
F3C0
F3C0
F3C0
F3C0
F3C0
F3C0
F3C0
F3C0
F3C0
ENDCHAR
STARTCHAR 2555
ENCODING 9557
SWIDTH 500 0
DWIDTH 16 0
BBX 10 22 0 -8
BITMAP
FFC0
FFC0
03C0
03C0
FFC0
FFC0
03C0
03C0
03C0
03C0
03C0
03C0
03C0
03C0
03C0
03C0
03C0
03C0
03C0
03C0
03C0
03C0
ENDCHAR
STARTCHAR 2556
ENCODING 9558
SWIDTH 500 0
DWIDTH 16 0
BBX 14 18 0 -8
BITMAP
FFFC
FFFC
0F3C
0F3C
0F3C
0F3C
0F3C
0F3C
0F3C
0F3C
0F3C
0F3C
0F3C
0F3C
0F3C
0F3C
0F3C
0F3C
ENDCHAR
STARTCHAR 2557
ENCODING 9559
SWIDTH 500 0
DWIDTH 16 0
BBX 14 22 0 -8
BITMAP
FFFC
FFFC
003C
003C
FF3C
FF3C
0F3C
0F3C
0F3C
0F3C
0F3C
0F3C
0F3C
0F3C
0F3C
0F3C
0F3C
0F3C
0F3C
0F3C
0F3C
0F3C
ENDCHAR
STARTCHAR 2558
ENCODING 9560
SWIDTH 500 0
DWIDTH 16 0
BBX 10 16 6 8
BITMAP
F000
F000
F000
F000
F000
F000
F000
F000
F000
F000
FFC0
FFC0
F000
F000
FFC0
FFC0
ENDCHAR
STARTCHAR 2559
ENCODING 9561
SWIDTH 500 0
DWIDTH 16 0
BBX 12 16 4 8
BITMAP
F3C0
F3C0
F3C0
F3C0
F3C0
F3C0
F3C0
F3C0
F3C0
F3C0
F3C0
F3C0
F3C0
F3C0
FFF0
FFF0
ENDCHAR
STARTCHAR 255A
ENCODING 9562
SWIDTH 500 0
DWIDTH 16 0
BBX 12 16 4 8
BITMAP
F3C0
F3C0
F3C0
F3C0
F3C0
F3C0
F3C0
F3C0
F3C0
F3C0
F3F0
F3F0
F000
F000
FFF0
FFF0
ENDCHAR
STARTCHAR 255B
ENCODING 9563
SWIDTH 500 0
DWIDTH 16 0
BBX 10 16 0 8
BITMAP
03C0
03C0
03C0
03C0
03C0
03C0
03C0
03C0
03C0
03C0
FFC0
FFC0
03C0
03C0
FFC0
FFC0
ENDCHAR
STARTCHAR 255C
ENCODING 9564
SWIDTH 500 0
DWIDTH 16 0
BBX 14 16 0 8
BITMAP
0F3C
0F3C
0F3C
0F3C
0F3C
0F3C
0F3C
0F3C
0F3C
0F3C
0F3C
0F3C
0F3C
0F3C
FFFC
FFFC
ENDCHAR
STARTCHAR 255D
ENCODING 9565
SWIDTH 500 0
DWIDTH 16 0
BBX 14 16 0 8
BITMAP
0F3C
0F3C
0F3C
0F3C
0F3C
0F3C
0F3C
0F3C
0F3C
0F3C
FF3C
FF3C
003C
003C
FFFC
FFFC
ENDCHAR
STARTCHAR 255E
ENCODING 9566
SWIDTH 500 0
DWIDTH 16 0
BBX 10 32 6 -8
BITMAP
F000
F000
F000
F000
F000
F000
F000
F000
F000
F000
FFC0
FFC0
F000
F000
FFC0
FFC0
F000
F000
F000
F000
F000
F000
F000
F000
F000
F000
F000
F000
F000
F000
F000
F000
ENDCHAR
STARTCHAR 255F
ENCODING 9567
SWIDTH 500 0
DWIDTH 16 0
BBX 12 32 4 -8
BITMAP
F3C0
F3C0
F3C0
F3C0
F3C0
F3C0
F3C0
F3C0
F3C0
F3C0
F3C0
F3C0
F3C0
F3C0
F3F0
F3F0
F3C0
F3C0
F3C0
F3C0
F3C0
F3C0
F3C0
F3C0
F3C0
F3C0
F3C0
F3C0
F3C0
F3C0
F3C0
F3C0
ENDCHAR
STARTCHAR 2560
ENCODING 9568
SWIDTH 500 0
DWIDTH 16 0
BBX 12 32 4 -8
BITMAP
F3C0
F3C0
F3C0
F3C0
F3C0
F3C0
F3C0
F3C0
F3C0
F3C0
F3F0
F3F0
F000
F000
F3F0
F3F0
F3C0
F3C0
F3C0
F3C0
F3C0
F3C0
F3C0
F3C0
F3C0
F3C0
F3C0
F3C0
F3C0
F3C0
F3C0
F3C0
ENDCHAR
STARTCHAR 2561
ENCODING 9569
SWIDTH 500 0
DWIDTH 16 0
BBX 10 32 0 -8
BITMAP
03C0
03C0
03C0
03C0
03C0
03C0
03C0
03C0
03C0
03C0
FFC0
FFC0
03C0
03C0
FFC0
FFC0
03C0
03C0
03C0
03C0
03C0
03C0
03C0
03C0
03C0
03C0
03C0
03C0
03C0
03C0
03C0
03C0
ENDCHAR
STARTCHAR 2562
ENCODING 9570
SWIDTH 500 0
DWIDTH 16 0
BBX 14 32 0 -8
BITMAP
0F3C
0F3C
0F3C
0F3C
0F3C
0F3C
0F3C
0F3C
0F3C
0F3C
0F3C
0F3C
0F3C
0F3C
FF3C
FF3C
0F3C
0F3C
0F3C
0F3C
0F3C
0F3C
0F3C
0F3C
0F3C
0F3C
0F3C
0F3C
0F3C
0F3C
0F3C
0F3C
ENDCHAR
STARTCHAR 2563
ENCODING 9571
SWIDTH 500 0
DWIDTH 16 0
BBX 14 32 0 -8
BITMAP
0F3C
0F3C
0F3C
0F3C
0F3C
0F3C
0F3C
0F3C
0F3C
0F3C
FF3C
FF3C
003C
003C
FF3C
FF3C
0F3C
0F3C
0F3C
0F3C
0F3C
0F3C
0F3C
0F3C
0F3C
0F3C
0F3C
0F3C
0F3C
0F3C
0F3C
0F3C
ENDCHAR
STARTCHAR 2564
ENCODING 9572
SWIDTH 500 0
DWIDTH 16 0
BBX 16 22 0 -8
BITMAP
FFFF
FFFF
0000
0000
FFFF
FFFF
03C0
03C0
03C0
03C0
03C0
03C0
03C0
03C0
03C0
03C0
03C0
03C0
03C0
03C0
03C0
03C0
ENDCHAR
STARTCHAR 2565
ENCODING 9573
SWIDTH 500 0
DWIDTH 16 0
BBX 16 18 0 -8
BITMAP
FFFF
FFFF
0F3C
0F3C
0F3C
0F3C
0F3C
0F3C
0F3C
0F3C
0F3C
0F3C
0F3C
0F3C
0F3C
0F3C
0F3C
0F3C
ENDCHAR
STARTCHAR 2566
ENCODING 9574
SWIDTH 500 0
DWIDTH 16 0
BBX 16 22 0 -8
BITMAP
FFFF
FFFF
0000
0000
FF3F
FF3F
0F3C
0F3C
0F3C
0F3C
0F3C
0F3C
0F3C
0F3C
0F3C
0F3C
0F3C
0F3C
0F3C
0F3C
0F3C
0F3C
ENDCHAR
STARTCHAR 2567
ENCODING 9575
SWIDTH 500 0
DWIDTH 16 0
BBX 16 16 0 8
BITMAP
03C0
03C0
03C0
03C0
03C0
03C0
03C0
03C0
03C0
03C0
FFFF
FFFF
0000
0000
FFFF
FFFF
ENDCHAR
STARTCHAR 2568
ENCODING 9576
SWIDTH 500 0
DWIDTH 16 0
BBX 16 16 0 8
BITMAP
0F3C
0F3C
0F3C
0F3C
0F3C
0F3C
0F3C
0F3C
0F3C
0F3C
0F3C
0F3C
0F3C
0F3C
FFFF
FFFF
ENDCHAR
STARTCHAR 2569
ENCODING 9577
SWIDTH 500 0
DWIDTH 16 0
BBX 16 16 0 8
BITMAP
0F3C
0F3C
0F3C
0F3C
0F3C
0F3C
0F3C
0F3C
0F3C
0F3C
FF3F
FF3F
0000
0000
FFFF
FFFF
ENDCHAR
STARTCHAR 256A
ENCODING 9578
SWIDTH 500 0
DWIDTH 16 0
BBX 16 32 0 -8
BITMAP
03C0
03C0
03C0
03C0
03C0
03C0
03C0
03C0
03C0
03C0
FFFF
FFFF
03C0
03C0
FFFF
FFFF
03C0
03C0
03C0
03C0
03C0
03C0
03C0
03C0
03C0
03C0
03C0
03C0
03C0
03C0
03C0
03C0
ENDCHAR
STARTCHAR 256B
ENCODING 9579
SWIDTH 500 0
DWIDTH 16 0
BBX 16 32 0 -8
BITMAP
0F3C
0F3C
0F3C
0F3C
0F3C
0F3C
0F3C
0F3C
0F3C
0F3C
0F3C
0F3C
0F3C
0F3C
FFFF
FFFF
0F3C
0F3C
0F3C
0F3C
0F3C
0F3C
0F3C
0F3C
0F3C
0F3C
0F3C
0F3C
0F3C
0F3C
0F3C
0F3C
ENDCHAR
STARTCHAR 256C
ENCODING 9580
SWIDTH 500 0
DWIDTH 16 0
BBX 16 32 0 -8
BITMAP
0F3C
0F3C
0F3C
0F3C
0F3C
0F3C
0F3C
0F3C
0F3C
0F3C
FF3F
FF3F
0000
0000
FF3F
FF3F
0F3C
0F3C
0F3C
0F3C
0F3C
0F3C
0F3C
0F3C
0F3C
0F3C
0F3C
0F3C
0F3C
0F3C
0F3C
0F3C
ENDCHAR
STARTCHAR 2580
ENCODING 9600
SWIDTH 500 0
DWIDTH 16 0
BBX 16 14 0 10
BITMAP
FFFF
FFFF
FFFF
FFFF
FFFF
FFFF
FFFF
FFFF
FFFF
FFFF
FFFF
FFFF
FFFF
FFFF
ENDCHAR
STARTCHAR 2581
ENCODING 9601
SWIDTH 500 0
DWIDTH 16 0
BBX 16 4 0 -6
BITMAP
FFFF
FFFF
FFFF
FFFF
ENDCHAR
STARTCHAR 2584
ENCODING 9604
SWIDTH 500 0
DWIDTH 16 0
BBX 16 18 0 -8
BITMAP
FFFF
FFFF
FFFF
FFFF
FFFF
FFFF
FFFF
FFFF
FFFF
FFFF
FFFF
FFFF
FFFF
FFFF
FFFF
FFFF
FFFF
FFFF
ENDCHAR
STARTCHAR 2588
ENCODING 9608
SWIDTH 500 0
DWIDTH 16 0
BBX 16 32 0 -8
BITMAP
FFFF
FFFF
FFFF
FFFF
FFFF
FFFF
FFFF
FFFF
FFFF
FFFF
FFFF
FFFF
FFFF
FFFF
FFFF
FFFF
FFFF
FFFF
FFFF
FFFF
FFFF
FFFF
FFFF
FFFF
FFFF
FFFF
FFFF
FFFF
FFFF
FFFF
FFFF
FFFF
ENDCHAR
STARTCHAR 258C
ENCODING 9612
SWIDTH 500 0
DWIDTH 16 0
BBX 8 32 0 -8
BITMAP
FF
FF
FF
FF
FF
FF
FF
FF
FF
FF
FF
FF
FF
FF
FF
FF
FF
FF
FF
FF
FF
FF
FF
FF
FF
FF
FF
FF
FF
FF
FF
FF
ENDCHAR
STARTCHAR 2590
ENCODING 9616
SWIDTH 500 0
DWIDTH 16 0
BBX 8 32 8 -8
BITMAP
FF
FF
FF
FF
FF
FF
FF
FF
FF
FF
FF
FF
FF
FF
FF
FF
FF
FF
FF
FF
FF
FF
FF
FF
FF
FF
FF
FF
FF
FF
FF
FF
ENDCHAR
STARTCHAR 2591
ENCODING 9617
SWIDTH 500 0
DWIDTH 16 0
BBX 14 32 2 -8
BITMAP
0C0C
0C0C
C0C0
C0C0
0C0C
0C0C
C0C0
C0C0
0C0C
0C0C
C0C0
C0C0
0C0C
0C0C
C0C0
C0C0
0C0C
0C0C
C0C0
C0C0
0C0C
0C0C
C0C0
C0C0
0C0C
0C0C
C0C0
C0C0
0C0C
0C0C
C0C0
C0C0
ENDCHAR
STARTCHAR 2592
ENCODING 9618
SWIDTH 500 0
DWIDTH 16 0
BBX 16 32 0 -8
BITMAP
3333
3333
CCCC
CCCC
3333
3333
CCCC
CCCC
3333
3333
CCCC
CCCC
3333
3333
CCCC
CCCC
3333
3333
CCCC
CCCC
3333
3333
CCCC
CCCC
3333
3333
CCCC
CCCC
3333
3333
CCCC
CCCC
ENDCHAR
STARTCHAR 2593
ENCODING 9619
SWIDTH 500 0
DWIDTH 16 0
BBX 16 32 0 -8
BITMAP
F3F3
F3F3
3F3F
3F3F
F3F3
F3F3
3F3F
3F3F
F3F3
F3F3
3F3F
3F3F
F3F3
F3F3
3F3F
3F3F
F3F3
F3F3
3F3F
3F3F
F3F3
F3F3
3F3F
3F3F
F3F3
F3F3
3F3F
3F3F
F3F3
F3F3
3F3F
3F3F
ENDCHAR
STARTCHAR 25A0
ENCODING 9632
SWIDTH 500 0
DWIDTH 16 0
BBX 10 14 2 2
BITMAP
FFC0
FFC0
FFC0
FFC0
FFC0
FFC0
FFC0
FFC0
FFC0
FFC0
FFC0
FFC0
FFC0
FFC0
ENDCHAR
STARTCHAR 25A1
ENCODING 9633
SWIDTH 500 0
DWIDTH 16 0
BBX 12 14 2 2
BITMAP
FFF0
FFF0
F0F0
F0F0
F0F0
F0F0
F0F0
F0F0
F0F0
F0F0
F0F0
F0F0
FFF0
FFF0
ENDCHAR
STARTCHAR 25AA
ENCODING 9642
SWIDTH 500 0
DWIDTH 16 0
BBX 10 8 2 4
BITMAP
FFC0
FFC0
FFC0
FFC0
FFC0
FFC0
FFC0
FFC0
ENDCHAR
STARTCHAR 25AB
ENCODING 9643
SWIDTH 500 0
DWIDTH 16 0
BBX 10 8 2 4
BITMAP
FFC0
FFC0
F3C0
F3C0
F3C0
F3C0
FFC0
FFC0
ENDCHAR
STARTCHAR 25AC
ENCODING 9644
SWIDTH 500 0
DWIDTH 16 0
BBX 14 8 0 0
BITMAP
FFFC
FFFC
FFFC
FFFC
FFFC
FFFC
FFFC
FFFC
ENDCHAR
STARTCHAR 25B2
ENCODING 9650
SWIDTH 500 0
DWIDTH 16 0
BBX 14 14 0 2
BITMAP
0300
0300
0FC0
0FC0
0FC0
0FC0
3FF0
3FF0
3FF0
3FF0
FFFC
FFFC
FFFC
FFFC
ENDCHAR
STARTCHAR 25BA
ENCODING 9658
SWIDTH 500 0
DWIDTH 16 0
BBX 14 22 0 0
BITMAP
C000
C000
F000
F000
FC00
FC00
FF00
FF00
FFC0
FFC0
FFFC
FFFC
FFC0
FFC0
FF00
FF00
FC00
FC00
F000
F000
C000
C000
ENDCHAR
STARTCHAR 25BC
ENCODING 9660
SWIDTH 500 0
DWIDTH 16 0
BBX 14 14 0 2
BITMAP
FFFC
FFFC
FFFC
FFFC
3FF0
3FF0
3FF0
3FF0
0FC0
0FC0
0FC0
0FC0
0300
0300
ENDCHAR
STARTCHAR 25C4
ENCODING 9668
SWIDTH 500 0
DWIDTH 16 0
BBX 14 22 0 0
BITMAP
000C
000C
003C
003C
00FC
00FC
03FC
03FC
0FFC
0FFC
FFFC
FFFC
0FFC
0FFC
03FC
03FC
00FC
00FC
003C
003C
000C
000C
ENDCHAR
STARTCHAR 25CA
ENCODING 9674
SWIDTH 500 0
DWIDTH 16 0
BBX 14 14 0 2
BITMAP
0300
0300
0FC0
0FC0
3CF0
3CF0
F03C
F03C
3CF0
3CF0
0FC0
0FC0
0300
0300
ENDCHAR
STARTCHAR 25CB
ENCODING 9675
SWIDTH 500 0
DWIDTH 16 0
BBX 12 12 2 2
BITMAP
3FC0
3FC0
F0F0
F0F0
C030
C030
C030
C030
F0F0
F0F0
3FC0
3FC0
ENDCHAR
STARTCHAR 25CF
ENCODING 9679
SWIDTH 500 0
DWIDTH 16 0
BBX 12 12 2 2
BITMAP
3FC0
3FC0
FFF0
FFF0
FFF0
FFF0
FFF0
FFF0
FFF0
FFF0
3FC0
3FC0
ENDCHAR
STARTCHAR 25D8
ENCODING 9688
SWIDTH 500 0
DWIDTH 16 0
BBX 16 32 0 -8
BITMAP
FFFF
FFFF
FFFF
FFFF
FFFF
FFFF
FFFF
FFFF
FFFF
FFFF
FFFF
FFFF
FC3F
FC3F
F00F
F00F
F00F
F00F
FC3F
FC3F
FFFF
FFFF
FFFF
FFFF
FFFF
FFFF
FFFF
FFFF
FFFF
FFFF
FFFF
FFFF
ENDCHAR
STARTCHAR 25D9
ENCODING 9689
SWIDTH 500 0
DWIDTH 16 0
BBX 16 32 0 -8
BITMAP
FFFF
FFFF
FFFF
FFFF
FFFF
FFFF
FFFF
FFFF
FFFF
FFFF
F00F
F00F
C3C3
C3C3
CFF3
CFF3
CFF3
CFF3
C3C3
C3C3
F00F
F00F
FFFF
FFFF
FFFF
FFFF
FFFF
FFFF
FFFF
FFFF
FFFF
FFFF
ENDCHAR
STARTCHAR 25E6
ENCODING 9702
SWIDTH 500 0
DWIDTH 16 0
BBX 10 8 2 4
BITMAP
3F00
3F00
F3C0
F3C0
F3C0
F3C0
3F00
3F00
ENDCHAR
STARTCHAR 263A
ENCODING 9786
SWIDTH 500 0
DWIDTH 16 0
BBX 16 20 0 0
BITMAP
3FFC
3FFC
C003
C003
CC33
CC33
C003
C003
C003
C003
CFF3
CFF3
C3C3
C3C3
C003
C003
C003
C003
3FFC
3FFC
ENDCHAR
STARTCHAR 263B
ENCODING 9787
SWIDTH 500 0
DWIDTH 16 0
BBX 16 20 0 0
BITMAP
3FFC
3FFC
FFFF
FFFF
F3CF
F3CF
FFFF
FFFF
FFFF
FFFF
F00F
F00F
FC3F
FC3F
FFFF
FFFF
FFFF
FFFF
3FFC
3FFC
ENDCHAR
STARTCHAR 263C
ENCODING 9788
SWIDTH 500 0
DWIDTH 16 0
BBX 16 18 0 0
BITMAP
03C0
03C0
03C0
03C0
F3CF
F3CF
0FF0
0FF0
FC3F
FC3F
0FF0
0FF0
F3CF
F3CF
03C0
03C0
03C0
03C0
ENDCHAR
STARTCHAR 2640
ENCODING 9792
SWIDTH 500 0
DWIDTH 16 0
BBX 12 20 2 0
BITMAP
3FC0
3FC0
F0F0
F0F0
F0F0
F0F0
F0F0
F0F0
F0F0
F0F0
3FC0
3FC0
0F00
0F00
FFF0
FFF0
0F00
0F00
0F00
0F00
ENDCHAR
STARTCHAR 2642
ENCODING 9794
SWIDTH 500 0
DWIDTH 16 0
BBX 14 20 0 0
BITMAP
03FC
03FC
00FC
00FC
03CC
03CC
0F0C
0F0C
3FC0
3FC0
F0F0
F0F0
F0F0
F0F0
F0F0
F0F0
F0F0
F0F0
3FC0
3FC0
ENDCHAR
STARTCHAR 2660
ENCODING 9824
SWIDTH 500 0
DWIDTH 16 0
BBX 16 18 0 0
BITMAP
03C0
03C0
0FF0
0FF0
3FFC
3FFC
FFFF
FFFF
FFFF
FFFF
3FFC
3FFC
03C0
03C0
03C0
03C0
0FF0
0FF0
ENDCHAR
STARTCHAR 2663
ENCODING 9827
SWIDTH 500 0
DWIDTH 16 0
BBX 16 18 0 0
BITMAP
03C0
03C0
0FF0
0FF0
0FF0
0FF0
FC3F
FC3F
FC3F
FC3F
FC3F
FC3F
03C0
03C0
03C0
03C0
0FF0
0FF0
ENDCHAR
STARTCHAR 2665
ENCODING 9829
SWIDTH 500 0
DWIDTH 16 0
BBX 14 16 0 0
BITMAP
3CF0
3CF0
FFFC
FFFC
FFFC
FFFC
FFFC
FFFC
FFFC
FFFC
3FF0
3FF0
0FC0
0FC0
0300
0300
ENDCHAR
STARTCHAR 2666
ENCODING 9830
SWIDTH 500 0
DWIDTH 16 0
BBX 14 14 0 2
BITMAP
0300
0300
0FC0
0FC0
3FF0
3FF0
FFFC
FFFC
3FF0
3FF0
0FC0
0FC0
0300
0300
ENDCHAR
STARTCHAR 266A
ENCODING 9834
SWIDTH 500 0
DWIDTH 16 0
BBX 16 20 0 0
BITMAP
0FFF
0FFF
0F0F
0F0F
0FFF
0FFF
0F00
0F00
0F00
0F00
0F00
0F00
0F00
0F00
3F00
3F00
FF00
FF00
FC00
FC00
ENDCHAR
STARTCHAR 266B
ENCODING 9835
SWIDTH 500 0
DWIDTH 16 0
BBX 16 22 0 -2
BITMAP
3FFF
3FFF
3C0F
3C0F
3FFF
3FFF
3C0F
3C0F
3C0F
3C0F
3C0F
3C0F
3C0F
3C0F
3C3F
3C3F
FC3F
FC3F
FC3C
FC3C
F000
F000
ENDCHAR
STARTCHAR 2713
ENCODING 10003
SWIDTH 500 0
DWIDTH 16 0
BBX 14 22 0 0
BITMAP
003C
003C
003C
003C
003C
003C
00F0
00F0
00F0
00F0
00F0
00F0
00F0
00F0
C3C0
C3C0
F3C0
F3C0
3FC0
3FC0
0F00
0F00
ENDCHAR
STARTCHAR FB01
ENCODING 64257
SWIDTH 500 0
DWIDTH 16 0
BBX 16 20 0 0
BITMAP
0FFC
0FFC
3C3C
3C3C
3C00
3C00
3C00
3C00
FFFC
FFFC
3C3C
3C3C
3C3C
3C3C
3C3C
3C3C
3C3C
3C3C
FF3F
FF3F
ENDCHAR
STARTCHAR FB02
ENCODING 64258
SWIDTH 500 0
DWIDTH 16 0
BBX 16 20 0 0
BITMAP
0FFC
0FFC
3C3C
3C3C
3C3C
3C3C
3C3C
3C3C
FF3C
FF3C
3C3C
3C3C
3C3C
3C3C
3C3C
3C3C
3C3C
3C3C
FF3F
FF3F
ENDCHAR
STARTCHAR FFFD
ENCODING 65533
SWIDTH 500 0
DWIDTH 16 0
BBX 16 32 0 -8
BITMAP
FFFF
FFFF
FFFF
FFFF
C00F
C00F
0FC3
0FC3
0FC3
0FC3
FF0F
FF0F
FC3F
FC3F
FC3F
FC3F
FC3F
FC3F
FFFF
FFFF
FC3F
FC3F
FC3F
FC3F
FFFF
FFFF
FFFF
FFFF
FFFF
FFFF
FFFF
FFFF
ENDCHAR
ENDFONT
